<svg width="577" height="544" viewBox="0 0 577 544" fill="none" xmlns="http://www.w3.org/2000/svg">
<mask id="mask0_242_6" style="mask-type:luminance" maskUnits="userSpaceOnUse" x="0" y="22" width="565" height="522">
<path d="M564.164 22.1021H0V543.464H564.164V22.1021Z" fill="white"/>
</mask>
<g mask="url(#mask0_242_6)">
<path d="M430.229 190.516C429.714 213.001 443.477 235.962 464.714 243.366C476.279 247.397 488.954 246.827 500.805 249.92C512.656 253.013 524.732 261.936 524.805 274.182C524.855 282.317 520.242 300.767 544.599 311.582C564.692 320.497 559.893 368.743 497.666 389.026C478.6 395.242 490.888 379.607 471.066 376.556C451.497 373.546 433.743 362.477 420.243 347.994C406.743 333.511 397.188 315.758 389.743 297.409C381.174 276.281 375.177 252.94 380.476 230.765C385.775 208.59 405.325 188.55 430.222 190.519" fill="black"/>
<path d="M490.587 391.815C486.348 391.815 484.767 389.523 483.175 386.358C481.5 383.022 479.601 379.242 470.865 377.9C452.348 375.051 434.016 364.76 419.253 348.92C407.253 336.045 397.189 319.364 388.487 297.92C377.559 270.983 374.593 249.542 379.159 230.449C384.314 208.881 404.019 187.074 430.334 189.162C430.681 189.19 431.004 189.349 431.237 189.608C431.47 189.866 431.596 190.204 431.588 190.552C431.065 213.447 445.188 235.12 465.162 242.084C471.462 244.284 478.3 245.105 484.906 245.899C490.374 246.435 495.8 247.34 501.147 248.607C513.141 251.738 526.085 261.075 526.168 274.176C526.176 275.236 526.107 276.466 526.032 277.767C525.503 287.123 524.706 301.267 545.153 310.336C552.695 313.683 557.045 322.267 556.508 332.736C555.581 350.819 539.724 376.748 498.09 390.32C495.681 391.201 493.152 391.707 490.59 391.82M426.859 191.743C403.674 191.743 386.482 211.512 381.806 231.076C377.382 249.593 380.306 270.506 391.012 296.894C399.584 318.025 409.474 334.435 421.247 347.061C435.595 362.455 453.364 372.45 471.281 375.208C481.406 376.764 483.834 381.601 485.609 385.134C487.384 388.667 488.367 390.622 497.246 387.728C537.567 374.585 552.906 349.813 553.789 332.594C554.268 323.277 550.536 315.699 544.049 312.82C521.88 302.983 522.777 287.098 523.314 277.607C523.389 276.297 523.452 275.165 523.447 274.188C523.372 262.523 511.478 254.115 500.461 251.235C495.233 250.002 489.928 249.121 484.582 248.599C477.829 247.785 470.846 246.943 464.265 244.648C443.585 237.441 428.858 215.348 428.853 191.793C428.183 191.76 427.518 191.743 426.859 191.743Z" fill="black"/>
<path d="M308.581 139.15C315.135 171.104 321.469 205.489 308.381 235.369C304.128 245.079 297.943 253.92 294.449 263.929C290.296 275.829 290.166 288.762 291.304 301.312C293.45 325.035 300.577 349.372 317.258 366.377C333.939 383.382 361.851 390.792 382.431 378.798C400.491 368.274 408.737 345.656 407.602 324.785C406.467 303.914 397.56 284.325 388.16 265.656C365.584 220.8 339.267 177.829 308.578 139.15" fill="black"/>
<path d="M354.789 294.995C355.376 277.962 353.274 268.421 352.589 255.684C359.486 252.235 366.867 249.854 374.479 248.624C377.89 248.073 381.736 247.86 384.361 249.924C386.006 251.214 393.794 244.342 394.603 246.233C400.149 259.233 400.619 277.772 406.168 290.776C406.594 291.776 426.023 289.976 426.452 290.976C428.26 295.209 426.743 330.461 425.4 331.355C354.305 378.624 320.063 311.023 320.063 311.023C320.063 311.023 332.957 303.123 354.791 294.995" fill="white"/>
<path d="M377.545 349.508C372.444 349.516 367.363 348.864 362.43 347.567C333.466 339.936 319.43 312.792 318.845 311.64C318.691 311.335 318.657 310.984 318.75 310.655C318.842 310.327 319.055 310.045 319.345 309.865C319.472 309.785 332.258 302.005 353.453 294.042C353.66 285.333 353.256 276.621 352.243 267.969C351.855 264.082 351.457 260.069 351.227 255.762C351.212 255.497 351.275 255.234 351.408 255.005C351.541 254.776 351.738 254.591 351.975 254.472C358.992 250.955 366.506 248.53 374.255 247.282C377.644 246.734 381.911 246.41 385.02 248.719C386.428 248.213 387.77 247.541 389.02 246.719C391.778 245.105 393.406 244.213 394.704 244.642C394.959 244.724 395.194 244.861 395.391 245.043C395.588 245.224 395.744 245.446 395.847 245.694C398.679 252.331 400.222 260.421 401.714 268.245C403.137 275.698 404.607 283.401 407.174 289.669C408.661 289.813 412.98 289.639 416.228 289.511C426.195 289.111 427.162 289.187 427.696 290.439C428.961 293.404 428.651 306.83 428.46 312.464C427.818 331.377 426.688 332.128 426.145 332.49C409.115 343.811 392.829 349.504 377.54 349.504M321.893 311.529C324.872 316.729 338.63 338.491 363.15 344.939C381.786 349.839 402.375 344.953 424.35 330.417C425.51 326.671 426.623 297.555 425.363 292.07C423.815 291.934 419.554 292.106 416.337 292.233C406.403 292.633 405.445 292.554 404.908 291.305C402.078 284.668 400.536 276.578 399.041 268.756C397.621 261.314 396.156 253.628 393.598 247.368C392.494 247.862 391.425 248.43 390.398 249.068C387.413 250.818 385.057 252.199 383.515 250.987C381.222 249.187 377.595 249.497 374.691 249.965C367.51 251.122 360.538 253.326 353.997 256.505C354.23 260.392 354.581 263.947 354.955 267.693C356.021 276.767 356.419 285.907 356.148 295.04C356.138 295.309 356.049 295.57 355.891 295.789C355.734 296.008 355.515 296.175 355.262 296.269C343.752 300.462 332.593 305.565 321.893 311.529Z" fill="black"/>
<path d="M301.228 146.991C303.316 162.765 306.505 179.31 302.428 195.018C300.199 203.582 300.412 247.118 335.346 259.518C344.932 262.915 355.159 264.112 365.27 263.019C375.381 261.925 385.117 258.571 393.755 253.203C406.602 245.412 422.201 221.203 419.097 197.164C429.732 200.115 440.245 192.944 440.364 183.381C440.436 177.868 434.364 170.96 427.938 171.281C422.965 171.525 422.376 171.574 418.593 174.462C415.81 162.763 414.486 150.764 414.653 138.74C402.564 125.426 383.194 118.626 363.812 115.721C357.381 114.588 350.825 114.339 344.326 114.982C325.726 117.302 299.082 130.791 301.226 146.991" fill="white"/>
<path d="M357.982 264.834C350.111 264.82 342.3 263.458 334.888 260.808C299.894 248.387 298.377 205.173 301.104 194.677C304.62 181.141 302.613 166.812 300.669 152.955C300.398 151.017 300.129 149.09 299.874 147.171C299.268 142.608 300.694 138.051 304.11 133.626C312.433 122.847 330.953 115.28 344.154 113.626C351.354 112.726 358.546 113.551 364.011 114.371C380.039 116.771 402.011 122.794 415.654 137.819C415.886 138.075 416.013 138.409 416.008 138.755C415.843 149.975 417.002 161.175 419.461 172.124C422.133 170.274 423.426 170.133 427.861 169.915C429.599 169.905 431.322 170.246 432.925 170.919C434.528 171.592 435.979 172.582 437.189 173.83C440.024 176.566 441.76 180.23 441.719 183.399C441.653 185.77 441.04 188.094 439.928 190.189C438.816 192.284 437.234 194.093 435.307 195.476C433.223 197.01 430.85 198.104 428.331 198.694C425.812 199.283 423.2 199.356 420.652 198.906C422.87 223.398 407.107 246.694 394.452 254.367C383.49 261.144 370.87 264.766 357.982 264.834ZM302.576 146.814C302.828 148.724 303.099 150.646 303.371 152.576C305.348 166.699 307.394 181.299 303.742 195.361C302.216 201.239 300.292 245.639 335.801 258.239C354.933 265.031 375.264 262.83 393.045 252.045C405.086 244.745 420.81 221.06 417.745 197.345C417.715 197.122 417.742 196.895 417.821 196.685C417.901 196.475 418.032 196.287 418.202 196.14C418.372 195.993 418.575 195.89 418.795 195.841C419.014 195.791 419.242 195.797 419.459 195.858C421.867 196.541 424.399 196.665 426.862 196.223C429.325 195.78 431.655 194.781 433.674 193.302C435.267 192.168 436.576 190.681 437.5 188.958C438.424 187.235 438.938 185.322 439.001 183.368C439.031 180.926 437.614 178.027 435.301 175.795C434.359 174.806 433.227 174.016 431.972 173.474C430.718 172.932 429.367 172.649 428.001 172.641C423.181 172.876 422.893 172.89 419.418 175.541C419.237 175.68 419.024 175.77 418.799 175.805C418.573 175.84 418.343 175.818 418.128 175.74C417.914 175.663 417.723 175.533 417.571 175.362C417.42 175.191 417.315 174.985 417.264 174.763C414.499 163.135 413.161 151.213 413.282 139.261C400.153 125.116 379.063 119.384 363.614 117.07C358.32 116.278 351.362 115.475 344.499 116.334C331.843 117.915 314.143 125.094 306.274 135.292C303.317 139.121 302.074 143 302.581 146.815" fill="black"/>
<path d="M377.518 210.863C372.274 210.825 367.219 208.897 363.281 205.434C358.378 201.165 355.237 195.227 354.465 188.772C352.695 175.083 361.371 162.642 373.802 161.032C376.836 160.659 379.915 160.934 382.834 161.841C385.754 162.747 388.447 164.264 390.736 166.29C395.589 170.598 398.721 176.516 399.552 182.952C400.383 189.388 398.857 195.907 395.257 201.306C393.557 203.846 391.337 205.996 388.744 207.614C386.151 209.232 383.244 210.281 380.215 210.692C379.32 210.807 378.418 210.865 377.515 210.864M376.485 163.582C375.704 163.582 374.923 163.632 374.148 163.734C363.209 165.142 355.589 176.221 357.165 188.423C357.852 194.209 360.662 199.534 365.05 203.366C367.04 205.159 369.394 206.501 371.951 207.299C374.508 208.098 377.207 208.333 379.863 207.99C382.52 207.648 385.071 206.734 387.341 205.313C389.612 203.891 391.548 201.996 393.017 199.756C396.234 194.911 397.595 189.068 396.85 183.3C396.106 177.532 393.306 172.226 388.964 168.356C385.514 165.317 381.085 163.621 376.488 163.58" fill="black"/>
<path d="M314.366 213.76C309.121 213.721 304.067 211.792 300.129 208.328C295.226 204.06 292.084 198.123 291.313 191.668C289.544 177.977 298.218 165.531 310.65 163.928C323.082 162.325 334.63 172.154 336.399 185.845C337.291 192.284 335.761 198.824 332.105 204.199C330.405 206.739 328.185 208.889 325.591 210.507C322.998 212.125 320.091 213.174 317.062 213.585C316.167 213.701 315.265 213.759 314.362 213.759M313.31 166.477C312.536 166.478 311.763 166.528 310.995 166.627C300.053 168.039 292.433 179.117 294.009 191.319C294.695 197.104 297.505 202.429 301.894 206.259C303.883 208.053 306.237 209.396 308.794 210.194C311.351 210.993 314.051 211.229 316.708 210.886C319.365 210.543 321.916 209.629 324.186 208.208C326.457 206.786 328.392 204.89 329.861 202.649C333.134 197.829 334.501 191.965 333.697 186.194C332.235 174.859 323.342 166.478 313.314 166.478" fill="black"/>
<path d="M433.05 50.615C430.739 43.0104 426.225 36.2617 420.079 31.2224C413.933 26.1832 406.43 23.0796 398.52 22.3042C390.61 21.5288 382.648 23.1164 375.64 26.8663C368.632 30.6162 362.894 36.3598 359.15 43.371C355.407 50.3822 353.827 58.346 354.609 66.2554C355.392 74.1647 358.502 81.6644 363.547 87.806C368.592 93.9477 375.345 98.4554 382.951 100.759C390.558 103.063 398.677 103.06 406.282 100.749C416.48 97.6505 425.029 90.6277 430.049 81.2258C435.069 71.8239 436.148 60.8129 433.05 50.615Z" fill="black"/>
<path d="M417.204 176.111C407.01 160.293 400.772 148.902 397.422 129.644C359.77 151.944 324.029 155.409 287.979 154.035C287.218 147.902 288.505 134.33 291.052 128.518C297.301 114.27 305.092 101.933 326.857 92.203C342.11 85.386 362.64 80.851 379.147 83.23C395.547 85.592 409.653 94.46 421.135 105.111C430.266 113.586 437.986 127.485 440.702 141.221C443.025 152.985 440.145 161.663 434.874 173.648C431.914 172.053 429.132 170.442 425.701 171.101C422.27 171.76 420.064 173.507 417.201 176.11" fill="black"/>
<path d="M362.578 236.495C359.952 236.541 357.395 235.655 355.36 233.995C355.083 233.764 354.908 233.432 354.875 233.072C354.843 232.712 354.954 232.354 355.186 232.077C355.417 231.799 355.749 231.625 356.109 231.592C356.468 231.559 356.827 231.671 357.104 231.902C359.671 234.045 363.514 234.363 367.379 232.749C371.818 230.834 375.383 227.334 377.379 222.931C377.452 222.765 377.558 222.615 377.69 222.491C377.821 222.366 377.977 222.269 378.147 222.206C378.317 222.142 378.497 222.113 378.679 222.12C378.86 222.127 379.038 222.171 379.202 222.248C379.366 222.325 379.513 222.434 379.635 222.568C379.756 222.703 379.85 222.861 379.91 223.032C379.969 223.203 379.994 223.385 379.983 223.566C379.971 223.747 379.924 223.924 379.843 224.086C377.563 229.102 373.495 233.087 368.433 235.263C366.583 236.054 364.595 236.472 362.583 236.492" fill="black"/>
<path d="M375.948 186.936C375.89 186.178 375.606 185.455 375.133 184.861C374.661 184.266 374.02 183.827 373.295 183.6C372.57 183.372 371.793 183.368 371.066 183.586C370.338 183.805 369.693 184.237 369.213 184.826C368.733 185.415 368.441 186.135 368.374 186.892C368.307 187.648 368.469 188.408 368.838 189.072C369.207 189.736 369.767 190.274 370.445 190.617C371.123 190.96 371.888 191.092 372.642 190.995C373.126 190.946 373.595 190.802 374.023 190.571C374.451 190.34 374.829 190.028 375.136 189.651C375.443 189.274 375.673 188.84 375.812 188.374C375.952 187.908 375.998 187.42 375.948 186.936Z" fill="black"/>
<path d="M319.702 189.898C319.645 189.14 319.362 188.416 318.889 187.821C318.416 187.225 317.776 186.785 317.05 186.558C316.325 186.33 315.548 186.326 314.82 186.544C314.092 186.763 313.446 187.195 312.966 187.785C312.486 188.374 312.194 189.094 312.127 189.852C312.061 190.609 312.223 191.369 312.593 192.033C312.963 192.697 313.524 193.235 314.203 193.577C314.882 193.919 315.648 194.05 316.402 193.952C317.377 193.851 318.272 193.368 318.89 192.608C319.509 191.847 319.801 190.873 319.702 189.898Z" fill="black"/>
<path d="M340.813 212.907C340.647 212.907 340.483 212.877 340.328 212.818L335.198 210.869C334.709 210.738 334.254 210.503 333.864 210.18C333.474 209.858 333.157 209.455 332.936 209C332.385 207.566 333.321 206.309 333.825 205.633C335.725 203.098 337.022 200.164 337.617 197.053C338.213 193.941 338.092 190.735 337.264 187.678C337.166 187.33 337.21 186.958 337.387 186.643C337.563 186.328 337.858 186.095 338.205 185.997C338.553 185.899 338.926 185.944 339.241 186.12C339.556 186.297 339.788 186.591 339.886 186.939C340.826 190.398 340.966 194.026 340.295 197.547C339.623 201.068 338.158 204.389 336.01 207.259C335.816 207.501 335.648 207.763 335.51 208.04C335.722 208.147 335.94 208.241 336.163 208.322L341.293 210.271C341.591 210.384 341.841 210.598 341.998 210.876C342.154 211.154 342.209 211.478 342.151 211.791C342.093 212.105 341.927 212.389 341.682 212.593C341.436 212.797 341.127 212.908 340.808 212.907" fill="black"/>
<path d="M334.131 182.312C333.774 182.312 333.432 182.172 333.178 181.922C332.924 181.672 332.778 181.332 332.772 180.975C332.711 177.439 336.142 174.975 339.572 174.103C342.36 173.413 345.272 173.389 348.071 174.034C350.87 174.679 353.477 175.974 355.682 177.815C355.954 178.052 356.121 178.388 356.146 178.748C356.17 179.108 356.051 179.463 355.814 179.736C355.576 180.008 355.241 180.174 354.881 180.199C354.52 180.224 354.165 180.104 353.893 179.867C352.023 178.311 349.812 177.218 347.441 176.674C345.069 176.131 342.603 176.154 340.242 176.741C337.858 177.35 335.46 178.984 335.494 180.927C335.5 181.288 335.362 181.636 335.111 181.895C334.861 182.155 334.518 182.304 334.157 182.311L334.131 182.312Z" fill="black"/>
<path d="M396.86 176.337C396.681 176.337 396.504 176.303 396.339 176.235C396.173 176.166 396.023 176.066 395.896 175.94C395.64 175.685 395.496 175.339 395.495 174.978C395.494 174.617 395.637 174.27 395.892 174.014C396.147 173.758 396.493 173.614 396.854 173.613L415.465 173.56C415.826 173.559 416.172 173.702 416.428 173.957C416.684 174.211 416.828 174.557 416.829 174.918C416.83 175.279 416.687 175.626 416.432 175.881C416.178 176.137 415.832 176.281 415.471 176.282L396.862 176.337H396.86Z" fill="black"/>
<path d="M418.86 189.209H418.846C418.667 189.207 418.49 189.17 418.326 189.1C418.161 189.03 418.012 188.928 417.887 188.8C417.762 188.673 417.663 188.521 417.596 188.355C417.529 188.189 417.496 188.012 417.498 187.833C417.539 183.263 416.644 178.732 414.868 174.521C414.727 174.189 414.724 173.814 414.859 173.479C414.995 173.145 415.257 172.877 415.59 172.736C415.922 172.596 416.297 172.592 416.631 172.728C416.966 172.863 417.233 173.126 417.374 173.458C419.296 178.013 420.266 182.914 420.223 187.858C420.219 188.217 420.074 188.559 419.819 188.811C419.564 189.064 419.22 189.205 418.861 189.206" fill="black"/>
<path d="M555.193 440.428C538.736 395.453 529.657 351.075 490.836 318.673C472.202 303.121 449.729 292.088 423.836 290.426C422.25 315.497 393.125 332.015 377.518 333.879C369.024 334.895 337.471 339.095 337.471 301.892C327.171 305.992 292.914 310.201 279.171 352.413C273.553 369.676 263.489 435.752 230.311 474.049C222.475 483.092 215.235 422.905 203.961 426.911C192.897 430.843 180.155 437.427 179.325 449.138C178.677 458.266 186.197 466.216 194.603 469.829C212.666 477.59 219.433 515.198 238.903 517.941C259.142 520.796 291.468 528.255 315.932 451.768C328.432 464.268 336.504 477.703 350.532 485.261C390.956 507.054 525.455 531.521 547.367 535.408C549.186 535.732 553.317 534.242 554.042 532.542C558.642 521.772 570.696 482.804 555.194 440.426" fill="#0086D5"/>
<path d="M547.875 536.811C547.624 536.813 547.374 536.794 547.127 536.753C521.25 532.16 390.127 508.153 349.885 486.462C340.153 481.218 333.25 473.238 325.946 464.794C322.967 461.352 319.899 457.808 316.538 454.325C306.122 486.044 293.466 505.909 277.886 515.019C264.228 523.004 251.22 521.11 240.766 519.587C240.068 519.484 239.384 519.384 238.714 519.287C227.65 517.728 220.568 505.764 213.714 494.194C207.985 484.517 202.06 474.508 194.07 471.075C185.537 467.412 177.25 459.175 177.97 449.039C178.67 439.139 187.027 431.485 203.509 425.627C204.105 425.411 204.739 425.322 205.372 425.366C206.004 425.41 206.62 425.586 207.18 425.882C212.402 428.49 216.38 441.246 220.235 453.582C222.813 461.833 226.343 473.129 228.635 473.608C228.835 473.636 229.186 473.273 229.288 473.157C255.693 442.676 267.51 393.736 273.859 367.444C275.476 360.744 276.759 355.45 277.879 351.992C289.929 314.966 318.017 306.482 331.515 302.404C333.702 301.745 335.588 301.175 336.967 300.626C337.173 300.544 337.397 300.514 337.618 300.538C337.839 300.562 338.05 300.64 338.234 300.764C338.418 300.889 338.568 301.057 338.672 301.254C338.776 301.45 338.83 301.669 338.83 301.891C338.83 313.129 341.795 321.458 347.643 326.643C357.026 334.969 371.584 333.219 377.069 332.563L377.357 332.527C392.283 330.744 420.937 314.682 422.476 290.34C422.499 289.98 422.664 289.643 422.935 289.404C423.206 289.166 423.561 289.044 423.921 289.066C448.051 290.614 470.857 300.224 491.708 317.628C524.027 344.604 535.825 379.528 548.32 416.494C550.912 424.166 553.594 432.104 556.468 439.959C570.528 478.397 562.343 516.578 555.289 533.08C554.364 535.245 550.314 536.81 547.872 536.81M315.932 450.41C316.294 450.41 316.64 450.554 316.896 450.81C320.952 454.869 324.538 459.01 328.001 463.01C335.142 471.264 341.883 479.058 351.175 484.066C391.048 505.56 521.793 529.49 547.598 534.066C548.988 534.307 552.377 532.966 552.787 532.006C553.546 530.234 571.155 488.03 553.911 440.892C551.026 433.004 548.34 425.052 545.74 417.363C533.372 380.763 521.691 346.201 489.964 319.715C469.952 303.015 448.128 293.65 425.081 291.875C423.666 305.763 414.421 315.841 406.781 321.916C397.938 328.946 386.517 334.173 377.681 335.228L377.393 335.261C371.576 335.961 356.132 337.811 345.835 328.677C339.73 323.261 336.471 314.903 336.135 303.814C335.003 304.191 333.712 304.581 332.303 305.007C318.243 309.251 292.076 317.159 280.469 352.829C279.375 356.187 278.107 361.437 276.504 368.079C270.104 394.595 258.183 443.954 231.343 474.936C230.981 475.446 230.482 475.842 229.903 476.078C229.325 476.314 228.691 476.381 228.076 476.271C224.396 475.504 221.838 467.851 217.635 454.39C214.296 443.705 210.143 430.407 205.959 428.317C205.726 428.187 205.468 428.108 205.202 428.087C204.936 428.065 204.668 428.101 204.417 428.192C189.064 433.649 181.301 440.529 180.683 449.232C180.063 457.987 187.743 465.396 195.141 468.574C203.948 472.356 210.103 482.753 216.056 492.806C222.878 504.329 229.321 515.213 239.089 516.59C239.765 516.684 240.454 516.79 241.154 516.89C261.133 519.803 291.332 524.199 314.634 451.354C314.705 451.132 314.831 450.931 315.002 450.772C315.173 450.613 315.382 450.501 315.609 450.446C315.714 450.421 315.822 450.408 315.93 450.407" fill="black"/>
<path d="M506.928 483.808C470.01 481.751 432.867 479.208 395.722 476.654C392.397 476.106 375.873 473.741 371.795 473.143C368.349 472.54 365.008 471.447 361.872 469.898C350.825 464.798 327.122 454.789 321.833 457.749C309.648 461.332 298.603 470.131 289.97 481.267C285.125 487.519 281.154 497.874 283.159 499.654C283.748 500.27 284.539 500.652 285.387 500.729C286.235 500.807 287.083 500.576 287.774 500.078C293.621 487.669 303.656 477.719 316.115 471.978C310.36 475.231 305.016 479.164 300.2 483.693C295.327 488.278 290.847 493.804 289.751 500.405C289.613 500.912 289.659 501.452 289.881 501.928C290.543 503.022 292.232 502.385 293.237 501.596C295.211 500.054 320.609 479.424 325.354 479.972C319.044 482.353 296.548 500.61 296.454 502.554C296.368 503.488 296.622 504.421 297.171 505.182C297.605 505.649 298.152 505.995 298.759 506.188C299.367 506.381 300.013 506.413 300.637 506.282C301.88 506.002 303.058 505.488 304.109 504.767C311.371 500.356 318.019 494.824 325.866 491.56C329.784 489.929 334.566 488.991 338.051 491.413C331.03 494.021 324.57 497.942 319.016 502.967C318.141 503.776 317.401 504.719 316.823 505.761C315.959 507.306 314.987 509.54 316.186 510.817C318.144 512.902 319.799 511.853 321.48 510.87C328.023 506.514 334.995 502.839 342.287 499.903C344.519 499.014 347.187 498.233 349.206 499.529C350.959 500.65 359.434 505.914 376.852 506.816C382.797 507.126 388.528 508.674 395.959 510.716C493.849 537.696 523.089 548.461 546.801 538.261C551.444 536.261 553.009 533.828 551.461 525.861C547.33 504.58 543.29 492.487 506.929 483.807" fill="white"/>
<path d="M526.936 543.464C508.181 543.464 481.468 535.994 431.229 521.945C420.641 518.985 408.644 515.632 395.598 512.036C388.684 510.136 382.715 508.486 376.784 508.179C360.479 507.332 351.555 502.653 348.474 500.679C346.96 499.713 344.642 500.433 342.793 501.172C335.585 504.068 328.695 507.699 322.232 512.009L322.049 512.12C320.377 513.1 317.849 514.579 315.194 511.752C313.142 509.565 315.02 506.206 315.634 505.102C316.283 503.935 317.114 502.878 318.095 501.971C322.923 497.574 328.447 494.008 334.442 491.42C331.756 490.98 328.733 491.846 326.388 492.82C321.288 494.946 316.559 498.147 311.988 501.245C309.665 502.82 307.262 504.445 304.814 505.935C303.617 506.75 302.273 507.325 300.857 507.627C299.996 507.803 299.104 507.749 298.27 507.471C297.437 507.192 296.691 506.699 296.109 506.04C295.343 505.024 294.981 503.76 295.093 502.493C295.15 502.144 295.293 501.815 295.508 501.535L294.963 501.967C294.534 502.31 294.232 502.551 294.074 502.673C293.067 503.524 291.764 503.94 290.45 503.83C290.092 503.767 289.752 503.628 289.453 503.423C289.154 503.217 288.902 502.95 288.714 502.639C288.485 502.252 288.352 501.817 288.326 501.368C287.385 501.957 286.272 502.21 285.168 502.083C284.065 501.957 283.038 501.46 282.254 500.673C278.979 497.773 284.771 485.752 288.891 480.436C298.324 468.265 309.535 459.983 321.318 456.481C327.703 453.294 352.159 463.918 362.439 468.663C365.46 470.151 368.676 471.206 371.991 471.797C373.071 471.955 375.023 472.237 377.373 472.578C383.733 473.497 393.318 474.878 395.873 475.302C432.107 477.791 469.58 480.363 506.996 482.448C507.077 482.453 507.158 482.465 507.237 482.484C544.416 491.361 548.599 504.008 552.791 525.602C554.342 533.584 552.965 537.095 547.331 539.515C540.884 542.251 533.933 543.596 526.931 543.463M346.688 497.487C347.837 497.464 348.968 497.777 349.941 498.387C352.841 500.242 361.271 504.647 376.925 505.461C383.152 505.782 389.254 507.461 396.325 509.412C409.374 513.012 421.374 516.364 431.961 519.324C502.42 539.024 526.161 545.66 546.261 537.016C550.01 535.402 551.613 533.804 550.121 526.124C546.032 505.062 542.241 493.663 506.729 485.163C469.309 483.078 431.851 480.503 395.629 478.014C395.587 478.014 395.543 478.006 395.502 478C393.071 477.6 383.394 476.2 376.99 475.273C374.637 474.932 372.679 474.65 371.599 474.492C368.024 473.867 364.556 472.737 361.299 471.136C341.436 461.969 325.84 457.063 322.499 458.936C322.41 458.987 322.316 459.027 322.217 459.055C311.1 462.325 300.031 470.509 291.047 482.102C286.094 488.492 283.275 497.363 284.1 498.676C284.43 499.013 284.855 499.241 285.317 499.332C285.78 499.422 286.259 499.371 286.692 499.183C292.721 486.642 302.923 476.589 315.551 470.745C315.87 470.599 316.234 470.582 316.565 470.697C316.897 470.813 317.171 471.052 317.33 471.365C317.489 471.677 317.522 472.04 317.421 472.376C317.319 472.712 317.092 472.996 316.786 473.168C311.126 476.368 305.871 480.236 301.134 484.689C295.156 490.31 291.967 495.374 291.095 500.631C291.061 500.803 291.043 500.978 291.042 501.154C291.541 501.066 292.009 500.849 292.399 500.525C292.554 500.406 292.85 500.168 293.266 499.836C320.58 478.049 324.166 478.464 325.513 478.622C325.816 478.657 326.098 478.793 326.315 479.008C326.531 479.223 326.669 479.505 326.707 479.807C326.744 480.11 326.679 480.416 326.521 480.678C326.363 480.939 326.122 481.139 325.837 481.247C319.989 483.456 299.573 499.972 297.809 502.824C297.764 503.158 297.806 503.498 297.93 503.812C298.055 504.125 298.258 504.401 298.52 504.613C298.781 504.826 299.094 504.967 299.426 505.024C299.758 505.081 300.099 505.052 300.417 504.939C301.487 504.684 302.499 504.231 303.402 503.604C305.791 502.153 308.167 500.545 310.465 498.986C315.144 495.816 319.984 492.535 325.341 490.303C329.192 488.703 334.661 487.396 338.828 490.297C339.032 490.438 339.194 490.633 339.295 490.859C339.397 491.085 339.435 491.335 339.404 491.582C339.374 491.828 339.277 492.061 339.124 492.256C338.971 492.452 338.767 492.601 338.535 492.689C331.67 495.226 325.356 499.056 319.935 503.972C319.168 504.684 318.519 505.513 318.011 506.428C316.599 508.956 317.017 509.712 317.178 509.886C318.294 511.071 318.906 510.802 320.672 509.767L320.794 509.695C327.391 505.299 334.424 501.594 341.781 498.639C343.331 497.953 344.994 497.562 346.687 497.484" fill="black"/>
<path d="M262.556 531.483L354.475 533.454L354.594 517.841L252.286 515.341L262.556 531.483Z" fill="black"/>
<path d="M1.362 388.927L201.185 390.021L270.057 531.479L72.109 530.979L1.362 388.927Z" fill="white"/>
<path d="M270.057 532.843L72.109 532.343C71.8566 532.343 71.6092 532.272 71.3947 532.139C71.1801 532.006 71.0068 531.816 70.894 531.59L0.144002 389.536C0.0407809 389.329 -0.00775718 389.098 0.00299067 388.867C0.0137385 388.636 0.0834161 388.411 0.205416 388.214C0.327416 388.017 0.497695 387.854 0.700106 387.742C0.902517 387.629 1.13035 387.57 1.362 387.57H1.37L201.19 388.664C201.444 388.666 201.693 388.738 201.908 388.874C202.124 389.009 202.297 389.202 202.408 389.431L271.28 530.889C271.38 531.097 271.427 531.326 271.414 531.557C271.402 531.787 271.331 532.01 271.209 532.206C271.086 532.402 270.917 532.563 270.715 532.675C270.513 532.787 270.287 532.846 270.056 532.847M72.956 529.627L267.878 530.117L200.329 391.38L3.566 390.303L72.956 529.627Z" fill="black"/>
<path d="M127.753 446.566C122.08 446.009 115.883 447.527 113.572 452.735C111.261 457.943 113.032 464.474 117.243 468.317C121.454 472.16 127.676 473.398 133.235 472.146C136.235 471.468 139.215 470.014 140.943 467.464C142.101 465.653 142.701 463.541 142.668 461.392C142.715 454.376 139.514 447.72 127.753 446.565" fill="white"/>
<path d="M128.982 473.98C124.332 474.046 119.822 472.387 116.323 469.323C111.539 464.957 109.858 457.75 112.323 452.185C114.585 447.085 120.405 444.485 127.881 445.211C141.304 446.529 144.07 454.744 144.026 461.403C144.061 463.823 143.379 466.198 142.066 468.231C139.866 471.473 136.21 472.874 133.53 473.475C132.036 473.812 130.509 473.982 128.978 473.982M125.608 447.828C122.313 447.828 116.898 448.592 114.808 453.291C112.801 457.815 114.208 463.713 118.15 467.312C120.161 469.024 122.55 470.235 125.121 470.844C127.691 471.453 130.369 471.444 132.935 470.817C135.663 470.355 138.118 468.885 139.815 466.7C140.818 465.109 141.336 463.261 141.305 461.381C141.36 453.233 136.883 448.83 127.619 447.922C127.146 447.875 126.445 447.822 125.612 447.822" fill="black"/>
<path d="M484.903 483.892C484.616 483.892 484.337 483.801 484.105 483.633C483.873 483.465 483.7 483.228 483.61 482.956C469.703 440.846 461.833 414.208 461.833 356.463C461.833 356.102 461.976 355.756 462.232 355.501C462.487 355.245 462.833 355.102 463.194 355.102C463.555 355.102 463.901 355.245 464.156 355.501C464.412 355.756 464.555 356.102 464.555 356.463C464.555 413.79 472.374 440.256 486.193 482.103C486.249 482.273 486.271 482.452 486.258 482.63C486.244 482.809 486.196 482.983 486.116 483.142C486.035 483.302 485.924 483.444 485.788 483.561C485.653 483.677 485.496 483.766 485.326 483.822C485.189 483.868 485.045 483.891 484.9 483.891" fill="black"/>
<path d="M315.938 453.128C315.718 453.129 315.501 453.076 315.307 452.974C315.112 452.872 314.944 452.725 314.819 452.544C296.872 426.728 301.726 407.821 306.419 389.533C308.761 380.402 311.187 370.958 310.805 360.633C310.798 360.454 310.826 360.276 310.889 360.108C310.951 359.94 311.045 359.786 311.167 359.655C311.289 359.524 311.435 359.418 311.598 359.344C311.76 359.269 311.936 359.228 312.115 359.221C312.475 359.211 312.824 359.343 313.088 359.588C313.352 359.833 313.51 360.171 313.527 360.531C313.927 371.249 311.45 380.887 309.058 390.209C304.307 408.715 299.819 426.194 317.058 450.986C317.2 451.19 317.283 451.429 317.299 451.677C317.315 451.926 317.263 452.173 317.148 452.394C317.033 452.614 316.86 452.799 316.647 452.928C316.434 453.057 316.191 453.126 315.942 453.126" fill="black"/>
<path d="M374.353 389.658C356.209 389.658 338.047 388.019 320.415 383.6C320.355 383.588 320.297 383.564 320.246 383.53C320.196 383.495 320.152 383.45 320.119 383.398C320.086 383.346 320.064 383.288 320.054 383.227C320.044 383.167 320.047 383.105 320.062 383.045C320.077 382.985 320.103 382.929 320.141 382.88C320.178 382.831 320.225 382.79 320.278 382.76C320.332 382.729 320.391 382.71 320.452 382.703C320.513 382.696 320.575 382.702 320.634 382.72C365.357 393.928 413.617 387.175 456.191 381.214C456.31 381.197 456.431 381.228 456.528 381.301C456.624 381.373 456.688 381.481 456.704 381.601C456.721 381.72 456.69 381.841 456.618 381.937C456.545 382.034 456.437 382.097 456.318 382.114C430.418 385.738 402.405 389.659 374.352 389.659" fill="black"/>
<path d="M390.711 424.532C364.048 424.547 337.479 421.368 311.572 415.063C311.46 415.03 311.364 414.955 311.306 414.854C311.248 414.752 311.231 414.632 311.258 414.518C311.286 414.405 311.357 414.306 311.455 414.243C311.554 414.18 311.673 414.157 311.788 414.18C359.459 425.761 409.096 426.703 457.172 416.94C457.231 416.926 457.292 416.924 457.352 416.934C457.412 416.945 457.469 416.967 457.52 416.999C457.572 417.032 457.616 417.075 457.65 417.125C457.684 417.175 457.708 417.231 457.721 417.29C457.733 417.35 457.733 417.411 457.721 417.471C457.709 417.53 457.686 417.587 457.652 417.637C457.618 417.687 457.574 417.73 457.523 417.763C457.472 417.796 457.415 417.818 457.355 417.829C435.422 422.297 413.094 424.541 390.711 424.529" fill="black"/>
<path d="M558.25 495.34C558.184 495.34 558.119 495.325 558.059 495.297C558 495.269 557.947 495.229 557.904 495.179C549.431 485.403 538.603 477.952 526.445 473.531C514.287 469.111 501.201 467.867 488.428 469.917C488.369 469.927 488.308 469.925 488.25 469.912C488.192 469.898 488.136 469.874 488.088 469.839C488.039 469.804 487.997 469.76 487.965 469.709C487.934 469.659 487.912 469.602 487.902 469.543C487.892 469.484 487.894 469.423 487.907 469.365C487.921 469.307 487.945 469.251 487.98 469.203C488.015 469.154 488.059 469.112 488.11 469.08C488.16 469.049 488.217 469.027 488.276 469.017C501.205 466.943 514.449 468.203 526.754 472.678C539.06 477.153 550.02 484.695 558.596 494.589C558.652 494.655 558.688 494.736 558.7 494.822C558.712 494.908 558.699 494.995 558.662 495.074C558.626 495.152 558.568 495.219 558.495 495.266C558.422 495.312 558.337 495.337 558.25 495.337" fill="black"/>
<path d="M555.199 477.163C555.141 477.163 555.084 477.152 555.03 477.13C552.407 475.895 550.019 474.212 547.973 472.157C547.228 471.49 546.461 470.803 545.686 470.169C540.94 466.281 535.228 463.753 529.159 462.854C529.042 462.834 528.937 462.769 528.867 462.673C528.797 462.576 528.768 462.457 528.785 462.339C528.803 462.221 528.866 462.115 528.96 462.043C529.055 461.971 529.174 461.939 529.292 461.954C535.524 462.878 541.388 465.474 546.262 469.466C547.051 470.114 547.826 470.809 548.577 471.479C550.548 473.46 552.846 475.086 555.369 476.288C555.467 476.327 555.548 476.4 555.598 476.492C555.648 476.585 555.665 476.692 555.645 476.795C555.625 476.899 555.57 476.992 555.488 477.059C555.407 477.126 555.305 477.163 555.2 477.163" fill="black"/>
</g>
<mask id="mask1_242_6" style="mask-type:luminance" maskUnits="userSpaceOnUse" x="134" y="179" width="67" height="75">
<path d="M200.234 179.289H134.189V253.41H200.234V179.289Z" fill="white"/>
</mask>
<g mask="url(#mask1_242_6)">
<path d="M166.537 248.735C165.701 248.732 164.885 248.478 164.195 248.005C163.253 247.363 162.519 246.459 162.084 245.405C160.379 241.417 159.635 237.084 159.91 232.755C160.186 228.427 161.474 224.223 163.671 220.483C164.406 219.267 164.632 218.346 164.34 217.747C164.048 217.148 163.185 216.754 161.775 216.582C157.477 216 153.376 214.416 149.801 211.959C146.227 209.502 143.28 206.24 141.197 202.435C140.637 201.442 140.379 200.307 140.456 199.169C140.497 198.459 140.724 197.773 141.114 197.178C141.504 196.584 142.043 196.102 142.678 195.782L166.193 184.35C166.836 184.048 167.548 183.921 168.257 183.981C168.965 184.042 169.645 184.288 170.228 184.694C171.17 185.337 171.904 186.24 172.34 187.294C174.044 191.283 174.789 195.616 174.513 199.944C174.237 204.273 172.949 208.476 170.752 212.216C170.017 213.432 169.792 214.353 170.084 214.953C170.376 215.553 171.238 215.945 172.649 216.117C176.947 216.7 181.048 218.284 184.622 220.741C188.196 223.199 191.143 226.461 193.226 230.266C193.786 231.259 194.044 232.395 193.967 233.532C193.927 234.242 193.7 234.929 193.31 235.523C192.92 236.118 192.38 236.599 191.745 236.919L168.23 248.348C167.702 248.604 167.123 248.736 166.536 248.734M167.894 184.974C167.458 184.974 167.028 185.072 166.636 185.263L143.122 196.692C142.645 196.931 142.241 197.292 141.95 197.739C141.659 198.186 141.493 198.703 141.468 199.235C141.406 200.176 141.62 201.114 142.084 201.935C144.089 205.6 146.926 208.744 150.367 211.113C153.808 213.481 157.757 215.009 161.897 215.573C163.697 215.793 164.797 216.359 165.252 217.302C165.707 218.245 165.478 219.457 164.54 221.008C162.425 224.611 161.187 228.661 160.923 232.83C160.659 236.999 161.378 241.172 163.022 245.013C163.382 245.885 163.988 246.633 164.766 247.165C165.2 247.474 165.708 247.662 166.238 247.709C166.769 247.757 167.302 247.662 167.784 247.435L191.3 236.005C191.777 235.767 192.181 235.405 192.472 234.959C192.762 234.512 192.929 233.996 192.954 233.463C193.016 232.523 192.803 231.584 192.34 230.763C190.335 227.097 187.498 223.954 184.056 221.585C180.615 219.216 176.665 217.689 172.525 217.125C170.725 216.905 169.625 216.339 169.17 215.396C168.715 214.453 168.945 213.241 169.883 211.69C171.997 208.087 173.236 204.038 173.5 199.868C173.764 195.699 173.045 191.526 171.401 187.685C171.041 186.814 170.435 186.067 169.657 185.535C169.139 185.176 168.524 184.981 167.894 184.976" fill="black"/>
<path d="M165.116 204.203C161.148 205.432 157.102 206.374 153.252 207.95C156.128 209.975 159.453 211.27 162.941 211.722C163.737 211.819 164.516 212.023 165.257 212.33C165.473 211.557 165.794 210.817 166.21 210.13C167.523 207.94 168.428 205.53 168.884 203.018C167.629 203.418 166.372 203.813 165.114 204.203" fill="#0086D5"/>
<path d="M165.258 212.837C165.189 212.838 165.121 212.824 165.058 212.798C164.36 212.509 163.625 212.316 162.875 212.225C159.306 211.76 155.903 210.436 152.958 208.367C152.883 208.315 152.823 208.243 152.785 208.16C152.748 208.076 152.733 207.984 152.743 207.893C152.754 207.802 152.788 207.716 152.844 207.643C152.899 207.57 152.973 207.513 153.058 207.479C155.745 206.437 158.487 205.543 161.272 204.801C162.485 204.455 163.74 204.096 164.964 203.717C166.22 203.328 167.475 202.933 168.73 202.533C168.813 202.507 168.902 202.502 168.988 202.52C169.074 202.538 169.154 202.578 169.219 202.636C169.285 202.694 169.335 202.768 169.363 202.851C169.392 202.934 169.399 203.023 169.383 203.109C168.917 205.683 167.988 208.151 166.642 210.393C166.249 211.04 165.947 211.737 165.742 212.465C165.712 212.572 165.649 212.666 165.56 212.733C165.472 212.8 165.365 212.837 165.254 212.837M154.343 208.064C156.961 209.74 159.918 210.816 163.002 211.214C163.659 211.295 164.307 211.444 164.933 211.66C165.15 211.034 165.432 210.433 165.775 209.866C166.912 207.976 167.736 205.914 168.214 203.76C167.233 204.072 166.25 204.38 165.266 204.685C164.031 205.067 162.771 205.427 161.553 205.775C159.164 206.456 156.705 207.159 154.343 208.061" fill="black"/>
<path d="M172.602 223.281C171.807 223.184 171.029 222.98 170.29 222.673C170.073 223.446 169.752 224.186 169.337 224.873C166.45 229.823 165.548 235.684 166.813 241.273L187.061 231.431C183.447 226.985 178.281 224.074 172.606 223.285" fill="#0086D5"/>
<path d="M166.808 241.778C166.731 241.778 166.654 241.76 166.585 241.726C166.516 241.692 166.455 241.643 166.408 241.583C166.36 241.522 166.327 241.451 166.311 241.376C165.034 235.66 165.958 229.673 168.899 224.608C169.291 223.962 169.594 223.265 169.799 222.537C169.818 222.468 169.852 222.404 169.898 222.349C169.944 222.294 170.001 222.249 170.066 222.218C170.13 222.186 170.201 222.169 170.272 222.167C170.344 222.165 170.416 222.178 170.482 222.205C171.181 222.494 171.915 222.686 172.666 222.778C178.465 223.595 183.743 226.568 187.448 231.103C187.497 231.162 187.532 231.232 187.551 231.307C187.569 231.381 187.57 231.459 187.554 231.535C187.538 231.61 187.505 231.68 187.457 231.741C187.41 231.802 187.349 231.851 187.28 231.884L167.03 241.728C166.961 241.762 166.885 241.78 166.808 241.78M170.608 223.341C170.392 223.967 170.109 224.569 169.766 225.135C167.065 229.783 166.145 235.253 167.175 240.528L186.24 231.261C182.729 227.193 177.861 224.537 172.54 223.788C171.882 223.708 171.235 223.559 170.609 223.342" fill="black"/>
<path d="M197.872 230.316L159.252 249.088L161.106 252.902L199.726 234.13L197.872 230.316Z" fill="white"/>
<path d="M161.106 253.41C161.049 253.41 160.993 253.401 160.94 253.382C160.813 253.338 160.708 253.245 160.649 253.124L158.795 249.31C158.766 249.25 158.749 249.185 158.745 249.119C158.741 249.052 158.75 248.985 158.772 248.922C158.794 248.859 158.828 248.801 158.872 248.752C158.916 248.702 158.97 248.661 159.03 248.632L197.649 229.86C197.709 229.831 197.774 229.814 197.84 229.81C197.907 229.805 197.974 229.815 198.037 229.836C198.1 229.858 198.158 229.892 198.207 229.936C198.257 229.981 198.298 230.034 198.327 230.094L200.182 233.907C200.241 234.028 200.249 234.168 200.205 234.295C200.161 234.422 200.068 234.527 199.947 234.586L161.327 253.358C161.258 253.392 161.183 253.41 161.106 253.41ZM159.93 249.322L161.34 252.222L199.047 233.895L197.637 230.995L159.93 249.322Z" fill="black"/>
<path d="M173.316 179.797L134.696 198.569L136.55 202.383L175.17 183.611L173.316 179.797Z" fill="white"/>
<path d="M136.551 202.889C136.494 202.889 136.438 202.88 136.385 202.861C136.322 202.84 136.263 202.806 136.213 202.762C136.163 202.717 136.123 202.663 136.094 202.603L134.24 198.789C134.181 198.668 134.173 198.529 134.217 198.402C134.261 198.274 134.354 198.17 134.475 198.111L173.094 179.341C173.154 179.312 173.219 179.295 173.285 179.291C173.352 179.286 173.419 179.295 173.482 179.317C173.545 179.339 173.603 179.373 173.652 179.417C173.702 179.461 173.743 179.515 173.772 179.575L175.626 183.389C175.656 183.449 175.673 183.514 175.677 183.581C175.681 183.647 175.672 183.714 175.65 183.777C175.606 183.904 175.513 184.009 175.392 184.068L136.772 202.839C136.703 202.873 136.628 202.889 136.551 202.889ZM135.375 198.803L136.785 201.703L174.489 183.376L173.079 180.476L135.375 198.803Z" fill="black"/>
</g>
<mask id="mask2_242_6" style="mask-type:luminance" maskUnits="userSpaceOnUse" x="504" y="136" width="73" height="67">
<path d="M576.665 136.803H504.755V202.798H576.665V136.803Z" fill="white"/>
</mask>
<g mask="url(#mask2_242_6)">
<path d="M520.355 183.061C520.355 183.061 508.965 180.495 506.234 179.548C505.023 182.917 504.871 185.285 506.171 188.037C507.221 190.257 508.985 191.356 511.477 191.975C518.652 193.76 520.359 183.065 520.359 183.065" fill="#0086D5"/>
<path d="M513.037 192.68C512.468 192.677 511.901 192.604 511.35 192.463C508.49 191.752 506.75 190.452 505.708 188.251C504.423 185.532 504.436 183.044 505.755 179.376C505.8 179.25 505.893 179.147 506.014 179.089C506.134 179.032 506.273 179.024 506.399 179.068C509.071 179.994 520.352 182.539 520.465 182.568C520.591 182.596 520.702 182.672 520.774 182.779C520.847 182.886 520.875 183.016 520.855 183.144C520.815 183.396 519.829 189.336 516.229 191.718C515.285 192.352 514.172 192.688 513.035 192.683M506.547 180.183C505.48 183.348 505.51 185.454 506.625 187.816C507.536 189.743 509.025 190.838 511.595 191.478C512.278 191.675 512.995 191.722 513.697 191.617C514.4 191.512 515.072 191.257 515.667 190.869C518.351 189.096 519.458 184.859 519.762 183.446C517.662 182.971 509.517 181.105 506.549 180.184" fill="black"/>
<path d="M565.033 191.972C563.843 195.863 561.217 199.155 557.688 201.181C555.094 202.655 552.737 202.52 548.998 201.59C537.222 198.661 519.036 193.858 510.465 191.725C513.98 192.41 517.806 193.049 520.248 183.46C524.727 165.895 531.892 137.311 531.892 137.311L576.156 148.319C576.156 148.319 566.107 188.442 565.033 191.972Z" fill="white"/>
<path d="M553.533 202.798C551.959 202.747 550.397 202.507 548.881 202.083C542.524 200.502 534.134 198.332 526.731 196.417C520.331 194.762 514.292 193.199 510.348 192.217C510.221 192.183 510.113 192.102 510.044 191.99C509.976 191.878 509.954 191.744 509.983 191.616C510.011 191.488 510.088 191.376 510.197 191.303C510.306 191.231 510.439 191.203 510.568 191.226C513.933 191.881 517.413 192.561 519.768 183.334C524.185 165.97 531.329 137.473 531.4 137.187C531.416 137.122 531.445 137.061 531.485 137.007C531.524 136.953 531.574 136.908 531.632 136.873C531.689 136.839 531.753 136.816 531.819 136.806C531.886 136.797 531.953 136.8 532.018 136.817L576.28 147.828C576.345 147.844 576.406 147.873 576.46 147.912C576.513 147.952 576.559 148.002 576.593 148.059C576.627 148.116 576.65 148.18 576.66 148.246C576.67 148.312 576.666 148.379 576.65 148.444C576.24 150.082 566.586 188.616 565.525 192.118C564.295 196.132 561.586 199.528 557.945 201.618C556.608 202.402 555.083 202.808 553.533 202.794M514.984 192.342C518.457 193.228 522.639 194.309 526.984 195.433C534.384 197.348 542.773 199.517 549.125 201.097C552.67 201.98 554.93 202.166 557.443 200.74C560.858 198.778 563.4 195.591 564.553 191.825C565.543 188.558 574.386 153.302 575.541 148.691L532.262 137.925C531.293 141.791 524.849 167.477 520.746 183.585C519.246 189.491 517.152 191.679 514.984 192.341" fill="black"/>
<path d="M546.331 149.802C546.317 149.802 546.304 149.8 546.29 149.797L537.762 147.676C537.719 147.665 537.681 147.637 537.658 147.599C537.635 147.56 537.629 147.514 537.64 147.47C537.651 147.427 537.678 147.39 537.717 147.367C537.755 147.344 537.802 147.337 537.845 147.348L546.373 149.469C546.413 149.479 546.448 149.503 546.472 149.537C546.495 149.571 546.505 149.613 546.5 149.654C546.495 149.695 546.475 149.732 546.444 149.76C546.413 149.787 546.372 149.802 546.331 149.802Z" fill="black"/>
<path d="M549.169 153.314C549.155 153.314 549.141 153.312 549.128 153.309L537.09 150.314C537.068 150.309 537.048 150.299 537.03 150.286C537.012 150.273 536.997 150.256 536.986 150.237C536.975 150.218 536.967 150.197 536.964 150.175C536.96 150.153 536.962 150.131 536.967 150.109C536.972 150.087 536.982 150.067 536.995 150.049C537.008 150.032 537.025 150.016 537.044 150.005C537.063 149.994 537.084 149.986 537.106 149.983C537.128 149.98 537.15 149.981 537.172 149.986L549.21 152.98C549.25 152.99 549.285 153.014 549.308 153.048C549.332 153.082 549.342 153.124 549.337 153.165C549.332 153.206 549.312 153.243 549.281 153.271C549.25 153.298 549.21 153.314 549.169 153.314Z" fill="black"/>
<path d="M563.752 169.352C563.738 169.352 563.725 169.35 563.711 169.347L541.125 163.733C541.084 163.72 541.05 163.691 541.029 163.654C541.009 163.616 541.003 163.572 541.013 163.53C541.024 163.489 541.049 163.453 541.085 163.429C541.121 163.406 541.165 163.397 541.207 163.404L563.794 169.022C563.834 169.032 563.869 169.056 563.893 169.09C563.916 169.124 563.926 169.166 563.921 169.207C563.916 169.248 563.896 169.285 563.865 169.313C563.834 169.34 563.794 169.355 563.753 169.355" fill="black"/>
<path d="M561.556 177.977C561.542 177.977 561.528 177.975 561.515 177.972L538.929 172.354C538.888 172.34 538.854 172.312 538.833 172.275C538.813 172.237 538.807 172.193 538.817 172.151C538.828 172.11 538.853 172.074 538.889 172.05C538.925 172.027 538.969 172.018 539.011 172.025L561.598 177.644C561.638 177.654 561.673 177.678 561.696 177.712C561.72 177.746 561.73 177.788 561.725 177.829C561.72 177.87 561.7 177.907 561.669 177.935C561.638 177.962 561.597 177.977 561.556 177.977Z" fill="black"/>
<path d="M559.359 186.601C559.345 186.601 559.332 186.599 559.318 186.596L536.732 180.978C536.709 180.974 536.687 180.965 536.667 180.952C536.648 180.94 536.631 180.923 536.618 180.903C536.606 180.884 536.597 180.862 536.593 180.839C536.589 180.816 536.59 180.792 536.596 180.769C536.602 180.747 536.612 180.725 536.626 180.707C536.64 180.688 536.658 180.673 536.679 180.662C536.699 180.65 536.722 180.643 536.745 180.641C536.768 180.639 536.792 180.642 536.814 180.649L559.401 186.271C559.441 186.281 559.476 186.305 559.5 186.339C559.523 186.373 559.533 186.415 559.528 186.456C559.523 186.497 559.503 186.534 559.472 186.562C559.441 186.589 559.401 186.604 559.36 186.604" fill="black"/>
<path d="M533.909 161.756C533.983 161.476 534.164 161.237 534.413 161.09C534.662 160.943 534.959 160.9 535.24 160.97C535.379 161.004 535.51 161.064 535.625 161.148C535.74 161.233 535.838 161.339 535.911 161.461C535.985 161.583 536.034 161.719 536.056 161.86C536.077 162.002 536.07 162.146 536.035 162.284C535.961 162.564 535.78 162.804 535.531 162.951C535.282 163.098 534.985 163.141 534.704 163.071C534.565 163.037 534.435 162.976 534.319 162.892C534.204 162.808 534.107 162.701 534.033 162.579C533.959 162.457 533.91 162.321 533.889 162.18C533.868 162.039 533.874 161.895 533.909 161.756Z" fill="black"/>
<path d="M534.971 163.615C534.84 163.615 534.709 163.599 534.582 163.568C534.377 163.517 534.184 163.427 534.014 163.301C533.844 163.175 533.701 163.017 533.592 162.836C533.485 162.657 533.414 162.459 533.384 162.253C533.355 162.047 533.366 161.838 533.418 161.636C533.498 161.33 533.667 161.054 533.903 160.843C534.139 160.632 534.432 160.496 534.745 160.451C535.058 160.406 535.378 160.454 535.664 160.59C535.95 160.726 536.189 160.943 536.352 161.214C536.459 161.392 536.53 161.59 536.56 161.796C536.59 162.002 536.579 162.212 536.527 162.414C536.438 162.759 536.237 163.064 535.955 163.281C535.673 163.498 535.327 163.616 534.971 163.615ZM534.971 161.448C534.841 161.447 534.715 161.489 534.611 161.568C534.508 161.647 534.434 161.758 534.401 161.884C534.383 161.956 534.379 162.031 534.39 162.105C534.401 162.178 534.427 162.249 534.465 162.313C534.505 162.379 534.557 162.437 534.619 162.483C534.681 162.529 534.752 162.562 534.827 162.58C534.977 162.619 535.137 162.597 535.271 162.519C535.405 162.44 535.503 162.312 535.543 162.162C535.561 162.09 535.565 162.015 535.554 161.941C535.544 161.868 535.518 161.797 535.48 161.733C535.44 161.667 535.388 161.609 535.325 161.563C535.263 161.517 535.192 161.484 535.117 161.466C535.069 161.454 535.02 161.448 534.971 161.448Z" fill="black"/>
<path d="M531.712 170.385C531.786 170.105 531.967 169.866 532.216 169.719C532.465 169.572 532.762 169.529 533.043 169.599C533.182 169.632 533.313 169.693 533.428 169.777C533.543 169.861 533.641 169.968 533.715 170.09C533.789 170.212 533.838 170.348 533.859 170.489C533.88 170.63 533.873 170.774 533.838 170.913C533.764 171.193 533.583 171.432 533.335 171.579C533.086 171.727 532.789 171.77 532.508 171.7C532.369 171.667 532.238 171.606 532.122 171.522C532.006 171.438 531.908 171.332 531.834 171.209C531.759 171.087 531.71 170.951 531.688 170.81C531.667 170.668 531.674 170.524 531.708 170.385" fill="black"/>
<path d="M532.78 172.239C532.649 172.239 532.518 172.223 532.391 172.192C532.186 172.141 531.993 172.051 531.823 171.925C531.653 171.799 531.509 171.641 531.401 171.46C531.294 171.281 531.223 171.083 531.193 170.877C531.163 170.671 531.175 170.462 531.227 170.26C531.307 169.954 531.476 169.678 531.712 169.467C531.948 169.256 532.241 169.12 532.554 169.075C532.867 169.03 533.187 169.078 533.473 169.214C533.758 169.35 533.998 169.567 534.161 169.838C534.268 170.016 534.339 170.214 534.369 170.42C534.399 170.626 534.388 170.836 534.336 171.038C534.247 171.383 534.046 171.688 533.764 171.905C533.482 172.122 533.136 172.24 532.78 172.239ZM532.78 170.072C532.65 170.071 532.523 170.113 532.42 170.192C532.317 170.271 532.243 170.382 532.21 170.508C532.192 170.58 532.188 170.655 532.199 170.729C532.21 170.802 532.236 170.873 532.274 170.937C532.313 171.003 532.366 171.061 532.428 171.107C532.49 171.153 532.561 171.186 532.636 171.204C532.786 171.243 532.946 171.221 533.08 171.143C533.214 171.064 533.312 170.936 533.352 170.786C533.37 170.714 533.374 170.639 533.363 170.565C533.353 170.492 533.327 170.421 533.289 170.357C533.236 170.27 533.161 170.197 533.072 170.148C532.983 170.098 532.882 170.072 532.78 170.072Z" fill="black"/>
<path d="M529.548 178.885C529.622 178.605 529.803 178.366 530.052 178.219C530.301 178.072 530.598 178.029 530.879 178.099C531.018 178.132 531.149 178.193 531.264 178.277C531.379 178.361 531.477 178.468 531.551 178.59C531.625 178.712 531.674 178.848 531.695 178.989C531.716 179.13 531.709 179.274 531.674 179.413C531.6 179.692 531.42 179.932 531.171 180.079C530.922 180.226 530.625 180.27 530.345 180.2C530.206 180.167 530.074 180.106 529.959 180.022C529.843 179.938 529.745 179.832 529.671 179.709C529.596 179.587 529.547 179.451 529.525 179.31C529.504 179.168 529.51 179.024 529.545 178.885" fill="black"/>
<path d="M530.612 180.739C530.481 180.739 530.35 180.723 530.223 180.692C530.018 180.642 529.825 180.551 529.655 180.426C529.485 180.3 529.342 180.142 529.234 179.96C529.127 179.782 529.056 179.584 529.026 179.378C528.996 179.172 529.007 178.962 529.059 178.76C529.139 178.454 529.308 178.178 529.544 177.967C529.78 177.756 530.073 177.62 530.386 177.575C530.699 177.53 531.019 177.578 531.305 177.714C531.59 177.85 531.83 178.067 531.993 178.338C532.1 178.516 532.171 178.714 532.201 178.92C532.231 179.126 532.22 179.336 532.168 179.538C532.079 179.883 531.878 180.188 531.596 180.405C531.314 180.622 530.968 180.739 530.612 180.738M530.612 178.571C530.482 178.57 530.355 178.613 530.252 178.692C530.149 178.771 530.075 178.882 530.042 179.008C530.024 179.08 530.02 179.155 530.031 179.229C530.042 179.302 530.068 179.373 530.106 179.437C530.166 179.536 530.254 179.616 530.358 179.666C530.463 179.716 530.58 179.734 530.695 179.718C530.81 179.702 530.918 179.653 531.005 179.576C531.092 179.499 531.155 179.398 531.185 179.286C531.203 179.214 531.207 179.139 531.196 179.065C531.186 178.992 531.16 178.921 531.122 178.857C531.068 178.77 530.993 178.699 530.904 178.65C530.814 178.601 530.714 178.575 530.612 178.575" fill="black"/>
</g>
<mask id="mask3_242_6" style="mask-type:luminance" maskUnits="userSpaceOnUse" x="223" y="87" width="33" height="36">
<path d="M255.351 87.2229H223.992V122.098H255.351V87.2229Z" fill="white"/>
</mask>
<g mask="url(#mask3_242_6)">
<path d="M249.034 122.098C248.52 122.093 248.013 121.985 247.542 121.778C247.071 121.572 246.647 121.273 246.296 120.898L225.243 98.8429C224.824 98.4087 224.498 97.8945 224.283 97.3311C224.068 96.7676 223.969 96.1665 223.992 95.5639C224.013 95.0201 224.144 94.4864 224.379 93.9955C224.614 93.5046 224.947 93.0671 225.358 92.7099L230.554 88.1919C230.961 87.8406 231.435 87.575 231.947 87.4109C232.459 87.2468 232.998 87.1877 233.534 87.2369C234.127 87.292 234.702 87.4647 235.227 87.7449C235.752 88.0251 236.216 88.4072 236.592 88.8689L255.235 111.617C255.281 111.668 255.317 111.728 255.34 111.793C255.362 111.858 255.372 111.927 255.367 111.996C255.362 112.065 255.343 112.132 255.311 112.193C255.279 112.254 255.236 112.308 255.182 112.352C255.129 112.396 255.067 112.428 255.001 112.448C254.935 112.467 254.865 112.472 254.797 112.464C254.729 112.455 254.663 112.433 254.603 112.398C254.544 112.363 254.492 112.316 254.451 112.261L235.809 89.5119C235.519 89.155 235.161 88.8595 234.756 88.6426C234.35 88.4258 233.906 88.2919 233.448 88.2489C233.048 88.2103 232.644 88.2532 232.261 88.375C231.878 88.4969 231.524 88.6952 231.22 88.9579L226.02 93.4759C225.715 93.7441 225.468 94.0719 225.295 94.4391C225.121 94.8062 225.025 95.205 225.011 95.6109C224.993 96.0762 225.07 96.5402 225.236 96.9751C225.402 97.41 225.655 97.8069 225.978 98.1419L247.03 120.195C247.482 120.709 248.118 121.023 248.801 121.071C249.483 121.119 250.157 120.896 250.676 120.45L252.741 118.565C253.228 118.082 253.509 117.429 253.525 116.743C253.541 116.058 253.29 115.392 252.825 114.888L236.992 96.6719C236.503 96.0708 235.796 95.6876 235.025 95.6061C234.254 95.5245 233.483 95.7514 232.879 96.2369C232.601 96.4808 232.375 96.7791 232.217 97.1134C232.058 97.4478 231.97 97.8111 231.957 98.1809C231.942 98.6052 232.012 99.0281 232.164 99.4244C232.317 99.8207 232.547 100.182 232.843 100.487L247.001 115.273C247.052 115.32 247.094 115.377 247.122 115.44C247.151 115.504 247.166 115.573 247.167 115.642C247.168 115.712 247.154 115.781 247.127 115.845C247.1 115.91 247.06 115.968 247.01 116.016C246.959 116.064 246.899 116.101 246.834 116.125C246.769 116.149 246.699 116.16 246.629 116.156C246.56 116.152 246.492 116.133 246.43 116.102C246.367 116.07 246.312 116.027 246.268 115.973L232.104 101.19C231.714 100.785 231.41 100.306 231.21 99.7813C231.01 99.2563 230.917 98.6963 230.939 98.1349C230.957 97.6278 231.079 97.1298 231.298 96.6718C231.516 96.2138 231.826 95.8054 232.209 95.4719C233.016 94.8093 234.053 94.4935 235.092 94.5938C236.132 94.694 237.089 95.2022 237.755 96.0069L253.592 114.223C254.229 114.928 254.568 115.853 254.537 116.803C254.506 117.754 254.108 118.655 253.426 119.317L251.359 121.202C250.724 121.783 249.894 122.105 249.033 122.102" fill="black"/>
</g>
<mask id="mask4_242_6" style="mask-type:luminance" maskUnits="userSpaceOnUse" x="291" y="0" width="36" height="63">
<path d="M326.367 0H291.372V62.617H326.367V0Z" fill="white"/>
</mask>
<g mask="url(#mask4_242_6)">
<mask id="mask5_242_6" style="mask-type:luminance" maskUnits="userSpaceOnUse" x="291" y="0" width="36" height="63">
<path d="M326.367 0H291.372V62.617H326.367V0Z" fill="white"/>
</mask>
<g mask="url(#mask5_242_6)">
<g style="mix-blend-mode:multiply">
<path d="M308.324 52.769C308.324 52.769 303.032 58.061 307.362 60.469C311.692 62.877 319.389 56.62 316.021 53.734C312.653 50.848 308.321 52.772 308.321 52.772" fill="#0086D5"/>
<path d="M308.324 52.769C308.324 52.769 303.032 58.061 307.362 60.469C311.692 62.877 319.389 56.62 316.021 53.734C312.653 50.848 308.324 52.769 308.324 52.769Z" stroke="#0086D5" stroke-width="0.874" stroke-miterlimit="10"/>
</g>
<g style="mix-blend-mode:multiply">
<mask id="mask6_242_6" style="mask-type:luminance" maskUnits="userSpaceOnUse" x="291" y="0" width="35" height="48">
<path d="M325.998 0H291.372V47.984H325.998V0Z" fill="white"/>
</mask>
<g mask="url(#mask6_242_6)">
<path d="M294.072 13.51C293.839 12.135 292.889 11.027 293.307 9.59298C293.804 8.29954 294.501 7.09215 295.372 6.01498C296.148 5.14159 297.097 4.43819 298.158 3.94898C299.197 3.2389 300.326 2.6715 301.515 2.26198C304.688 1.46348 307.975 1.22089 311.231 1.54498C312.892 1.66098 313.905 2.51198 315.252 3.25598C316.493 3.77952 317.673 4.43673 318.772 5.21598C320.807 7.07547 322.433 9.33854 323.545 11.861C324.564 14.254 324.63 16.9456 323.731 19.386C323.344 20.5419 322.798 21.6384 322.109 22.644C321.773 23.1343 321.363 23.5703 320.895 23.937C320.267 24.2946 319.621 24.6194 318.96 24.91C317.925 25.5856 316.973 26.3811 316.125 27.28C315.309 28.0934 314.674 29.0705 314.263 30.147C313.339 32.484 313.363 35.047 313.246 37.488C313.163 39.161 313.076 40.833 312.996 42.506C312.933 43.833 313.256 45.273 312.749 46.549L313.333 46.033C312.263 46.1669 311.178 46.1389 310.116 45.95C309.209 45.8841 308.3 45.8651 307.391 45.893C306.934 45.9086 306.476 45.8872 306.022 45.829C305.499 45.745 305.488 45.597 305.533 45.148C305.64 44.075 305.133 43.099 305.133 42.034C305.133 40.772 305.38 39.52 305.339 38.257C305.16 37.0756 305.044 35.8856 304.991 34.692C305.079 34.1635 305.113 33.6273 305.091 33.092C305.015 32.492 304.733 31.929 304.666 31.327C304.548 30.257 305.16 29.608 306.019 28.944C306.819 28.324 307.619 27.705 308.419 27.078C309.311 26.378 310.338 25.818 311.234 25.118C312.95 23.6932 314.055 21.6646 314.32 19.45C314.46 18.309 314.43 17.15 314.507 16C314.657 14.9118 314.526 13.8033 314.127 12.78C313.427 11.31 311.778 10.561 310.101 10.219C309.068 10.0243 308.022 9.90172 306.972 9.85198C305.862 9.72376 304.741 9.72376 303.631 9.85198C302.505 10.0709 301.487 10.6653 300.743 11.538C300.364 11.9411 300.097 12.4361 299.968 12.974C299.839 13.609 300.068 14.257 299.822 14.874L300.627 14.332C299.794 14.38 298.99 14.259 298.152 14.365C297.349 14.4793 296.539 14.5491 295.728 14.574C295.129 14.6435 294.524 14.6321 293.928 14.54C293.294 14.361 293.186 13.583 293.101 13.071C292.604 10.1 294.802 7.39998 297.272 5.63798C297.863 5.21698 298.48 4.82198 299.057 4.38598C299.665 3.92798 300.147 3.35498 300.757 2.89898C301.991 1.97398 303.9 1.83898 305.457 1.74398C307.043 1.64611 308.634 1.77882 310.182 2.13798C311.729 2.55157 313.24 3.08931 314.701 3.74598C315.401 4.02898 316.155 4.18098 316.848 4.46898C317.538 4.8044 318.17 5.24687 318.722 5.77998C319.949 6.61938 321.067 7.60907 322.048 8.72598C323.682 11.2706 324.455 14.2728 324.253 17.29C324.183 18.735 324.453 20.275 323.282 21.413C322.246 22.453 321.132 23.4122 319.95 24.282C318.64 25.215 317.237 26.021 315.869 26.882C315.219 27.292 314.614 27.736 313.918 28.082C313.266 28.364 312.66 28.7411 312.118 29.201C311.248 30.1439 310.71 31.3457 310.586 32.623C310.37 33.9961 310.285 35.3867 310.333 36.776C310.388 38.481 310.915 40.115 311.017 41.807C311.038 43.6306 310.954 45.4539 310.767 47.268H312.438C312.589 44.2246 312.741 41.1813 312.892 38.138C312.962 36.738 313.085 35.325 313.102 33.921C313.11 33.241 312.736 32.052 313.202 31.469L312.259 31.808C312.802 31.9477 313.375 31.9133 313.897 31.7096C314.419 31.5059 314.863 31.1433 315.168 30.673C315.596 29.812 314.157 29.059 313.725 29.928C313.631 30.1082 313.479 30.2513 313.294 30.3341C313.108 30.4169 312.9 30.4345 312.703 30.384C312.53 30.3446 312.349 30.3555 312.182 30.4156C312.015 30.4757 311.868 30.5823 311.76 30.723C311.16 31.469 311.378 32.588 311.421 33.438C311.489 34.798 311.321 36.188 311.252 37.547C311.091 40.7863 310.93 44.026 310.769 47.266C310.722 48.217 312.388 48.213 312.44 47.266C312.534 45.538 312.774 43.809 312.703 42.076C312.634 40.376 312.096 38.742 312.017 37.042C311.939 35.631 312.011 34.2158 312.231 32.82C312.268 32.1733 312.465 31.546 312.804 30.9939C313.142 30.4418 313.612 29.9821 314.172 29.656C315.711 28.842 317.16 27.908 318.629 26.995C320.121 26.1085 321.535 25.0972 322.856 23.972C323.866 23.072 325.211 22.046 325.646 20.8C325.828 20.069 325.904 19.3155 325.87 18.563C325.908 17.675 325.985 16.781 325.955 15.892C325.887 14.286 325.569 12.7005 325.014 11.192C324.555 9.6682 323.773 8.26147 322.72 7.06798C322.155 6.52248 321.553 6.01535 320.92 5.54998C320.252 5.02998 319.639 4.44998 318.958 3.94998C318.351 3.5023 317.676 3.15551 316.958 2.92298C316.038 2.61398 315.166 2.28798 314.275 1.91698C311.105 0.540136 307.632 0.012488 304.196 0.385976C302.592 0.442088 301.031 0.92239 299.672 1.77798C299.027 2.25798 298.512 2.85698 297.872 3.34198C297.189 3.85898 296.453 4.32098 295.761 4.82898C292.843 6.97298 290.698 10.421 291.572 13.848C291.702 14.5558 292.095 15.1883 292.672 15.619C293.288 15.9556 293.988 16.1086 294.688 16.06C295.566 16.0857 296.445 16.0522 297.319 15.96C297.819 15.899 298.31 15.796 298.811 15.76C299.421 15.72 300.02 15.832 300.63 15.797C300.803 15.7978 300.972 15.7465 301.116 15.6498C301.26 15.5532 301.371 15.4156 301.435 15.255C301.59 14.6902 301.642 14.1022 301.589 13.519C301.624 13.2146 301.724 12.9213 301.882 12.6591C302.04 12.3969 302.254 12.1721 302.507 12C302.987 11.6621 303.53 11.4231 304.103 11.2969C304.677 11.1707 305.269 11.1599 305.847 11.265C307.747 11.365 310.147 11.34 311.747 12.4C312.151 12.7025 312.469 13.1064 312.667 13.5708C312.866 14.0352 312.938 14.5437 312.877 15.045C312.877 16.369 312.797 17.734 312.689 19.055C312.543 20.349 312.092 21.5898 311.372 22.675C310.575 23.6995 309.578 24.5517 308.442 25.18C307.43 25.855 306.555 26.651 305.577 27.359C304.666 27.9072 303.892 28.6563 303.315 29.549C302.71 30.719 303.13 31.858 303.4 33.04C303.453 33.633 303.425 34.2304 303.317 34.816C303.341 35.5271 303.423 36.2352 303.562 36.933C303.683 38.3059 303.665 39.6874 303.511 41.057C303.447 41.667 303.454 42.2824 303.53 42.891C303.714 43.5113 303.841 44.1473 303.908 44.791C303.88 45.752 303.802 46.606 304.958 47.08C305.961 47.374 307.011 47.4688 308.05 47.359C309.158 47.3655 310.265 47.4279 311.367 47.546C312.335 47.622 313.984 47.835 314.402 46.846C314.717 45.7697 314.803 44.6394 314.654 43.528C314.622 42.186 314.754 40.835 314.821 39.494C314.823 37.1177 314.998 34.7447 315.346 32.394C315.531 31.3265 315.913 30.3027 316.472 29.375C317.173 28.4166 318.007 27.5627 318.949 26.839C319.909 26.01 321.192 25.704 322.17 24.913C323.043 24.1656 323.76 23.2536 324.28 22.229C325.477 20.1353 326.066 17.7491 325.98 15.339C325.797 12.8684 324.96 10.4909 323.556 8.44998C322.797 7.34373 321.958 6.29368 321.048 5.30798C320.231 4.336 319.228 3.53733 318.097 2.95898C316.886 2.34698 315.737 1.73398 314.577 1.04798C313.378 0.378579 312.026 0.0319359 310.653 0.0419762C307.527 -0.169205 304.387 0.0743324 301.331 0.764976C300.138 1.10783 299 1.61861 297.951 2.28198C296.979 2.86998 295.921 3.41698 295.021 4.08898C294.153 4.86247 293.419 5.7749 292.849 6.78898C292.106 7.81529 291.641 9.01664 291.5 10.276C291.421 11.569 292.252 12.658 292.463 13.903C292.622 14.839 294.232 14.441 294.074 13.51" fill="black"/>
</g>
</g>
<g style="mix-blend-mode:multiply">
<mask id="mask7_242_6" style="mask-type:luminance" maskUnits="userSpaceOnUse" x="292" y="9" width="23" height="39">
<path d="M314.389 9.802H292.468V47.985H314.389V9.802Z" fill="white"/>
</mask>
<g mask="url(#mask7_242_6)">
<path d="M293.028 14.784C294.238 15.1765 295.474 15.4799 296.728 15.692C297.826 16.0004 298.962 16.1509 300.103 16.139C300.276 16.1379 300.444 16.0859 300.587 15.9895C300.731 15.8931 300.842 15.7565 300.908 15.597C301.298 14.722 301.099 13.725 301.657 12.908C302.134 12.1957 302.863 11.6899 303.697 11.492C304.875 11.2663 306.078 11.2074 307.272 11.317C308.214 11.2617 309.157 11.3849 310.053 11.68C310.85 11.9649 311.532 12.5021 311.995 13.21C312.285 14.0837 312.461 14.9912 312.519 15.91C312.94 17.8366 312.632 19.8509 311.653 21.563C310.401 23.3912 308.818 24.9682 306.984 26.212C305.474 27.397 303.775 28.165 303.513 30.102C303.376 31.12 303.495 32.145 303.46 33.166C303.42 34.323 303.345 35.48 303.287 36.637C303.175 38.894 302.787 41.143 302.738 43.399C302.707 44.846 302.686 47.118 304.527 47.767C306.616 48.504 308.785 47.109 310.9 47.4C311.952 47.544 312.405 46.122 311.344 45.977C310.311 45.8705 309.268 45.9282 308.253 46.148C307.316 46.4199 306.338 46.5249 305.365 46.458C304.65 46.317 304.57 45.632 304.489 45.08C304.361 43.9411 304.374 42.7908 304.526 41.655C304.762 39.305 304.94 36.971 305.058 34.613C305.114 33.488 305.115 32.375 305.116 31.25C305.048 30.7438 305.121 30.2286 305.328 29.7614C305.534 29.2941 305.865 28.8929 306.285 28.602C309.775 26.084 313.634 23.36 314.297 19.145C314.428 18.1396 314.404 17.1201 314.226 16.122C314.118 15.1685 313.961 14.2213 313.755 13.284C313.451 12.483 312.95 11.771 312.3 11.2131C311.65 10.6551 310.87 10.269 310.032 10.09C308.769 9.84588 307.483 9.75057 306.198 9.806C304.921 9.73296 303.643 9.91308 302.436 10.336C301.602 10.6913 300.88 11.2648 300.345 11.996C299.561 13.006 299.78 14.123 299.297 15.207L300.102 14.665C299.01 14.6634 297.923 14.5127 296.871 14.217C295.717 14.0207 294.58 13.7348 293.471 13.362C293.376 13.3251 293.274 13.3081 293.171 13.3122C293.069 13.3163 292.969 13.3414 292.877 13.3858C292.785 13.4303 292.703 13.4932 292.636 13.5706C292.569 13.6481 292.519 13.7385 292.488 13.8361C292.458 13.9338 292.448 14.0367 292.459 14.1384C292.47 14.2401 292.501 14.3385 292.552 14.4275C292.602 14.5164 292.671 14.5941 292.752 14.6556C292.834 14.7171 292.928 14.7611 293.027 14.785" fill="black"/>
</g>
</g>
<g style="mix-blend-mode:multiply">
<mask id="mask8_242_6" style="mask-type:luminance" maskUnits="userSpaceOnUse" x="301" y="50" width="15" height="13">
<path d="M315.506 50.379H301.332V62.617H315.506V50.379Z" fill="white"/>
</mask>
<g mask="url(#mask8_242_6)">
<path d="M311.904 50.415C309.866 50.35 307.597 50.255 305.837 51.346C304.262 52.322 304.217 53.836 303.737 55.328C303.237 56.896 301.843 58.439 303.269 59.98C304.596 61.2966 306.388 62.0377 308.257 62.043C309.271 61.9591 310.26 61.6879 311.175 61.243C312.046 60.9142 312.89 60.517 313.699 60.055C314.303 59.6266 314.786 59.0496 315.101 58.3799C315.416 57.7101 315.553 56.9703 315.499 56.232C315.506 55.318 315.289 54.4162 314.865 53.6061C314.442 52.7961 313.826 52.1026 313.071 51.587C312.343 51.0844 311.489 50.7964 310.606 50.756C309.691 50.6711 308.772 50.6551 307.855 50.708C307.056 50.742 306.276 50.9559 305.571 51.3337C304.867 51.7115 304.257 52.2435 303.787 52.89C302.864 54.226 302.859 55.754 302.692 57.262C302.531 58.1 302.651 58.9678 303.035 59.73C303.575 60.4989 304.336 61.0857 305.217 61.413C306.167 61.7793 307.171 61.9874 308.188 62.029C309.254 62.217 310.352 62.0966 311.352 61.682C312.049 61.2179 312.606 60.5724 312.963 59.815C313.44 59.2084 313.948 58.6269 314.485 58.073C314.889 57.3946 315.097 56.6174 315.085 55.828C315.145 55.415 315.121 54.9941 315.014 54.5907C314.907 54.1872 314.72 53.8094 314.464 53.48C313.871 52.7591 313.089 52.2173 312.206 51.915C311.334 51.657 310.433 51.5121 309.525 51.484C307.599 51.309 305.795 51.331 304.207 52.442C303.051 53.3891 302.213 54.6684 301.807 56.107C301.425 56.7358 301.282 57.4817 301.407 58.207C301.758 59.1449 302.349 59.9745 303.121 60.613C304.609 61.7514 306.422 62.3855 308.295 62.423C309.277 62.494 310.262 62.545 311.245 62.607C311.694 62.676 312.152 62.6457 312.588 62.5183C313.024 62.391 313.427 62.1695 313.768 61.8697C314.109 61.5698 314.38 61.1988 314.562 60.7828C314.744 60.3669 314.833 59.916 314.822 59.462C314.74 58.521 313.069 58.513 313.151 59.462C313.165 59.769 313.099 60.0744 312.958 60.3479C312.818 60.6213 312.609 60.8534 312.351 61.021C311.657 61.2023 310.929 61.2109 310.231 61.046C308.771 61.0728 307.314 60.8875 305.907 60.496C305.201 60.2404 304.559 59.8375 304.021 59.314C303.76 59.0375 303.53 58.733 303.335 58.406C303.156 58.191 303.032 57.9361 302.973 57.663C303.023 57.4046 303.116 57.1567 303.25 56.93C303.37 56.637 303.478 56.341 303.595 56.047C303.789 55.5222 304.038 55.0194 304.338 54.547C304.677 54.051 305.126 53.6408 305.651 53.349C306.176 53.0572 306.762 52.8918 307.362 52.866C308.144 52.8526 308.925 52.891 309.702 52.981C310.368 52.9998 311.028 53.1098 311.664 53.308C312.315 53.5376 312.873 53.9747 313.252 54.552C313.488 55.1273 313.523 55.7652 313.352 56.363C313.337 56.6075 313.274 56.8468 313.167 57.0669C313.06 57.2871 312.91 57.4839 312.726 57.646C312.225 58.1011 311.793 58.6262 311.442 59.205C311.149 59.7 310.87 60.318 310.236 60.531C309.405 60.688 308.552 60.6846 307.722 60.521C306.461 60.387 304.56 59.846 304.332 58.552C304.276 57.8874 304.313 57.2181 304.444 56.564C304.47 56.0037 304.54 55.4463 304.654 54.897C304.78 54.3675 305.025 53.8739 305.372 53.4545C305.719 53.035 306.157 52.7009 306.654 52.478C307.225 52.2529 307.836 52.1506 308.449 52.178C309.183 52.191 309.949 52.166 310.68 52.248C311.335 52.3689 311.948 52.6582 312.457 53.0874C312.967 53.5166 313.356 54.0709 313.587 54.696C313.794 55.2406 313.89 55.8211 313.87 56.4034C313.85 56.9857 313.713 57.5581 313.469 58.087C313.183 58.5582 312.753 58.9247 312.243 59.132C311.532 59.467 310.796 59.785 310.069 60.09C309.381 60.414 308.629 60.58 307.869 60.576C307.176 60.5066 306.504 60.2959 305.896 59.957C305.326 59.7249 304.821 59.3569 304.426 58.885C304.09 58.368 304.442 57.685 304.678 57.185C305.005 56.5855 305.268 55.9529 305.462 55.298C305.571 54.7254 305.72 54.1613 305.909 53.61C306.4 52.373 307.972 51.957 309.329 51.869C310.186 51.814 311.049 51.863 311.906 51.891C312.008 51.9002 312.112 51.888 312.209 51.8552C312.307 51.8223 312.396 51.7694 312.472 51.7C312.548 51.6306 312.609 51.5461 312.651 51.4519C312.692 51.3577 312.714 51.2559 312.714 51.153C312.714 51.0501 312.692 50.9483 312.651 50.8541C312.609 50.7599 312.548 50.6754 312.472 50.606C312.396 50.5366 312.307 50.4837 312.209 50.4508C312.112 50.418 312.008 50.4057 311.906 50.415" fill="black"/>
</g>
</g>
</g>
</g>
</svg>
