<svg width="563" height="434" viewBox="0 0 563 434" fill="none" xmlns="http://www.w3.org/2000/svg">
<path d="M318.835 93.5606H65.8933L65.8976 93.5341L71.4074 59.1208H323.412V59.1457L318.835 93.5606ZM65.9455 93.5144H318.799L323.364 59.1662H71.4468L65.9455 93.5144Z" fill="#263238"/>
<mask id="mask0_0_66" style="mask-type:luminance" maskUnits="userSpaceOnUse" x="49" y="7" width="282" height="187">
<path d="M330.421 7.76904H49.7102V193.658H330.421V7.76904Z" fill="white"/>
</mask>
<g mask="url(#mask0_0_66)">
<path d="M79.6204 7.97606L330.184 7.76904H330.42L330.389 8.00343C323.003 63.652 314.626 126.757 305.779 193.406L305.751 193.605H302.677L49.9309 193.563H49.7102L49.7444 193.346C67.836 81.096 79.3741 9.50985 79.6204 7.97606C79.3758 9.509 67.9865 81.1157 50.1157 193.405L49.9309 193.187L302.677 193.146H305.55L305.323 193.345C314.187 126.698 322.578 63.5964 329.98 7.94868L330.184 8.18307L79.6204 7.97606Z" fill="#263238"/>
<path d="M323.387 59.1423C323.387 59.2689 266.979 59.3716 197.414 59.3716C127.823 59.3716 71.428 59.2689 71.428 59.1423C71.428 59.0157 127.822 58.9131 197.414 58.9131C266.979 58.9131 323.387 59.0157 323.387 59.1423Z" fill="#263238"/>
<path d="M318.817 93.5357C318.817 93.6623 262.091 93.7649 192.133 93.7649C122.151 93.7649 65.4382 93.6623 65.4382 93.5357C65.4382 93.409 122.154 93.3064 192.133 93.3064C262.091 93.3064 318.817 93.409 318.817 93.5357Z" fill="#263238"/>
<path d="M313.671 125.179C313.671 125.306 256.945 125.408 186.987 125.408C117.006 125.408 60.291 125.306 60.291 125.179C60.291 125.053 117.006 124.95 186.986 124.95C256.944 124.95 313.67 125.053 313.67 125.179" fill="#263238"/>
<path d="M308.528 156.822C308.528 156.948 251.802 157.051 181.844 157.051C111.862 157.051 55.149 156.948 55.149 156.822C55.149 156.695 111.864 156.592 181.844 156.592C251.802 156.592 308.528 156.695 308.528 156.822Z" fill="#263238"/>
<path d="M85.5435 193.657C85.4186 193.638 90.0499 163.507 95.8882 126.367C101.727 89.2277 106.562 59.1224 106.686 59.1421C106.811 59.1618 102.181 89.2833 96.3408 126.438C90.5007 163.593 85.6684 193.675 85.5435 193.657Z" fill="#263238"/>
<path d="M124.537 193.657C124.412 193.638 129.043 163.507 134.882 126.367C140.72 89.2277 145.555 59.1224 145.68 59.1421C145.805 59.1618 141.174 89.2833 135.334 126.438C129.494 163.593 124.662 193.675 124.537 193.657Z" fill="#263238"/>
<path d="M160.768 192.311C160.643 192.291 165.226 162.462 171.007 125.694C176.788 88.9105 181.574 59.1225 181.699 59.1414C181.825 59.1602 177.242 88.9841 171.46 125.765C165.681 162.533 160.894 192.33 160.767 192.31" fill="#263238"/>
<path d="M196.622 193.376C196.497 193.356 201.119 163.289 206.944 126.225C212.77 89.1603 217.595 59.12 217.723 59.1397C217.85 59.1593 213.226 89.221 207.399 126.296C201.574 163.357 196.749 193.392 196.621 193.374" fill="#263238"/>
<path d="M232.641 193.376C232.517 193.356 237.139 163.289 242.964 126.225C248.789 89.1603 253.615 59.12 253.742 59.1397C253.87 59.1593 249.245 89.2236 243.417 126.298C237.592 163.36 232.767 193.395 232.639 193.376" fill="#263238"/>
<path d="M268.632 193.572C268.507 193.552 273.136 163.441 278.969 126.325C284.805 89.1986 289.637 59.1224 289.761 59.1421C289.886 59.1618 285.259 89.2671 279.423 126.396C273.589 163.513 268.757 193.592 268.632 193.572Z" fill="#263238"/>
<path d="M237.331 128.868C237.407 128.97 230.716 134.091 222.389 140.307C214.062 146.522 207.248 151.479 207.172 151.378C207.096 151.276 213.784 146.159 222.114 139.938C230.445 133.716 237.256 128.767 237.331 128.868Z" fill="#263238"/>
<path d="M239.928 150.564C239.86 150.671 232.758 146.266 224.067 140.727C215.375 135.188 208.381 130.606 208.45 130.5C208.518 130.394 215.619 134.798 224.314 140.337C233.008 145.876 239.996 150.457 239.928 150.563" fill="#263238"/>
<path d="M170.32 98.0071C170.397 98.1089 163.705 103.23 155.379 109.446C147.052 115.662 140.237 120.619 140.161 120.517C140.085 120.415 146.774 115.299 155.104 109.077C163.434 102.856 170.245 97.9062 170.32 98.0071Z" fill="#263238"/>
<path d="M172.918 119.704C172.85 119.81 165.747 115.405 157.056 109.866C148.365 104.327 141.371 99.7454 141.439 99.6393C141.508 99.5333 148.609 103.938 157.303 109.477C165.998 115.016 172.986 119.597 172.918 119.703" fill="#263238"/>
<path d="M121.936 160.61C122.012 160.711 115.321 165.833 106.994 172.049C98.6676 178.264 91.8532 183.221 91.777 183.12C91.7009 183.018 98.3895 177.901 106.72 171.68C115.05 165.458 121.861 160.509 121.936 160.61Z" fill="#263238"/>
<path d="M124.533 182.306C124.466 182.413 117.363 178.007 108.672 172.468C99.9806 166.929 92.9866 162.348 93.055 162.242C93.1235 162.136 100.224 166.54 108.919 172.079C117.614 177.618 124.602 182.199 124.533 182.305" fill="#263238"/>
</g>
<mask id="mask1_0_66" style="mask-type:luminance" maskUnits="userSpaceOnUse" x="69" y="97" width="26" height="25">
<path d="M94.3049 97.6272H69.99V121.182H94.3049V97.6272Z" fill="white"/>
</mask>
<g mask="url(#mask1_0_66)">
<path d="M93.3032 98.1543C93.3032 98.1543 95.576 112.215 93.2732 121.183L71.0516 120.704C71.0516 120.704 75.5982 106.386 72.7188 99.2296L93.3032 98.1543Z" fill="#EBEBEB"/>
<path d="M93.2167 97.6272C93.2167 97.6272 93.0662 115.309 92.168 120.703L69.99 119.655C69.99 119.655 71.9378 102.272 71.1876 97.6272H93.2167Z" fill="#0086D5"/>
<path d="M74.5315 105.058C74.5272 105.143 77.854 105.406 81.9627 105.656C86.0713 105.907 89.4049 106.038 89.4135 105.956C89.422 105.874 86.091 105.608 81.9806 105.357C77.8703 105.106 74.5383 104.976 74.5315 105.058Z" fill="white"/>
<path d="M74.5247 108.8C74.5204 108.886 77.8472 109.148 81.9558 109.399C86.0645 109.65 89.3981 109.78 89.4066 109.698C89.4152 109.616 86.0841 109.35 81.9738 109.099C77.8634 108.849 74.5315 108.718 74.5247 108.8Z" fill="white"/>
<path d="M78.2946 112.477C78.6978 112.585 79.1124 112.645 79.5298 112.656C80.2954 112.728 81.3544 112.809 82.5238 112.88C83.6932 112.951 84.7556 112.998 85.5238 113.017C85.9396 113.056 86.3586 113.046 86.7719 112.987C86.3688 112.878 85.9541 112.818 85.5367 112.808C84.7668 112.735 83.712 112.654 82.5426 112.584C81.3733 112.514 80.3117 112.466 79.5426 112.447C79.1269 112.407 78.7079 112.417 78.2946 112.477Z" fill="white"/>
</g>
<g opacity="0.1">
<mask id="mask2_0_66" style="mask-type:luminance" maskUnits="userSpaceOnUse" x="312" y="57" width="192" height="192">
<path d="M503.501 57.4055H312.464V248.443H503.501V57.4055Z" fill="white"/>
</mask>
<g mask="url(#mask2_0_66)">
<path d="M407.982 248.002C460.493 248.002 503.061 205.434 503.061 152.924C503.061 100.414 460.493 57.8459 407.982 57.8459C355.472 57.8459 312.904 100.414 312.904 152.924C312.904 205.434 355.472 248.002 407.982 248.002Z" stroke="black" stroke-miterlimit="10"/>
<path d="M407.982 232.018C452.083 232.018 487.834 196.268 487.834 152.167C487.834 108.066 452.083 72.3157 407.982 72.3157C363.882 72.3157 328.131 108.066 328.131 152.167C328.131 196.268 363.882 232.018 407.982 232.018Z" stroke="black" stroke-miterlimit="10"/>
<path d="M487.834 152.166C487.834 152.166 487.807 151.728 487.777 150.872C487.726 150.017 487.758 148.74 487.606 147.077C487.286 142.215 486.525 137.393 485.332 132.67C484.464 129.261 483.369 125.914 482.056 122.65C480.511 118.761 478.651 115.004 476.496 111.416C471.238 102.651 464.363 94.9642 456.236 88.765C446.365 81.2553 434.875 76.158 422.684 73.8804C412.353 71.9748 401.751 72.098 391.467 74.2431C387.855 75.0229 384.298 76.0377 380.818 77.2808C366.007 82.6823 353.127 92.3462 343.798 105.055C341.363 108.364 339.192 111.858 337.304 115.507C336.324 117.331 335.487 119.235 334.631 121.137C333.861 123.076 333.068 125.015 332.434 127.021C331.088 131.037 330.074 135.157 329.401 139.339C328.734 143.579 328.386 147.863 328.359 152.154C328.385 156.447 328.732 160.733 329.397 164.974C330.07 169.157 331.083 173.279 332.428 177.297C333.062 179.303 333.856 181.243 334.624 183.184C335.479 185.086 336.317 186.991 337.298 188.816C339.184 192.465 341.355 195.961 343.79 199.27C353.121 211.983 366.007 221.649 380.823 227.049C384.304 228.292 387.861 229.307 391.473 230.087C401.759 232.233 412.364 232.356 422.697 230.449C434.889 228.172 446.379 223.075 456.249 215.564C464.375 209.365 471.249 201.678 476.507 192.912C478.661 189.325 480.519 185.569 482.062 181.68C483.375 178.416 484.47 175.069 485.338 171.66C486.531 166.938 487.292 162.116 487.611 157.256C487.76 155.592 487.729 154.316 487.783 153.461C487.812 152.606 487.839 152.167 487.839 152.167C487.839 152.167 487.843 152.605 487.83 153.462C487.794 154.318 487.841 155.595 487.707 157.261C487.228 165.668 485.391 173.941 482.268 181.761C480.733 185.667 478.881 189.44 476.73 193.044C471.477 201.856 464.594 209.587 456.448 215.823C446.545 223.385 435.008 228.523 422.762 230.824C412.381 232.75 401.725 232.638 391.388 230.493C387.756 229.711 384.178 228.694 380.679 227.447C365.778 222.028 352.816 212.316 343.43 199.537C340.98 196.21 338.795 192.695 336.897 189.025C335.91 187.19 335.069 185.274 334.206 183.361C333.436 181.41 332.634 179.46 331.996 177.442C330.643 173.401 329.623 169.256 328.946 165.048C328.276 160.783 327.927 156.473 327.901 152.155C327.928 147.839 328.279 143.531 328.951 139.267C329.627 135.061 330.647 130.917 332 126.878C332.638 124.861 333.437 122.91 334.211 120.96C335.072 119.046 335.914 117.133 336.901 115.298C338.8 111.63 340.985 108.116 343.434 104.79C352.82 92.0137 365.781 82.3042 380.68 76.8864C384.179 75.639 387.756 74.6217 391.388 73.8411C401.724 71.6948 412.38 71.5818 422.759 73.5083C435.003 75.8094 446.537 80.9457 456.439 88.5058C464.585 94.7423 471.469 102.473 476.723 111.285C478.874 114.889 480.726 118.663 482.262 122.569C485.385 130.389 487.222 138.663 487.702 147.071C487.836 148.738 487.788 150.017 487.824 150.871C487.838 151.727 487.834 152.166 487.834 152.166Z" fill="black"/>
<path d="M476.12 149.268C473.586 149.374 471.522 149.277 471.51 149.053C471.498 148.829 473.544 148.532 476.076 148.388C478.608 148.244 480.67 148.34 480.683 148.603C480.697 148.867 478.652 149.163 476.12 149.268Z" fill="black"/>
<path d="M474.419 167.652C471.949 167.075 469.988 166.429 470.037 166.211C470.085 165.993 472.134 166.253 474.612 166.793C477.09 167.332 479.052 167.977 478.993 168.233C478.934 168.49 476.887 168.233 474.419 167.652Z" fill="black"/>
<path d="M467.825 184.897C465.601 183.674 463.89 182.525 463.993 182.331C464.096 182.136 466.002 182.936 468.244 184.127C470.485 185.318 472.199 186.464 472.075 186.693C471.951 186.923 470.047 186.122 467.825 184.897Z" fill="black"/>
<path d="M456.848 199.74C455.032 197.969 453.683 196.404 453.841 196.241C453.998 196.077 455.616 197.361 457.458 199.105C459.301 200.848 460.646 202.414 460.464 202.604C460.282 202.793 458.663 201.51 456.848 199.74Z" fill="black"/>
<path d="M442.306 211.116C441.03 208.924 440.153 207.054 440.345 206.94C440.538 206.826 441.755 208.494 443.065 210.667C444.374 212.84 445.25 214.708 445.024 214.842C444.799 214.977 443.581 213.308 442.306 211.116Z" fill="black"/>
<path d="M425.242 218.16C424.605 215.704 424.265 213.667 424.482 213.609C424.699 213.552 425.423 215.485 426.094 217.933C426.764 220.38 427.107 222.413 426.853 222.482C426.599 222.551 425.877 220.615 425.242 218.16Z" fill="black"/>
<path d="M406.909 220.36C406.949 217.823 407.166 215.77 407.388 215.771C407.61 215.773 407.793 217.83 407.791 220.367C407.789 222.903 407.574 224.956 407.312 224.954C407.049 224.953 406.869 222.894 406.909 220.36Z" fill="black"/>
<path d="M388.652 217.589C389.373 215.157 390.135 213.237 390.35 213.3C390.566 213.363 390.187 215.392 389.503 217.834C388.818 220.275 388.059 222.196 387.805 222.122C387.552 222.048 387.93 220.018 388.651 217.588" fill="black"/>
<path d="M371.828 209.999C373.177 207.851 374.426 206.205 374.616 206.32C374.806 206.436 373.894 208.288 372.579 210.459C371.263 212.63 370.012 214.273 369.792 214.137C369.571 214.002 370.48 212.147 371.828 210" fill="black"/>
<path d="M357.641 198.179C359.514 196.468 361.157 195.216 361.309 195.38C361.461 195.544 360.087 197.086 358.24 198.825C356.393 200.564 354.751 201.819 354.573 201.622C354.395 201.426 355.771 199.889 357.641 198.179Z" fill="black"/>
<path d="M347.132 182.997C349.395 181.852 351.313 181.085 351.415 181.286C351.517 181.487 349.781 182.603 347.536 183.782C345.29 184.962 343.373 185.728 343.253 185.493C343.134 185.258 344.87 184.142 347.132 182.998" fill="black"/>
<path d="M341.102 165.557C343.59 165.065 345.644 164.845 345.689 165.065C345.734 165.284 343.761 165.891 341.279 166.42C338.797 166.95 336.745 167.172 336.693 166.913C336.641 166.655 338.615 166.049 341.102 165.557Z" fill="black"/>
<path d="M339.963 147.125C342.493 147.313 344.531 147.645 344.517 147.869C344.502 148.094 342.438 148.154 339.905 148.005C337.372 147.857 335.336 147.524 335.353 147.261C335.369 146.999 337.436 146.939 339.963 147.125Z" fill="black"/>
<path d="M343.797 129.064C346.182 129.927 348.055 130.797 347.981 131.008C347.908 131.219 345.903 130.721 343.504 129.896C341.105 129.071 339.235 128.198 339.322 127.95C339.409 127.702 341.413 128.201 343.797 129.062" fill="black"/>
<path d="M352.354 112.707C354.42 114.178 355.992 115.519 355.862 115.701C355.732 115.882 353.936 114.867 351.847 113.427C349.758 111.987 348.19 110.646 348.34 110.433C348.49 110.22 350.288 111.236 352.353 112.707" fill="black"/>
<path d="M364.975 99.2328C366.573 101.2 367.729 102.911 367.556 103.056C367.384 103.2 365.923 101.737 364.295 99.7931C362.666 97.8487 361.511 96.1378 361.714 95.971C361.916 95.8042 363.377 97.2644 364.975 99.2328Z" fill="black"/>
<path d="M380.74 89.6255C381.751 91.9522 382.404 93.9112 382.2 94.0027C381.995 94.0943 380.982 92.2919 379.934 89.9822C378.887 87.6725 378.236 85.7136 378.48 85.6075C378.724 85.5014 379.735 87.3004 380.745 89.628" fill="black"/>
<path d="M398.515 84.6245C398.861 87.1378 398.962 89.2002 398.74 89.2327C398.519 89.2652 398.027 87.2592 397.643 84.752C397.259 82.2447 397.157 80.1831 397.417 80.1446C397.677 80.1061 398.168 82.1121 398.515 84.6245Z" fill="black"/>
<path d="M416.981 84.5519C416.645 87.0668 416.195 89.0857 415.972 89.054C415.75 89.0224 415.81 86.9616 416.107 84.4424C416.403 81.9231 416.853 79.9086 417.114 79.9411C417.375 79.9736 417.315 82.0386 416.981 84.5519Z" fill="black"/>
<path d="M434.785 89.4396C433.784 91.7699 432.805 93.5894 432.598 93.5021C432.392 93.4149 433.006 91.4439 433.972 89.0983C434.938 86.7527 435.917 84.9358 436.159 85.0367C436.401 85.1377 435.786 87.1103 434.785 89.4396Z" fill="black"/>
<path d="M450.619 98.9368C449.03 100.915 447.6 102.405 447.425 102.265C447.249 102.126 448.366 100.392 449.928 98.3902C451.49 96.3885 452.916 94.8992 453.121 95.0625C453.326 95.2259 452.207 96.9608 450.619 98.9368Z" fill="black"/>
<path d="M463.338 112.318C461.279 113.799 459.503 114.853 459.372 114.673C459.241 114.492 460.782 113.119 462.818 111.606C464.854 110.093 466.629 109.04 466.784 109.252C466.939 109.464 465.397 110.837 463.338 112.318Z" fill="black"/>
<path d="M472.007 128.618C469.624 129.489 467.63 130.027 467.551 129.815C467.473 129.604 469.329 128.703 471.697 127.791C474.065 126.878 476.06 126.346 476.15 126.593C476.241 126.84 474.387 127.746 472.007 128.618Z" fill="black"/>
<path d="M475.958 146.65C473.429 146.851 471.364 146.833 471.345 146.611C471.325 146.389 473.356 146.012 475.878 145.775C478.401 145.538 480.468 145.554 480.491 145.815C480.514 146.076 478.482 146.449 475.957 146.65" fill="black"/>
<path d="M377.836 70.1592C377.75 70.2103 377.659 70.2524 377.565 70.2849L376.751 70.6168C376.043 70.9154 374.967 71.2755 373.632 71.8683C369.834 73.4562 366.146 75.2957 362.592 77.3748C360.333 78.675 357.941 80.2371 355.431 81.9941C352.783 83.8975 350.233 85.9329 347.789 88.0925C336.517 98.0183 327.911 110.61 322.756 124.717C321.631 127.778 320.66 130.894 319.848 134.053C319.122 137.03 318.535 139.827 318.144 142.403C317.496 146.47 317.12 150.576 317.02 154.692C316.951 156.147 317.007 157.283 316.986 158.053C316.982 158.417 316.979 158.706 316.976 158.927C316.98 159.027 316.973 159.127 316.957 159.225C316.937 159.128 316.927 159.028 316.928 158.928C316.92 158.707 316.908 158.415 316.894 158.054C316.886 157.284 316.801 156.151 316.841 154.69C316.874 150.56 317.203 146.437 317.826 142.354C318.198 139.765 318.767 136.954 319.482 133.961C320.28 130.784 321.241 127.65 322.36 124.572C327.496 110.377 336.149 97.7165 347.51 87.7769C349.971 85.6164 352.54 83.5835 355.209 81.6862C357.738 79.9342 360.15 78.3825 362.428 77.095C366.007 75.0325 369.729 73.2294 373.566 71.6998C374.912 71.131 376 70.7973 376.72 70.5262L377.547 70.2413C377.64 70.2041 377.737 70.1766 377.836 70.1592Z" stroke="black" stroke-miterlimit="10"/>
<path d="M407.45 64.5723C406.543 64.7623 405.622 64.8835 404.697 64.935C402.994 65.1147 400.644 65.3696 398.053 65.7049C395.463 66.0402 393.126 66.3953 391.433 66.6553C390.525 66.841 389.604 66.9585 388.679 67.0069C389.555 66.7004 390.459 66.4756 391.377 66.3354C393.059 65.9932 395.397 65.5877 397.995 65.2498C400.593 64.9119 402.957 64.7092 404.668 64.6117C405.592 64.5128 406.524 64.4996 407.45 64.5723Z" stroke="black" stroke-miterlimit="10"/>
<path d="M435.269 96.9949L417.793 152.014V152.022L417.758 152.137V152.146L417.75 152.164L417.556 151.916C416.942 150.178 415.828 148.659 414.355 147.551C414.258 147.481 414.16 147.41 414.064 147.348C412.995 146.601 411.777 146.096 410.493 145.867C409.098 145.619 407.666 145.688 406.302 146.069L406.248 145.875V145.867L406.408 145.61L435.269 96.9949Z" stroke="black" stroke-miterlimit="10"/>
<path d="M417.75 152.168L417.653 152.194C417.627 152.109 417.592 152.018 417.556 151.921L417.75 152.168Z" stroke="black" stroke-miterlimit="10"/>
<path d="M417.767 157.105C417.224 159.118 416.023 160.89 414.355 162.14C413.134 163.06 411.701 163.66 410.188 163.883C408.676 164.106 407.131 163.947 405.696 163.419C404.867 163.124 404.088 162.705 403.386 162.176C402.646 161.636 401.997 160.981 401.464 160.235C400.312 158.675 399.69 156.786 399.69 154.846C399.69 152.906 400.312 151.018 401.464 149.457C401.999 148.713 402.648 148.059 403.386 147.517C404.09 146.988 404.868 146.566 405.696 146.265C405.895 146.188 406.098 146.123 406.304 146.07V146.062C407.668 145.68 409.101 145.611 410.496 145.859C411.779 146.088 412.998 146.593 414.066 147.341C414.163 147.402 414.26 147.473 414.357 147.543C415.832 148.653 416.946 150.175 417.558 151.916C417.593 152.013 417.628 152.101 417.655 152.19C417.699 152.331 417.734 152.464 417.769 152.587C417.94 153.332 418.066 154.085 418.148 154.845C418.146 153.931 418.015 153.023 417.76 152.147V152.138C417.095 149.972 415.67 148.119 413.748 146.92C412.641 146.232 411.403 145.783 410.112 145.601C408.822 145.419 407.508 145.508 406.254 145.862V145.87C404.584 146.345 403.079 147.277 401.909 148.56C400.74 149.844 399.951 151.428 399.632 153.135C399.313 154.842 399.477 156.604 400.104 158.223C400.732 159.842 401.798 161.254 403.184 162.3C404.57 163.346 406.22 163.985 407.949 164.145C409.678 164.305 411.418 163.979 412.972 163.205C414.526 162.43 415.834 161.238 416.747 159.761C417.661 158.285 418.145 156.583 418.144 154.846C418.063 155.606 417.937 156.36 417.767 157.105Z" stroke="black" stroke-miterlimit="10"/>
<path d="M417.943 157.149C417.519 158.91 416.598 160.511 415.289 161.763C413.981 163.015 412.341 163.865 410.563 164.212C408.888 164.528 407.159 164.391 405.555 163.815C404.685 163.514 403.867 163.082 403.13 162.531C402.35 161.968 401.665 161.283 401.101 160.503C399.888 158.869 399.232 156.887 399.232 154.851C399.232 152.816 399.888 150.834 401.101 149.199C401.663 148.418 402.348 147.733 403.13 147.171C403.864 146.614 404.683 146.176 405.555 145.875C405.834 145.77 406.12 145.682 406.41 145.611C407.769 145.268 409.186 145.226 410.563 145.488C411.718 145.708 412.82 146.143 413.814 146.771C414.078 146.942 414.327 147.113 414.555 147.291C416.102 148.488 417.235 150.141 417.791 152.017V152.026C417.849 152.196 417.896 152.37 417.932 152.546C418.126 153.297 418.197 154.074 418.143 154.847C418.061 154.088 417.935 153.334 417.764 152.59C417.729 152.466 417.694 152.333 417.65 152.193C417.623 152.107 417.588 152.016 417.553 151.919C416.941 150.177 415.827 148.656 414.352 147.546C414.255 147.476 414.158 147.405 414.061 147.343C412.993 146.596 411.774 146.09 410.491 145.862C409.096 145.613 407.663 145.683 406.299 146.064V146.073C406.093 146.126 405.889 146.19 405.691 146.267C404.863 146.568 404.085 146.99 403.381 147.519C402.642 148.061 401.994 148.716 401.459 149.46C400.307 151.02 399.685 152.909 399.685 154.849C399.685 156.789 400.307 158.677 401.459 160.238C401.991 160.984 402.64 161.639 403.381 162.178C404.083 162.708 404.862 163.127 405.691 163.421C407.126 163.949 408.67 164.109 410.183 163.886C411.696 163.662 413.128 163.063 414.349 162.142C416.018 160.893 417.219 159.12 417.762 157.108C417.932 156.364 418.059 155.61 418.141 154.85C418.197 155.622 418.13 156.398 417.943 157.149Z" stroke="black" stroke-miterlimit="10"/>
</g>
</g>
<mask id="mask3_0_66" style="mask-type:luminance" maskUnits="userSpaceOnUse" x="0" y="0" width="563" height="434">
<path d="M563 0H0V433.64H563V0Z" fill="white"/>
</mask>
<g mask="url(#mask3_0_66)">
<mask id="mask4_0_66" style="mask-type:luminance" maskUnits="userSpaceOnUse" x="0" y="0" width="563" height="434">
<path d="M563 0H0V433.64H563V0Z" fill="white"/>
</mask>
<g mask="url(#mask4_0_66)">
<path d="M415.207 429.39C447.212 429.39 489.96 427.369 530.263 427.369C538.682 359.077 543.239 306.772 562.142 234.041C522.026 232.26 436.089 232.818 423.874 236.008C421.427 301.396 418.987 365.738 415.202 429.384" fill="white"/>
<path d="M415.207 430.245C415.09 430.245 414.974 430.222 414.867 430.176C414.76 430.129 414.663 430.062 414.583 429.977C414.503 429.892 414.441 429.792 414.401 429.682C414.361 429.572 414.344 429.456 414.351 429.339C418.219 364.277 420.767 296.117 423.021 235.982C423.028 235.798 423.094 235.622 423.209 235.478C423.324 235.335 423.482 235.233 423.66 235.186C436.185 231.911 523.286 231.462 562.182 233.191C562.309 233.196 562.434 233.23 562.546 233.29C562.658 233.35 562.756 233.434 562.831 233.537C562.907 233.639 562.959 233.757 562.983 233.882C563.008 234.007 563.004 234.136 562.972 234.259C546.754 296.66 541.073 344.263 534.501 399.386C533.418 408.45 532.288 417.813 531.111 427.475C531.085 427.682 530.985 427.872 530.829 428.01C530.673 428.148 530.472 428.224 530.263 428.225C508.963 428.225 487.246 428.782 466.245 429.323C447.759 429.797 430.296 430.246 415.206 430.246M424.706 236.696C422.473 296.406 419.938 363.96 416.112 428.534C430.973 428.518 448.095 428.077 466.202 427.614C486.963 427.079 508.425 426.528 529.504 426.515C530.658 417.134 531.757 408.023 532.8 399.184C539.345 344.303 545.004 296.861 561.047 234.855C522.345 233.21 438.981 233.615 424.702 236.699" fill="black"/>
<path d="M257.451 431.65C259.574 390.463 255.516 346.756 239.046 308.949C229.591 329.923 218.493 350.117 205.855 369.343C201.81 362.437 198.229 355.155 194.649 347.875C193.73 346.007 192.811 344.139 191.891 342.27C186.851 332.034 181.813 321.792 177.232 311.342C183.382 286.473 190.175 261.764 198.065 237.408C199.022 234.01 200.394 230.742 202.15 227.68C206.031 221.5 212.678 217.671 219.206 214.405C237.051 205.443 256.029 198.939 275.621 195.073C277.44 192.215 280.029 189.929 283.091 188.48C285.752 198.651 292.073 207.527 299.416 215.044C302.787 218.499 307.242 221.965 311.814 221.474C324.287 217.197 331.403 204.297 341.862 196.26C345.513 193.454 349.95 191.156 354.918 191.611C365.686 193.688 376.454 195.764 387.224 197.84C405.001 201.262 423.381 204.94 438.167 215.394C441.638 217.817 444.78 220.678 447.515 223.908C464.539 262.547 477.551 302.868 487.978 343.784C493.049 363.674 497.526 384.53 493.088 405.053C490.401 411.102 485.93 416.224 480.873 420.501C477.859 423.21 474.372 425.343 470.587 426.793C466.249 428.298 461.569 428.403 456.978 428.492C447.242 428.682 437.504 428.872 427.764 429.06L257.451 431.65Z" fill="white"/>
<path d="M257.349 367.075C245.783 374.431 236.981 385.414 232.321 398.305C231.696 400.035 231.144 401.918 231.636 403.694C231.759 404.164 231.976 404.605 232.273 404.989C232.571 405.373 232.944 405.692 233.369 405.928C233.794 406.164 234.262 406.311 234.745 406.361C235.229 406.411 235.717 406.362 236.181 406.217C235.974 407.211 236.149 408.246 236.669 409.116C237.19 409.987 238.019 410.631 238.992 410.919C239.965 411.207 241.01 411.119 241.921 410.672C242.832 410.225 243.542 409.452 243.909 408.506C244.235 409.058 244.733 409.488 245.328 409.729C245.922 409.97 246.579 410.009 247.197 409.839C248.426 409.468 249.555 408.824 250.502 407.957C253.12 405.887 255.737 403.819 258.353 401.753C261.733 399.081 265.144 396.395 269.008 394.492C271.115 393.454 273.359 392.651 275.253 391.267C277.2 389.821 278.666 387.822 279.46 385.53C280.253 383.238 280.337 380.76 279.701 378.42C278.455 374.285 274.988 371.239 271.489 368.701C269.671 367.382 267.707 366.099 265.477 365.832C262.208 365.444 259.026 367.311 257.346 367.076" fill="white"/>
<path d="M235.174 432.726C234.999 432.726 234.828 432.672 234.684 432.572C234.54 432.472 234.431 432.329 234.37 432.165L229.262 418.177C229.215 418.05 229.2 417.913 229.217 417.778C229.234 417.643 229.283 417.514 229.359 417.402C229.436 417.29 229.539 417.197 229.658 417.132C229.778 417.068 229.911 417.032 230.047 417.029L292.116 415.148C292.342 415.145 292.562 415.23 292.727 415.385C292.89 415.543 292.985 415.758 292.991 415.984L293.272 430.66C293.274 430.773 293.254 430.885 293.213 430.99C293.172 431.095 293.11 431.191 293.032 431.272C292.953 431.353 292.86 431.418 292.756 431.462C292.653 431.507 292.541 431.531 292.429 431.533L235.187 432.73L235.174 432.726ZM231.279 418.712L235.769 431.008L291.543 429.834L291.295 416.875L231.279 418.712Z" fill="black"/>
<path d="M279.676 147.305C282.568 166.65 283.783 186.209 283.308 205.764C283.133 207.39 283.359 209.035 283.967 210.554C284.844 211.991 286.103 213.155 287.604 213.917C297.474 219.905 309.647 222.642 320.814 219.705C331.98 216.769 341.707 207.605 342.742 195.212C338.028 179.332 330.147 157.186 324.057 131.709C310.38 137.768 296.061 142.373 279.675 147.301" fill="white"/>
<path d="M311.425 221.747C302.842 221.632 294.453 219.178 287.161 214.651C285.52 213.811 284.149 212.526 283.204 210.943C282.528 209.299 282.27 207.512 282.453 205.743C282.923 186.238 281.711 166.728 278.831 147.431C278.8 147.227 278.844 147.02 278.954 146.847C279.064 146.673 279.233 146.545 279.429 146.485C297.051 141.182 310.612 136.733 323.709 130.933C323.824 130.882 323.949 130.857 324.074 130.859C324.2 130.862 324.323 130.892 324.436 130.947C324.548 131.003 324.647 131.083 324.726 131.181C324.804 131.279 324.86 131.393 324.889 131.515C329.198 149.538 334.494 166.18 338.753 179.553C340.519 185.1 342.187 190.338 343.563 194.974C343.593 195.075 343.604 195.182 343.595 195.287C342.608 207.105 333.537 217.25 321.032 220.534C317.895 221.35 314.666 221.757 311.424 221.747M280.629 147.911C283.446 167.067 284.627 186.428 284.161 205.784C283.996 207.272 284.191 208.777 284.729 210.174C285.54 211.461 286.686 212.504 288.044 213.19C298.454 219.505 310.32 221.582 320.596 218.882C330.38 216.315 340.728 208.03 341.874 195.304C340.513 190.724 338.864 185.547 337.121 180.071C332.935 166.918 327.744 150.609 323.464 132.908C310.75 138.468 297.554 142.81 280.629 147.911Z" fill="black"/>
<path d="M444.846 424.544C423.243 424.544 399.764 424.023 368.6 419.754C351.05 417.351 334.474 415.082 320.439 413.7C320.327 413.689 320.219 413.656 320.12 413.602C320.021 413.549 319.933 413.477 319.862 413.39C319.791 413.303 319.737 413.203 319.705 413.095C319.673 412.988 319.662 412.875 319.673 412.763C319.684 412.651 319.717 412.543 319.77 412.443C319.824 412.344 319.896 412.257 319.983 412.186C320.07 412.115 320.17 412.061 320.278 412.029C320.385 411.996 320.498 411.986 320.61 411.997C334.67 413.383 351.262 415.655 368.829 418.059C413.128 424.123 463.339 430.999 475.66 423.106C485.973 416.499 493.037 406.59 493.658 397.861C494.369 387.844 492.407 364.799 490.476 355.548C482.457 317.11 454.013 233.271 443.566 221.507C433.568 210.25 418.229 205.67 404.637 202.26C384.412 197.192 363.884 193.423 343.178 190.976C338.97 204.54 330.259 216.262 318.485 224.203C315.569 226.178 312.08 224.485 309.004 222.993C308.421 222.711 307.849 222.433 307.298 222.189C306.553 221.983 305.796 221.826 305.031 221.719C299.845 220.813 289.059 218.93 283.821 210.977C281.02 206.726 280.253 201.338 281.54 194.946C262.782 198.033 244.494 203.5 227.12 211.216C219.526 214.563 211.017 218.934 205.466 225.979C200.476 232.315 198.115 240.423 196.03 247.575C184.139 288.388 187.576 269.801 177.75 311.153C177.727 311.266 177.682 311.372 177.617 311.467C177.552 311.562 177.469 311.642 177.373 311.704C177.276 311.766 177.168 311.808 177.055 311.827C176.942 311.846 176.826 311.843 176.714 311.816C176.602 311.79 176.497 311.741 176.405 311.673C176.312 311.605 176.235 311.519 176.176 311.421C176.117 311.322 176.079 311.212 176.064 311.099C176.048 310.985 176.056 310.869 176.086 310.759C185.918 269.378 182.49 287.937 194.392 247.098C196.52 239.796 198.93 231.518 204.127 224.922C209.907 217.58 218.648 213.083 226.435 209.651C244.327 201.705 263.179 196.127 282.514 193.056C282.653 193.034 282.795 193.046 282.928 193.092C283.06 193.138 283.18 193.216 283.275 193.319C283.371 193.422 283.44 193.547 283.476 193.683C283.511 193.819 283.513 193.961 283.481 194.098C281.946 200.559 282.54 205.92 285.253 210.036C290.084 217.373 300.38 219.17 305.329 220.034C306.234 220.146 307.126 220.344 307.993 220.625C308.563 220.876 309.151 221.161 309.753 221.454C312.546 222.809 315.431 224.208 317.531 222.788C329.178 214.922 337.738 203.262 341.753 189.793C341.81 189.601 341.934 189.436 342.101 189.326C342.269 189.217 342.47 189.17 342.669 189.195C363.689 191.645 384.528 195.455 405.055 200.599C418.896 204.071 434.527 208.749 444.847 220.369C456.125 233.07 484.803 319.962 492.152 355.197C494.104 364.545 496.087 387.847 495.365 397.98C494.71 407.228 487.339 417.655 476.587 424.544C472.297 427.291 464.054 428.385 453.24 428.385" fill="black"/>
<path d="M308.935 235.673C303.522 262.549 298.448 289.529 293.714 316.612C292.913 321.2 292.117 325.889 292.526 330.555C293.103 337.134 295.993 342.976 298.812 348.563C302.254 355.385 305.696 362.207 310.329 368.975C315.887 356.359 320.776 343.459 324.978 330.329C326.404 300.337 316.621 271.175 315.832 241.145C315.782 239.287 315.747 237.335 315.002 235.732C314.257 234.129 312.521 233.089 308.935 235.671" fill="#0086D5"/>
<path d="M310.332 369.832C310.193 369.832 310.056 369.798 309.933 369.733C309.81 369.668 309.705 369.574 309.626 369.459C304.962 362.647 301.449 355.686 298.052 348.955C295.345 343.585 292.275 337.504 291.675 330.632C291.247 325.764 292.113 320.825 292.873 316.465C297.586 289.499 302.71 262.261 308.099 235.504C308.142 235.292 308.265 235.105 308.441 234.98C310.431 233.544 312.14 233.001 313.531 233.362C314.034 233.505 314.498 233.76 314.889 234.109C315.279 234.457 315.585 234.889 315.784 235.373C316.465 237.168 316.773 239.083 316.69 241.001V241.124C317.042 254.459 319.211 267.864 321.309 280.824C323.925 296.971 326.628 313.668 325.835 330.37C325.831 330.445 325.818 330.518 325.796 330.589C321.582 343.749 316.682 356.679 311.115 369.325C311.053 369.465 310.956 369.585 310.832 369.675C310.709 369.764 310.563 369.818 310.412 369.832C310.384 369.832 310.358 369.832 310.332 369.832ZM309.708 236.176C304.345 262.81 299.249 289.919 294.558 316.758C293.814 321.015 292.971 325.839 293.378 330.482C293.952 337.028 296.939 342.953 299.578 348.178C302.728 354.727 306.265 361.081 310.171 367.209C315.444 355.108 320.103 342.749 324.131 330.179C324.901 313.689 322.217 297.121 319.622 281.099C317.513 268.081 315.332 254.62 314.98 241.167V241.044C315.056 239.361 314.802 237.68 314.232 236.095C314.137 235.841 313.985 235.612 313.789 235.425C313.593 235.238 313.357 235.098 313.098 235.015C312.526 234.867 311.487 234.957 309.713 236.176" fill="black"/>
<path d="M320.528 413.706C320.324 413.706 320.127 413.633 319.972 413.5C319.817 413.368 319.715 413.184 319.684 412.983C319.652 412.781 319.694 412.575 319.801 412.402C319.908 412.228 320.073 412.099 320.267 412.036C327.179 409.822 329.97 404.266 329.605 393.457C328.824 370.381 325.319 367.304 323.847 367.053C323.64 367.017 323.453 366.906 323.322 366.74C323.192 366.575 323.127 366.367 323.14 366.157C323.153 365.947 323.243 365.749 323.393 365.601C323.543 365.453 323.743 365.366 323.953 365.356L328.105 365.172C363.525 363.608 403.608 361.836 428.4 358.795C424.208 345.696 420.208 333.731 416.334 322.143C412.299 310.081 408.128 297.601 403.781 283.955C403.745 283.847 403.731 283.733 403.739 283.62C403.747 283.507 403.778 283.396 403.829 283.295C403.881 283.194 403.952 283.104 404.038 283.03C404.125 282.957 404.225 282.901 404.333 282.867C404.442 282.832 404.556 282.82 404.669 282.83C404.782 282.84 404.892 282.873 404.992 282.926C405.093 282.979 405.181 283.052 405.253 283.139C405.325 283.227 405.379 283.328 405.412 283.437C409.752 297.071 413.923 309.541 417.956 321.602C421.929 333.478 426.037 345.76 430.343 359.254C430.382 359.374 430.394 359.501 430.378 359.626C430.362 359.751 430.319 359.87 430.251 359.977C430.184 360.083 430.094 360.173 429.987 360.24C429.881 360.308 429.761 360.351 429.636 360.366C404.864 363.498 364.125 365.297 328.181 366.884L326.635 366.953C328.526 369.417 330.722 375.894 331.315 393.405C331.578 401.189 330.619 410.519 320.793 413.669C320.709 413.697 320.621 413.711 320.532 413.711" fill="black"/>
<path d="M59.5442 433.639C59.3817 433.639 59.2226 433.593 59.0855 433.505C58.9484 433.418 58.839 433.294 58.7701 433.147L0.0855452 307.451C0.0248739 307.321 -0.00214733 307.178 0.00696663 307.034C0.0160806 306.891 0.0610371 306.753 0.137702 306.632C0.214366 306.51 0.320278 306.41 0.445697 306.341C0.571115 306.271 0.712014 306.234 0.855436 306.233L175.61 307.191C175.77 307.192 175.926 307.238 176.061 307.323C176.196 307.407 176.304 307.528 176.374 307.671L236.613 431.385C236.676 431.515 236.706 431.659 236.698 431.803C236.691 431.948 236.647 432.088 236.57 432.211C236.494 432.333 236.388 432.435 236.262 432.505C236.136 432.576 235.994 432.614 235.849 432.614L59.5442 433.641V433.639ZM2.20189 307.951L60.0874 431.926L234.481 430.913L175.074 308.899L2.20189 307.951Z" fill="black"/>
<path d="M111.392 357.499C106.431 357.012 101.011 358.338 98.9883 362.895C96.9661 367.452 98.5161 373.16 102.199 376.52C105.881 379.88 111.324 380.962 116.186 379.868C118.812 379.277 121.415 378.004 122.927 375.774C123.94 374.19 124.464 372.343 124.434 370.464C124.476 364.328 121.679 358.506 111.39 357.498" fill="white"/>
<path d="M112.465 381.139C108.483 381.196 104.621 379.776 101.624 377.154C97.5426 373.43 96.1064 367.286 98.209 362.549C100.125 358.228 105.083 356.026 111.476 356.647C122.964 357.774 125.329 364.786 125.29 370.469C125.324 372.519 124.749 374.534 123.636 376.256C121.776 378.999 118.662 380.191 116.375 380.704C115.091 380.991 113.78 381.137 112.465 381.139ZM109.526 358.262C106.566 358.262 101.672 358.955 99.7736 363.239C97.9618 367.324 99.2244 372.644 102.778 375.887C104.575 377.42 106.71 378.505 109.008 379.052C111.306 379.599 113.7 379.593 115.995 379.034C118.464 378.613 120.684 377.279 122.216 375.298C123.13 373.851 123.603 372.17 123.575 370.459C123.626 363.227 119.496 359.154 111.304 358.351C110.882 358.309 110.262 358.265 109.521 358.265" fill="black"/>
<path d="M315.793 221.929C313.415 220.198 310.209 220.344 307.639 221.409C303.856 222.974 300.662 225.196 299.956 229.229C299.777 230.261 301.767 234.567 302.791 236.122C304.004 237.966 307.083 241.328 309.749 241.546C312.025 241.731 314.142 240.383 315.845 238.863C318.925 236.112 321.444 232.028 320.465 228.016C319.874 225.607 318.155 223.642 315.797 221.929" fill="#0086D5"/>
<path d="M310.186 242.418C310.015 242.418 309.85 242.412 309.68 242.397C306.403 242.131 303.081 238.116 302.077 236.592C301.263 235.356 298.852 230.59 299.117 229.08C299.973 224.183 304.205 221.905 307.313 220.617C310.56 219.275 313.918 219.505 316.295 221.235C319.065 223.249 320.7 225.402 321.291 227.811C322.214 231.58 320.391 235.95 316.415 239.499C314.219 241.46 312.175 242.418 310.186 242.418ZM311.509 221.477C310.293 221.487 309.09 221.731 307.967 222.197C303.56 224.022 301.349 226.237 300.8 229.374C300.739 230.103 302.407 233.982 303.507 235.65C304.777 237.579 307.661 240.516 309.82 240.692C311.484 240.835 313.263 240.022 315.276 238.224C316.587 237.054 320.774 232.877 319.632 228.215C319.141 226.215 317.722 224.382 315.292 222.616C314.185 221.843 312.859 221.443 311.509 221.474" fill="black"/>
<path d="M263.478 413.866C262.563 413.831 261.691 413.464 261.027 412.833C259.197 411.286 260.453 408.309 260.865 407.33C261.566 405.83 262.525 404.466 263.7 403.299C267.431 399.311 271.765 395.933 276.545 393.29C273.807 392.745 270.739 393.975 268.478 395.232C264.226 397.606 260.428 400.871 256.759 404.029C254.901 405.628 252.978 407.28 251.008 408.812C250.082 409.611 249.011 410.226 247.854 410.622C247.181 410.845 246.461 410.886 245.767 410.742C245.073 410.598 244.429 410.274 243.9 409.802C243.196 409.05 242.791 408.067 242.758 407.038C242.568 404.201 244.284 401.675 245.591 400.023C253.419 390.129 261.667 384.619 270.811 383.182C271.03 383.158 271.25 383.218 271.426 383.352C271.601 383.486 271.718 383.682 271.753 383.9C271.787 384.118 271.736 384.34 271.61 384.521C271.483 384.702 271.292 384.828 271.076 384.871C262.379 386.24 254.481 391.544 246.933 401.083C245.801 402.515 244.313 404.676 244.465 406.927C244.47 407.537 244.695 408.126 245.097 408.585C245.413 408.841 245.788 409.012 246.189 409.081C246.589 409.15 247 409.115 247.383 408.979C248.329 408.64 249.202 408.126 249.957 407.463C251.895 405.96 253.801 404.319 255.644 402.734C259.379 399.521 263.243 396.198 267.646 393.741C270.76 392.002 275.265 390.357 279.04 392.389C279.177 392.463 279.291 392.572 279.37 392.706C279.449 392.84 279.49 392.993 279.489 393.148C279.487 393.304 279.444 393.456 279.362 393.588C279.281 393.721 279.165 393.829 279.027 393.9C273.76 396.581 268.998 400.156 264.955 404.467C263.921 405.492 263.071 406.687 262.443 408C261.673 409.83 261.564 411.052 262.134 411.532C263.417 412.621 264.159 412.156 265.575 411.094L265.673 411.018C270.953 406.549 276.679 402.636 282.76 399.34C284.728 398.282 287.269 397.211 289.518 398.307C292.247 399.643 300.08 402.649 313.837 401.786C319.12 401.498 324.412 402.196 329.44 403.845C329.652 403.916 329.829 404.068 329.93 404.268C330.032 404.468 330.051 404.7 329.983 404.914C329.915 405.128 329.766 405.307 329.567 405.412C329.369 405.517 329.137 405.539 328.922 405.475C324.096 403.891 319.016 403.219 313.944 403.494C299.779 404.381 291.617 401.239 288.767 399.845C287.228 399.091 285.277 399.93 283.571 400.845C277.579 404.094 271.938 407.952 266.737 412.358L266.604 412.461C265.744 413.257 264.649 413.752 263.483 413.872" fill="black"/>
<path d="M239.501 412.484C239.138 412.486 238.777 412.432 238.43 412.324C236.424 411.693 235.562 409.466 235.422 407.591C235.085 403.068 237.501 398.866 239.346 396.095C245.574 386.756 252.007 380.864 258.458 378.583C258.672 378.507 258.908 378.52 259.112 378.618C259.317 378.715 259.474 378.891 259.55 379.105C259.625 379.319 259.613 379.554 259.515 379.758C259.417 379.963 259.242 380.121 259.028 380.196C252.928 382.351 246.786 388.018 240.768 397.048C239.062 399.606 236.833 403.47 237.127 407.467C237.221 408.722 237.752 410.321 238.943 410.695C239.311 410.781 239.694 410.786 240.064 410.71C240.434 410.633 240.783 410.477 241.087 410.253C241.828 409.708 242.481 409.051 243.022 408.307C243.091 408.215 243.178 408.138 243.278 408.08C243.377 408.022 243.487 407.985 243.602 407.971C243.716 407.957 243.832 407.966 243.943 407.997C244.053 408.029 244.157 408.083 244.246 408.155C244.336 408.228 244.409 408.318 244.463 408.42C244.517 408.521 244.55 408.633 244.56 408.748C244.569 408.863 244.556 408.978 244.52 409.088C244.484 409.197 244.426 409.298 244.35 409.384C243.7 410.267 242.916 411.043 242.026 411.683C241.281 412.191 240.403 412.471 239.5 412.489" fill="black"/>
<path d="M234.199 407.42C233.152 407.414 232.132 407.09 231.274 406.489C228.582 404.607 231.673 394.371 235.114 388.69C242.059 377.22 250.929 368.947 260.76 364.757C265.799 361.382 288.063 368.162 297.441 371.246C300.245 372.249 303.177 372.85 306.15 373.031C314.375 373.288 324.969 373.432 327.746 372.998C327.97 372.963 328.199 373.018 328.383 373.152C328.566 373.285 328.689 373.487 328.724 373.711C328.759 373.935 328.704 374.164 328.57 374.348C328.437 374.531 328.236 374.654 328.011 374.689C324.279 375.269 309.102 374.833 306.096 374.739C302.961 374.554 299.867 373.926 296.908 372.873C281.702 367.871 264.91 363.871 261.676 366.2C261.622 366.238 261.565 366.27 261.505 366.295C252.109 370.276 243.253 378.543 236.572 389.574C232.723 395.92 231.159 404.322 232.253 405.087C232.723 405.433 233.28 405.642 233.862 405.69C234.443 405.738 235.027 405.623 235.547 405.358C235.644 405.298 235.752 405.257 235.864 405.239C235.976 405.221 236.091 405.225 236.202 405.252C236.313 405.278 236.417 405.327 236.509 405.395C236.601 405.462 236.678 405.548 236.736 405.646C236.794 405.743 236.833 405.852 236.848 405.965C236.864 406.078 236.857 406.192 236.828 406.303C236.799 406.413 236.748 406.516 236.678 406.606C236.609 406.696 236.522 406.772 236.422 406.828C235.748 407.222 234.979 407.426 234.198 407.419" fill="black"/>
<path d="M283.262 187.537C287.881 198.871 297.804 214.561 307.891 220.617C302.403 225.416 295.514 232.969 283.967 241.561C279.903 221.202 275.683 211.517 273.235 195.605C275.882 193.637 279.966 189.518 283.262 187.537Z" fill="white"/>
<path d="M283.968 242.417C283.77 242.418 283.579 242.35 283.426 242.225C283.273 242.1 283.168 241.926 283.128 241.733C281.233 232.238 279.269 224.938 277.534 218.498C275.372 211.019 273.655 203.42 272.39 195.739C272.366 195.585 272.385 195.428 272.444 195.283C272.502 195.139 272.599 195.014 272.724 194.92C273.709 194.19 274.922 193.129 276.206 192.012C278.268 190.103 280.481 188.363 282.822 186.81C282.928 186.746 283.046 186.706 283.168 186.693C283.291 186.679 283.415 186.692 283.532 186.731C283.649 186.77 283.756 186.834 283.846 186.918C283.936 187.002 284.007 187.105 284.054 187.219C288.909 199.128 298.809 214.173 308.333 219.889C308.448 219.959 308.545 220.054 308.617 220.169C308.688 220.283 308.732 220.412 308.744 220.546C308.756 220.68 308.736 220.815 308.686 220.94C308.636 221.065 308.557 221.176 308.456 221.265C306.849 222.67 305.145 224.292 303.17 226.168C297.291 231.924 291.047 237.296 284.478 242.25C284.33 242.362 284.15 242.422 283.965 242.422M274.158 195.977C275.413 203.423 277.092 210.792 279.187 218.047C280.845 224.206 282.715 231.157 284.538 240.061C290.65 235.364 296.477 230.308 301.989 224.919C303.632 223.356 305.091 221.967 306.471 220.728C297.192 214.59 287.784 200.407 282.861 188.804C280.935 190.194 279.088 191.692 277.329 193.29C276.19 194.285 275.105 195.233 274.157 195.972" fill="black"/>
<path d="M314.779 220.563C320.532 227.811 326.285 235.062 333.208 242.501C341.584 226.149 350.055 209.287 353.867 191.315C350.283 189.653 342.49 184.502 338.903 182.84C339.945 186.66 342.068 190.111 341.562 191.315C341.236 192.085 323.749 212.141 314.779 220.563Z" fill="white"/>
<path d="M333.207 243.357C333.09 243.357 332.973 243.333 332.866 243.286C332.758 243.239 332.661 243.17 332.581 243.084C325.627 235.612 319.772 228.232 314.104 221.099C313.971 220.931 313.905 220.719 313.921 220.505C313.937 220.291 314.033 220.091 314.189 219.944C323.153 211.529 339.75 192.459 340.779 190.958C340.881 190.497 340.206 188.843 339.712 187.63C339.074 186.144 338.526 184.621 338.073 183.069C338.028 182.911 338.031 182.743 338.079 182.586C338.127 182.429 338.22 182.289 338.345 182.183C338.471 182.077 338.625 182.01 338.788 181.989C338.951 181.968 339.116 181.995 339.265 182.065C341.098 182.915 344.01 184.658 346.826 186.343C349.604 188.006 352.477 189.727 354.229 190.538C354.405 190.62 354.548 190.758 354.635 190.932C354.722 191.105 354.747 191.303 354.707 191.492C350.753 210.128 341.837 227.533 333.971 242.889C333.908 243.012 333.817 243.117 333.705 243.196C333.593 243.276 333.464 243.327 333.328 243.346C333.289 243.352 333.25 243.355 333.211 243.355M315.938 220.644C321.203 227.276 326.655 234.115 333.008 241.021C340.59 226.209 349.011 209.526 352.892 191.792C351.059 190.873 348.466 189.32 345.947 187.81C343.985 186.635 341.975 185.431 340.346 184.541C340.655 185.396 340.989 186.215 341.3 186.977C342.195 189.171 342.788 190.62 342.352 191.647C341.898 192.718 324.901 212.083 315.938 220.646" fill="black"/>
<path d="M255.513 369.293C255.305 369.293 255.105 369.217 254.949 369.08C254.793 368.943 254.692 368.754 254.665 368.548C250.849 339.146 240.104 308.354 225.189 284.067C225.122 283.971 225.075 283.863 225.052 283.749C225.028 283.635 225.028 283.517 225.052 283.403C225.076 283.289 225.122 283.181 225.189 283.085C225.256 282.99 225.342 282.909 225.441 282.848C225.54 282.787 225.651 282.746 225.766 282.73C225.882 282.713 225.999 282.72 226.112 282.75C226.224 282.78 226.33 282.833 226.421 282.906C226.512 282.978 226.588 283.068 226.643 283.171C241.682 307.656 252.512 338.695 256.36 368.329C256.374 368.44 256.367 368.553 256.337 368.662C256.308 368.77 256.258 368.872 256.189 368.961C256.12 369.05 256.035 369.124 255.937 369.18C255.84 369.236 255.732 369.272 255.621 369.287C255.584 369.291 255.547 369.293 255.511 369.293" fill="black"/>
<path d="M205.743 370.793C205.589 370.793 205.439 370.752 205.306 370.673C205.174 370.595 205.066 370.482 204.992 370.347C204.919 370.212 204.883 370.06 204.889 369.906C204.894 369.753 204.941 369.603 205.025 369.474C215.88 352.655 229.456 330.518 238.15 308.471C238.189 308.362 238.249 308.263 238.326 308.179C238.404 308.094 238.498 308.026 238.602 307.978C238.706 307.931 238.819 307.905 238.934 307.902C239.049 307.899 239.163 307.919 239.27 307.961C239.377 308.003 239.474 308.066 239.556 308.146C239.638 308.227 239.703 308.323 239.747 308.429C239.791 308.535 239.813 308.649 239.812 308.763C239.811 308.878 239.787 308.991 239.742 309.097C230.99 331.286 217.361 353.514 206.465 370.403C206.387 370.523 206.281 370.622 206.155 370.69C206.029 370.758 205.888 370.794 205.745 370.793" fill="black"/>
<path d="M257.452 416.733H257.443C257.331 416.732 257.22 416.708 257.116 416.664C257.013 416.621 256.919 416.557 256.84 416.476C256.761 416.396 256.699 416.301 256.657 416.197C256.615 416.093 256.594 415.981 256.595 415.869L256.731 402.224C256.733 401.999 256.824 401.783 256.985 401.625C257.145 401.466 257.361 401.377 257.587 401.377H257.595C257.708 401.378 257.819 401.401 257.922 401.445C258.026 401.489 258.12 401.553 258.198 401.633C258.277 401.713 258.339 401.808 258.381 401.912C258.423 402.017 258.444 402.128 258.443 402.241L258.307 415.885C258.305 416.11 258.214 416.326 258.054 416.485C257.894 416.644 257.677 416.733 257.452 416.733Z" fill="black"/>
<path d="M341.338 102.466C341.271 102.466 341.203 102.457 341.138 102.441C340.918 102.388 340.727 102.249 340.609 102.055C340.491 101.862 340.454 101.63 340.507 101.409C341.363 97.8728 341.744 95.9643 342.438 92.5015C342.457 92.3885 342.499 92.2805 342.56 92.1838C342.622 92.0871 342.702 92.0038 342.796 91.9388C342.891 91.8738 342.997 91.8284 343.11 91.8054C343.222 91.7823 343.338 91.782 343.45 91.8045C343.562 91.8271 343.669 91.8719 343.764 91.9365C343.858 92.0011 343.939 92.084 344.001 92.1804C344.063 92.2767 344.105 92.3846 344.125 92.4975C344.144 92.6104 344.141 92.7261 344.115 92.8377C343.415 96.3219 343.031 98.2424 342.17 101.812C342.124 101.998 342.018 102.164 341.867 102.282C341.717 102.401 341.53 102.466 341.338 102.466Z" fill="black"/>
<path d="M428.847 360.441C428.62 360.446 428.401 360.36 428.237 360.203C428.073 360.046 427.979 359.83 427.974 359.603C427.969 359.376 428.055 359.157 428.212 358.993C428.369 358.829 428.585 358.735 428.811 358.73C434.799 358.473 440.873 358.314 446.869 358.241H446.877C447.104 358.24 447.322 358.329 447.484 358.488C447.645 358.648 447.737 358.865 447.738 359.092C447.739 359.319 447.65 359.537 447.491 359.698C447.331 359.86 447.114 359.951 446.888 359.952C440.911 360.025 434.855 360.188 428.884 360.441H428.846" fill="black"/>
<path d="M481.626 288.471C481.514 288.474 481.402 288.455 481.297 288.415C481.191 288.376 481.095 288.315 481.013 288.238C480.932 288.161 480.866 288.069 480.82 287.967C480.773 287.864 480.748 287.754 480.744 287.641C480.741 287.529 480.76 287.417 480.8 287.312C480.839 287.207 480.9 287.111 480.977 287.029C481.054 286.947 481.146 286.881 481.248 286.835C481.351 286.789 481.461 286.763 481.574 286.76C499.663 285.654 518.015 285.323 536.129 285.777C536.241 285.78 536.352 285.804 536.455 285.85C536.558 285.895 536.65 285.961 536.728 286.042C536.805 286.124 536.866 286.219 536.906 286.324C536.947 286.429 536.966 286.541 536.964 286.653C536.961 286.766 536.936 286.876 536.89 286.979C536.845 287.082 536.78 287.174 536.698 287.252C536.617 287.329 536.521 287.39 536.416 287.431C536.311 287.471 536.2 287.49 536.087 287.488C518.021 287.034 499.717 287.364 481.682 288.467H481.629" fill="black"/>
<path d="M488.675 305.132C488.448 305.134 488.229 305.046 488.067 304.887C487.905 304.728 487.813 304.512 487.811 304.285C487.808 304.058 487.896 303.839 488.055 303.677C488.214 303.515 488.431 303.423 488.658 303.421L527.508 302.667C527.62 302.665 527.732 302.685 527.837 302.726C527.941 302.767 528.037 302.828 528.118 302.906C528.199 302.984 528.264 303.077 528.309 303.18C528.354 303.283 528.378 303.394 528.38 303.506C528.382 303.618 528.362 303.73 528.321 303.835C528.28 303.939 528.219 304.035 528.141 304.116C528.064 304.197 527.97 304.262 527.867 304.307C527.765 304.352 527.654 304.376 527.541 304.378L488.691 305.13L488.675 305.132Z" fill="black"/>
<path d="M508.865 377.145C508.752 377.147 508.641 377.127 508.536 377.086C508.431 377.046 508.336 376.984 508.255 376.907C508.174 376.829 508.109 376.736 508.064 376.633C508.018 376.53 507.994 376.419 507.992 376.307C507.989 376.195 508.009 376.083 508.05 375.978C508.091 375.874 508.152 375.778 508.23 375.697C508.308 375.616 508.401 375.551 508.504 375.506C508.606 375.461 508.717 375.436 508.83 375.434L528.837 374.572C528.95 374.565 529.063 374.582 529.169 374.62C529.275 374.658 529.373 374.716 529.456 374.793C529.539 374.869 529.606 374.961 529.653 375.064C529.7 375.167 529.725 375.278 529.729 375.39C529.738 375.617 529.658 375.838 529.505 376.005C529.352 376.172 529.139 376.271 528.913 376.282L508.903 377.144H508.866" fill="black"/>
<path d="M358.777 218.158C358.714 218.158 358.651 218.152 358.589 218.137C358.368 218.088 358.175 217.952 358.054 217.761C357.933 217.57 357.892 217.338 357.941 217.117C359.047 212.186 359.964 207.151 360.666 202.147C360.697 201.922 360.817 201.719 360.998 201.582C361.179 201.446 361.408 201.386 361.632 201.418C361.857 201.45 362.06 201.569 362.197 201.75C362.334 201.932 362.393 202.16 362.361 202.385C361.654 207.432 360.727 212.514 359.612 217.488C359.569 217.678 359.463 217.847 359.312 217.969C359.16 218.09 358.971 218.156 358.777 218.156" fill="black"/>
<path d="M369.354 210.74C369.33 210.74 369.302 210.74 369.277 210.74C369.052 210.72 368.843 210.61 368.698 210.436C368.553 210.262 368.483 210.037 368.503 209.811L369.296 201.027C369.323 200.806 369.434 200.604 369.607 200.464C369.78 200.323 370.001 200.256 370.223 200.276C370.445 200.297 370.65 200.402 370.795 200.572C370.94 200.741 371.013 200.96 370.999 201.182L370.206 209.966C370.187 210.18 370.089 210.378 369.93 210.522C369.772 210.666 369.565 210.746 369.351 210.745" fill="black"/>
<path d="M319.344 374.939C319.315 374.939 319.283 374.939 319.258 374.939C319.147 374.927 319.038 374.893 318.939 374.84C318.84 374.786 318.753 374.714 318.682 374.626C318.611 374.539 318.559 374.438 318.527 374.33C318.495 374.223 318.484 374.109 318.496 373.998C318.611 372.901 318.798 371.813 319.057 370.741C319.305 369.523 319.79 368.366 320.485 367.336C320.881 366.766 321.399 366.291 322.003 365.949C322.607 365.606 323.281 365.404 323.974 365.358H323.995C324.107 365.356 324.219 365.377 324.323 365.419C324.427 365.461 324.522 365.523 324.603 365.601C324.683 365.68 324.747 365.773 324.792 365.876C324.836 365.98 324.859 366.091 324.861 366.203C324.862 366.315 324.841 366.427 324.799 366.531C324.758 366.635 324.696 366.73 324.617 366.811C324.539 366.891 324.445 366.955 324.342 367C324.239 367.044 324.128 367.067 324.016 367.069C323.583 367.108 323.165 367.244 322.792 367.466C322.419 367.688 322.1 367.991 321.859 368.352C321.299 369.198 320.911 370.147 320.717 371.143C320.476 372.142 320.302 373.155 320.195 374.176C320.174 374.387 320.075 374.582 319.918 374.725C319.762 374.867 319.557 374.946 319.346 374.946" fill="black"/>
<path d="M320.281 413.45C319.892 413.437 319.512 413.337 319.167 413.157C318.823 412.978 318.523 412.723 318.289 412.413C317.914 411.903 317.637 411.327 317.475 410.716C316.713 408.244 316.5 405.637 316.853 403.075C316.886 402.851 317.006 402.65 317.186 402.513C317.366 402.377 317.593 402.317 317.817 402.346C318.041 402.377 318.244 402.497 318.381 402.677C318.518 402.858 318.577 403.086 318.546 403.31C318.229 405.623 318.42 407.977 319.107 410.207C319.212 410.616 319.388 411.003 319.629 411.349C319.705 411.457 319.804 411.547 319.917 411.615C320.031 411.682 320.157 411.724 320.288 411.739C320.514 411.738 320.731 411.825 320.894 411.982C321.057 412.138 321.153 412.351 321.161 412.577C321.163 412.689 321.143 412.801 321.102 412.906C321.061 413.011 321 413.106 320.922 413.187C320.844 413.268 320.751 413.333 320.648 413.378C320.545 413.423 320.434 413.447 320.322 413.45L320.281 413.45Z" fill="black"/>
<path d="M349.502 41.8863C349.993 58.2381 349.557 74.6045 348.197 90.907C347.337 101.049 345.166 111.036 341.738 120.62C340.153 124.958 338.714 127.185 334.5 130.148C333.539 126.213 329.045 124.975 327.701 121.13C326.045 116.402 328.411 111.558 324.715 107.767C317.816 100.771 312.416 92.4412 308.845 83.2876C306.033 75.9583 304.561 67.9814 306.893 60.3363C308.231 56.1759 310.602 52.4227 313.784 49.4278C316.967 46.4329 320.857 44.2941 325.091 43.2114C332.053 41.4783 343.182 38.4167 349.502 41.8863Z" fill="black"/>
<path d="M334.738 130.969C334.627 131.002 334.511 131.011 334.396 130.997C334.282 130.983 334.171 130.946 334.071 130.889C333.971 130.831 333.884 130.754 333.815 130.661C333.746 130.569 333.696 130.464 333.668 130.352C333.232 128.56 331.906 127.358 330.503 126.089C329.081 124.799 327.61 123.465 326.891 121.413C326.313 119.502 326.06 117.506 326.142 115.511C326.11 112.773 326.086 110.405 324.1 108.369C317.113 101.295 311.649 92.8643 308.045 83.5971C304.624 74.6664 303.974 66.976 306.073 60.0907C307.454 55.7884 309.904 51.9071 313.194 48.8101C316.484 45.713 320.506 43.5017 324.884 42.3832L325.978 42.1094C333.003 40.3472 343.62 37.686 349.912 41.1411C350.043 41.2129 350.153 41.3181 350.231 41.4461C350.309 41.574 350.351 41.7202 350.354 41.8699C350.852 58.251 350.415 74.6472 349.047 90.9787C348.185 101.199 345.997 111.263 342.538 120.919C340.969 125.222 339.505 127.677 334.992 130.854C334.913 130.907 334.826 130.948 334.735 130.975M324.427 44.2737C320.521 45.4226 316.956 47.5097 314.042 50.353C311.128 53.1963 308.954 56.7095 307.709 60.5859C305.726 67.0932 306.358 74.4183 309.644 82.9821C313.164 92.0319 318.501 100.264 325.326 107.171C327.787 109.697 327.82 112.641 327.852 115.489C327.775 117.299 327.996 119.11 328.506 120.85C329.08 122.49 330.33 123.624 331.654 124.822C333.013 125.894 334.13 127.241 334.931 128.776C338.376 126.17 339.576 124.046 340.933 120.328C344.338 110.819 346.493 100.907 347.343 90.8427C348.692 74.7382 349.13 58.5704 348.656 42.4165C342.88 39.6338 332.991 42.112 326.392 43.7672L325.296 44.041C325.006 44.1137 324.716 44.1915 324.428 44.2745" fill="black"/>
<path d="M242.05 84.8061C244.339 97.9164 243.28 111.4 244.806 124.615C246.332 137.829 250.918 151.405 262.263 160.261C272.25 168.055 287.024 171.267 300.66 168.603C314.295 165.939 326.439 157.482 332.225 146.602C337.661 136.377 336.377 115.662 336.137 105.247C342.371 105.447 348.94 102.727 352.134 98.0653C353.724 95.8423 354.373 93.082 353.94 90.3833C353.508 87.6846 352.029 85.2653 349.824 83.6504C345.129 80.3227 339.664 80.3766 334.202 86.8463C333.599 78.3142 331.14 70.2098 330.029 66.4818C327.016 56.3611 324.965 41.0506 317.236 37.5202C312.861 35.5202 304.005 34.3825 299.041 33.7127C290.465 32.5561 279.537 39.2217 270.833 40.2507C262.129 41.2798 253.724 46.5074 247.235 51.6973C239.471 57.9035 240.346 74.9968 242.058 84.8026" fill="white"/>
<path d="M305.165 168.391C303.739 168.805 302.293 169.155 300.825 169.442C286.917 172.156 271.938 168.897 261.736 160.933C251.819 153.192 245.837 141.001 243.956 124.713C243.288 118.92 243.111 112.993 242.94 107.269C242.718 99.9061 242.489 92.2902 241.209 84.9523C240.454 80.6229 237.17 58.6425 246.695 51.0266C255.257 44.1831 263.342 40.2738 270.728 39.4004C274.204 38.9889 278.018 37.6638 282.056 36.2626C287.873 34.2421 293.886 32.1565 299.151 32.864L299.695 32.9367C304.767 33.6211 313.252 34.7588 317.586 36.74C324.081 39.7083 326.715 50.1925 329.04 59.4423C329.648 61.8615 330.222 64.1472 330.844 66.2354L330.917 66.4834C332.807 72.4632 334.133 78.6066 334.88 84.8334C339.735 79.9822 345.161 79.2995 350.313 82.9514C352.713 84.6875 354.326 87.3046 354.798 90.2284C355.271 93.1523 354.564 96.1442 352.833 98.5477C349.739 103.071 343.465 106.044 337.014 106.109C337.037 106.934 337.062 107.812 337.091 108.737C337.437 120.242 337.963 137.629 332.978 147.002C327.686 156.953 317.267 164.881 305.165 168.388M242.894 84.658C244.197 92.1174 244.426 99.7932 244.647 107.217C244.819 112.91 244.996 118.794 245.656 124.517C247.481 140.337 253.246 152.136 262.791 159.585C272.613 167.253 287.062 170.386 300.497 167.763C313.932 165.141 325.791 156.879 331.469 146.201C336.239 137.226 335.701 119.425 335.381 108.789C335.341 107.519 335.306 106.338 335.281 105.265C335.279 105.149 335.3 105.033 335.344 104.925C335.389 104.817 335.454 104.719 335.537 104.637C335.62 104.555 335.718 104.491 335.826 104.449C335.934 104.406 336.05 104.387 336.166 104.39C342.368 104.59 348.501 101.854 351.426 97.5802C352.9 95.5459 353.506 93.0101 353.113 90.5291C352.719 88.0482 351.357 85.8247 349.326 84.3466C344.385 80.8453 339.514 81.8727 334.85 87.3945C334.741 87.524 334.595 87.6179 334.431 87.6643C334.268 87.7106 334.095 87.7073 333.933 87.6547C333.772 87.6021 333.63 87.5027 333.525 87.3691C333.42 87.2355 333.357 87.0737 333.345 86.9044C332.761 78.6546 330.41 70.7649 329.281 66.9727L329.205 66.7221C328.575 64.6032 327.995 62.2986 327.383 59.8581C325.152 50.9838 322.625 40.9213 316.876 38.2951C312.77 36.4183 304.444 35.3011 299.47 34.6313L298.923 34.5586C294.065 33.9033 288.247 35.9273 282.618 37.8777C278.671 39.2464 274.589 40.6647 270.93 41.0967C263.866 41.9342 256.073 45.7229 247.765 52.3611C240.962 57.7991 240.889 73.1575 242.895 84.6563" fill="black"/>
<path d="M279.529 58.2833C279.273 64.3022 271.741 74.0781 266.194 75.6581C260.647 77.2381 258.063 75.0071 254.825 69.9823C250.598 75.3245 247.646 80.5332 242.874 83.3886C235.582 87.7556 225.036 84.5743 220.979 76.7838C216.923 68.9934 220.138 58.0934 227.652 54.1567C222.535 56.3886 216.234 51.9189 215.109 46.2012C213.984 40.4835 217.077 34.5861 221.562 31.1917C226.047 27.7974 231.682 26.4945 237.077 24.7118C234.004 19.5262 235.457 12.3679 239.432 7.98635C243.407 3.60482 249.349 1.67581 255.143 1.3593C258.95 1.15485 262.904 1.60995 266.276 3.51585C268.045 4.51736 269.563 5.90806 270.716 7.58274C271.868 9.25741 272.624 11.1722 272.927 13.1823C276.774 6.04794 284.028 0.418325 291.897 0.881115C299.765 1.34391 307.1 9.57148 308.8 15.8264C311.671 10.6579 315.814 6.09157 321.522 5.39011C332.853 3.99746 337.085 13.1019 334.217 26.2952C339.669 22.2849 349.032 23.2747 353.416 31.4638C356.679 37.5613 356.14 48.2859 352.539 54.1516C348.938 60.0173 333.824 67.1636 321.302 61.185C314.344 57.8633 310.353 52.3543 307.547 47.0121C305.265 53.2517 303.549 57.5716 295.796 61.7419C290.138 64.7838 282.571 63.6606 279.529 58.2825" fill="black"/>
<path d="M339.988 63.0909C334.147 64.7821 327.264 64.978 320.933 61.9549C314.069 58.6777 310.135 53.3458 307.697 49.0703C305.737 54.2688 303.591 58.5169 296.201 62.4912C290.596 65.5075 283.712 64.5058 280.05 60.4562C278.471 66.6897 271.693 74.9549 266.458 76.4699L266.426 76.4784C260.831 78.073 257.879 75.9883 254.766 71.4433C253.996 72.4476 253.261 73.4434 252.547 74.4143C249.717 78.2577 247.044 81.8882 243.309 84.1217C241.423 85.198 239.338 85.8795 237.181 86.125C235.024 86.3704 232.839 86.1746 230.76 85.5495C228.527 84.9424 226.441 83.8872 224.628 82.448C222.816 81.0088 221.315 79.2158 220.218 77.1782C216.523 70.0849 218.473 60.7256 224.153 55.5716C222.837 55.4569 221.558 55.0754 220.395 54.4501C218.845 53.6328 217.493 52.4857 216.435 51.0894C215.376 49.6932 214.636 48.0818 214.268 46.3689C212.998 39.918 216.756 33.7555 221.044 30.5117C224.818 27.6537 229.388 26.2302 233.808 24.8547C234.487 24.6417 235.168 24.427 235.846 24.214C233.404 19.0813 234.587 12.054 238.798 7.41322C242.504 3.32595 248.293 0.875132 255.096 0.507295C259.695 0.26093 263.596 1.02056 266.696 2.77249C269.839 4.55024 272.192 7.45145 273.283 10.8931C277.817 3.8221 284.946 -0.390056 291.942 0.0291073C299.299 0.465379 306.392 7.28148 309.003 13.7819C312.471 8.23529 316.634 5.12493 321.407 4.54324C326.104 3.96496 329.921 5.12579 332.448 7.89568C335.636 11.3764 336.672 17.2499 335.423 24.5501C338.249 23.1645 341.465 22.7915 344.533 23.4937C346.592 23.9774 348.521 24.9043 350.186 26.2099C351.85 27.5155 353.21 29.1683 354.17 31.0531C357.531 37.3346 357.111 48.3329 353.265 54.593C351.341 57.7265 346.264 61.2654 339.988 63.0875M307.307 46.1926C307.367 46.1757 307.429 46.1651 307.491 46.161C307.656 46.1507 307.821 46.1882 307.965 46.2689C308.11 46.3496 308.228 46.4701 308.305 46.6161C310.53 50.8642 314.339 56.9138 321.672 60.4151C333.496 66.061 348.289 59.4339 351.807 53.7033C355.314 47.9942 355.721 37.5852 352.662 31.8667C351.817 30.1992 350.618 28.7362 349.149 27.5793C347.68 26.4224 345.977 25.5994 344.158 25.1678C342.546 24.7868 340.872 24.7517 339.246 25.0647C337.62 25.3778 336.079 26.0318 334.724 26.9838C334.584 27.0875 334.416 27.146 334.242 27.1515C334.067 27.157 333.896 27.1092 333.75 27.0145C333.603 26.9198 333.49 26.7828 333.423 26.6217C333.357 26.4606 333.342 26.2831 333.379 26.113C335.039 18.4748 334.262 12.4124 331.193 9.0471C329.024 6.66899 325.804 5.72545 321.624 6.23956C316.979 6.80928 312.916 10.1746 309.547 16.2413C309.464 16.3903 309.339 16.5113 309.188 16.5888C309.036 16.6663 308.865 16.6968 308.696 16.6764C308.527 16.656 308.368 16.5856 308.239 16.4743C308.11 16.363 308.017 16.2157 307.973 16.0514C306.433 10.3816 299.549 2.19336 291.844 1.73484C284.915 1.32595 277.783 5.97865 273.68 13.5946C273.595 13.7537 273.461 13.8818 273.299 13.9606C273.137 14.0393 272.953 14.0646 272.776 14.0329C272.598 14.0012 272.435 13.9141 272.31 13.784C272.184 13.654 272.104 13.4877 272.079 13.3089C271.789 11.4299 271.08 9.64043 270.002 8.07418C268.924 6.50792 267.507 5.20529 265.855 4.26351C263.044 2.67668 259.457 1.98805 255.192 2.21731C248.839 2.55948 243.465 4.81441 240.062 8.56549C236.075 12.9599 235.107 19.7152 237.812 24.279C237.877 24.389 237.916 24.5123 237.928 24.6396C237.939 24.767 237.921 24.8953 237.877 25.015C237.832 25.1348 237.76 25.2429 237.668 25.3315C237.576 25.4201 237.465 25.487 237.344 25.527C236.339 25.859 235.327 26.1746 234.316 26.4894C229.842 27.8838 225.613 29.2011 222.077 31.8786C218.21 34.8017 214.816 40.3149 215.946 46.0412C216.262 47.5042 216.895 48.8801 217.801 50.0722C218.706 51.2643 219.861 52.2436 221.185 52.9412C222.106 53.473 223.136 53.7885 224.197 53.8638C225.258 53.9391 226.322 53.7722 227.309 53.3757C227.511 53.2929 227.737 53.2903 227.94 53.3686C228.144 53.4469 228.31 53.6002 228.405 53.7969C228.499 53.9937 228.515 54.2192 228.448 54.4271C228.382 54.635 228.239 54.8098 228.048 54.9155C220.981 58.617 217.914 69.055 221.733 76.3869C222.723 78.2182 224.076 79.829 225.708 81.1213C227.34 82.4136 229.219 83.3606 231.228 83.9045C233.083 84.4658 235.033 84.6444 236.96 84.4294C238.886 84.2144 240.749 83.6103 242.434 82.6538C245.872 80.5956 248.328 77.2646 251.171 73.4014C252.116 72.1183 253.094 70.7898 254.152 69.4493C254.237 69.3422 254.346 69.2568 254.47 69.2003C254.594 69.1438 254.73 69.1179 254.866 69.1247C255.003 69.1315 255.135 69.1707 255.253 69.2393C255.371 69.3078 255.471 69.4036 255.545 69.5186C258.662 74.3578 260.908 76.2766 265.958 74.8334L265.985 74.8274C271.217 73.3116 278.442 63.8779 278.676 58.2457C278.683 58.0599 278.75 57.8815 278.868 57.7378C278.986 57.5941 279.148 57.4931 279.329 57.4502C279.51 57.4067 279.7 57.423 279.871 57.4967C280.042 57.5704 280.185 57.6976 280.277 57.8591C283.193 63.0242 290.457 63.6461 295.391 60.9865C303.029 56.8804 304.587 52.6169 306.745 46.7179C306.791 46.5919 306.866 46.4784 306.964 46.3867C307.062 46.295 307.18 46.2277 307.309 46.1901" fill="black"/>
<path d="M257.558 101.616C257.346 101.023 257.318 100.38 257.476 99.7699C257.634 99.1601 257.972 98.6119 258.445 98.1958C258.918 97.7798 259.504 97.5152 260.129 97.4362C260.754 97.3572 261.388 97.4675 261.95 97.7527C262.512 98.0379 262.975 98.485 263.28 99.0362C263.585 99.5874 263.717 100.217 263.66 100.845C263.603 101.472 263.36 102.068 262.961 102.555C262.561 103.042 262.025 103.399 261.422 103.578C260.649 103.83 259.808 103.765 259.084 103.397C258.359 103.029 257.81 102.389 257.558 101.616Z" fill="black"/>
<path d="M301.107 96.2672C300.896 95.6738 300.867 95.0307 301.025 94.421C301.184 93.8113 301.521 93.263 301.994 92.847C302.467 92.431 303.054 92.1664 303.679 92.0874C304.304 92.0084 304.938 92.1186 305.499 92.4038C306.061 92.689 306.524 93.1361 306.829 93.6873C307.134 94.2385 307.266 94.8685 307.21 95.4958C307.153 96.1231 306.909 96.7189 306.51 97.2063C306.111 97.6936 305.575 98.0501 304.971 98.2296C304.198 98.4814 303.357 98.4161 302.633 98.0482C301.908 97.6802 301.359 97.0396 301.107 96.2672Z" fill="black"/>
<path d="M298.919 148.61C297.077 149.149 295.152 149.347 293.239 149.194C293.123 149.19 293.01 149.162 292.905 149.112C292.801 149.063 292.707 148.993 292.63 148.906C292.554 148.82 292.495 148.719 292.459 148.609C292.422 148.499 292.409 148.383 292.418 148.268C292.428 148.153 292.461 148.041 292.515 147.938C292.569 147.836 292.643 147.746 292.733 147.674C292.823 147.601 292.927 147.547 293.038 147.516C293.15 147.484 293.266 147.476 293.381 147.491C296.078 147.683 298.776 147.126 301.176 145.882C303.576 144.637 305.586 142.752 306.982 140.437C307.037 140.336 307.111 140.247 307.201 140.175C307.291 140.103 307.394 140.051 307.505 140.02C307.616 139.989 307.731 139.981 307.845 139.995C307.959 140.01 308.069 140.048 308.168 140.106C308.267 140.165 308.353 140.242 308.422 140.334C308.49 140.427 308.539 140.532 308.566 140.644C308.593 140.755 308.597 140.871 308.578 140.985C308.559 141.098 308.518 141.206 308.456 141.303C306.318 144.858 302.911 147.469 298.922 148.61" fill="black"/>
<path d="M288.517 133.726C285.853 134.434 283.064 134.529 280.358 134.004C278.969 133.847 277.643 133.334 276.509 132.515C275.741 131.828 275.142 130.972 274.761 130.014C274.379 129.056 274.224 128.023 274.309 126.996C274.425 125.381 274.745 123.787 275.261 122.253L275.464 121.551C277.836 113.183 278.262 104.383 276.711 95.8247C276.676 95.604 276.728 95.3782 276.857 95.1958C276.987 95.0134 277.182 94.8888 277.402 94.8486C277.622 94.8085 277.849 94.856 278.034 94.9811C278.219 95.1061 278.348 95.2987 278.393 95.5176C279.993 104.334 279.554 113.4 277.11 122.022L276.906 122.733C276.431 124.129 276.133 125.578 276.02 127.048C275.952 127.811 276.057 128.58 276.329 129.296C276.6 130.012 277.031 130.657 277.588 131.183C278.496 131.809 279.545 132.199 280.642 132.317C283.279 132.84 286.006 132.701 288.577 131.912C289.81 131.521 290.951 130.884 291.931 130.039C292.91 129.194 293.708 128.159 294.275 126.996C294.374 126.8 294.543 126.649 294.749 126.575C294.955 126.5 295.182 126.508 295.383 126.596C295.584 126.683 295.743 126.845 295.828 127.047C295.913 127.248 295.918 127.475 295.841 127.68C295.185 129.065 294.25 130.298 293.095 131.305C291.941 132.311 290.59 133.068 289.129 133.528C288.926 133.597 288.72 133.661 288.513 133.722" fill="black"/>
<path d="M339.566 51.1525C339.373 51.208 339.166 51.1934 338.982 51.1114C338.798 51.0294 338.649 50.8851 338.561 50.7041C338.473 50.523 338.452 50.3167 338.501 50.1214C338.55 49.9262 338.667 49.7546 338.83 49.6367C341.077 47.9532 342.764 45.6326 343.674 42.9767C344.584 40.3208 344.673 37.4526 343.93 34.7453C343.866 34.5277 343.891 34.2936 343.999 34.0943C344.108 33.8951 344.291 33.7471 344.508 33.6828C344.726 33.62 344.959 33.6458 345.157 33.7545C345.355 33.8631 345.503 34.0459 345.566 34.2628C346.403 37.3097 346.303 40.5379 345.279 43.527C344.255 46.5162 342.355 49.1277 339.826 51.0216C339.747 51.079 339.658 51.1227 339.565 51.1508" fill="black"/>
<g opacity="0.129">
<mask id="mask5_0_66" style="mask-type:luminance" maskUnits="userSpaceOnUse" x="243" y="47" width="67" height="41">
<path d="M309.896 47.4885H243.138V87.3321H309.896V47.4885Z" fill="white"/>
</mask>
<g mask="url(#mask5_0_66)">
<path d="M307.205 47.5655C306.645 48.5672 306.048 49.5467 305.426 50.5108C305.384 50.7109 305.303 51.024 305.104 51.7298C304.769 52.7055 304.374 53.66 303.923 54.5878C302.454 57.2448 300.512 59.6108 298.192 61.569C297.925 61.23 297.543 61.0006 297.119 60.924C296.695 60.8474 296.257 60.9289 295.889 61.1532C295.764 61.2225 295.632 61.285 295.502 61.3474C295.441 61.3705 295.37 61.3953 295.275 61.4329C293.732 61.9511 292.159 62.3702 290.563 62.6879L291.083 62.6109C289.425 62.8143 287.749 62.8143 286.092 62.6109C285.977 62.5938 285.749 62.5647 285.541 62.5356C285.122 62.4334 284.682 62.4685 284.286 62.6357C284.182 62.6132 284.077 62.5972 283.971 62.5878C283.95 62.5587 283.919 62.5168 283.862 62.4458C283.845 62.4124 283.826 62.3808 283.81 62.3474C283.812 62.1644 283.798 61.9816 283.771 61.8008C283.701 61.4714 283.562 61.1607 283.362 60.8895C283.163 60.6183 282.908 60.3928 282.614 60.228C282.32 60.0632 281.995 59.963 281.66 59.934C281.324 59.905 280.986 59.948 280.669 60.06C279.364 60.4458 278.849 61.9419 279.022 63.2182C278.859 63.6869 278.673 64.1468 278.463 64.5963C277.529 66.285 276.423 67.8821 275.328 69.4723C275.119 69.7794 274.509 70.5536 274.416 70.6982C274.365 70.7606 274.316 70.8213 274.265 70.8821C272.982 72.3936 270.301 74.9882 267.593 76.072L267.553 76.0865C266.902 76.2766 266.233 76.4047 265.558 76.4689C265.374 76.4689 265.142 76.4689 264.937 76.4458C264.837 76.421 264.735 76.4022 264.639 76.3705C264.397 76.285 264.161 76.1935 263.927 76.0908L263.742 75.9882C263.656 75.936 263.57 75.8778 263.485 75.8231C262.728 75.8899 261.966 75.7679 261.268 75.4681C260.522 75.3415 259.823 75.0194 259.243 74.5348C258.923 74.2603 258.634 73.9507 258.383 73.6118C258.347 73.5656 258.312 73.516 258.275 73.4681C258.226 73.4316 258.18 73.3925 258.137 73.3509C258.014 73.232 257.89 73.1131 257.769 72.9941C256.951 72.1958 256.233 71.3013 255.63 70.3303L255.57 70.3389C255.151 70.4326 254.762 70.6307 254.44 70.9149C254.118 71.1991 253.874 71.56 253.729 71.9642C253.639 72.3316 253.521 72.6916 253.376 73.0412C253.334 73.1413 253.291 73.2371 253.243 73.3355C253.228 73.3646 253.197 73.421 253.143 73.5399L253.151 73.5296L253.109 73.6152C252.556 74.3586 252.151 75.2166 251.563 75.9386C251.335 76.2226 251.091 76.4963 250.851 76.7692C250.786 76.8419 250.709 76.9274 250.632 77.0173C250.6 77.0506 250.57 77.0865 250.532 77.1276C249.293 78.4934 247.936 79.7467 246.475 80.8727C245.505 81.7743 244.064 82.309 243.448 83.5177C242.1 86.031 245.431 88.5844 247.554 86.6743C250.688 84.4855 253.407 81.7563 255.583 78.6144C255.934 78.0925 256.262 77.5562 256.56 77.0027C258.288 78.9016 260.396 80.4169 262.746 81.451C266.303 82.6597 270.194 81.3073 273.097 79.1362C275.088 77.6819 276.841 75.9277 278.295 73.936C279.698 72.1018 280.916 70.1333 281.932 68.0591C282.994 69.0924 284.245 69.9124 285.616 70.4749C287.532 71.1994 289.628 71.298 291.604 70.7563C291.518 70.7854 291.427 70.8188 291.358 70.8419C291.553 70.8025 291.748 70.7563 291.942 70.7084C294.389 69.9652 296.686 68.7949 298.726 67.2516C301.799 65.1215 304.433 62.4207 306.486 59.2961C307.754 57.3108 308.679 55.1267 309.223 52.835C309.309 52.261 309.257 52.7683 309.175 53.0685C309.426 52.2131 309.603 51.3354 309.768 50.4594C309.938 49.9566 309.935 49.4118 309.762 48.9102C309.599 48.3953 309.239 47.9659 308.76 47.716C308.281 47.466 307.723 47.4159 307.207 47.5766" fill="black"/>
</g>
</g>
<g opacity="0.129">
<mask id="mask6_0_66" style="mask-type:luminance" maskUnits="userSpaceOnUse" x="328" y="59" width="22" height="18">
<path d="M349.543 59.0479H328.909V76.2934H349.543V59.0479Z" fill="white"/>
</mask>
<g mask="url(#mask6_0_66)">
<path d="M349.04 59.722C347.904 58.409 346.37 59.3089 345.125 59.941C343.277 60.8512 341.318 61.5005 339.451 62.3645C338.1 63.0602 336.712 63.6811 335.293 64.2242L335.332 64.2097C334.887 64.3679 334.541 64.4979 335.332 64.2182C334.58 64.521 333.748 64.663 333.022 65.0138C332.761 64.6839 332.411 64.4367 332.012 64.302C331.575 64.162 331.107 64.1529 330.665 64.2759C330.222 64.3989 329.826 64.6486 329.524 64.9942C329.222 65.3399 329.028 65.7663 328.966 66.2209C328.903 66.6755 328.975 67.1385 329.173 67.5527C329.936 68.8904 330.608 70.2783 331.183 71.7067C331.709 73.8821 332.701 77.3038 335.615 76.0027C336.157 75.6981 336.584 75.2254 336.832 74.6562C336.795 74.8504 337.909 73.2738 338.221 72.9676C339.436 71.4603 341.847 69.0283 344.221 66.6109C345.465 65.4038 346.753 64.2413 348.099 63.1498C348.206 63.0728 348.317 62.9992 348.427 62.9239C348.519 62.8615 348.661 62.7657 348.803 62.6613C349.014 62.4852 349.187 62.2688 349.314 62.0248C349.441 61.7809 349.517 61.5141 349.54 61.2402C349.562 60.9663 349.53 60.6906 349.445 60.4293C349.36 60.1679 349.224 59.926 349.045 59.7178" fill="black"/>
</g>
</g>
<g opacity="0.129">
<mask id="mask7_0_66" style="mask-type:luminance" maskUnits="userSpaceOnUse" x="282" y="152" width="58" height="37">
<path d="M339.345 152.44H282.289V188.543H339.345V152.44Z" fill="white"/>
</mask>
<g mask="url(#mask7_0_66)">
<path d="M338.569 184.278C337.824 182.087 337.072 179.893 336.446 177.661C335.059 172.98 333.833 168.262 332.767 163.507C331.446 160.027 330.189 156.52 329.185 152.931C329.17 152.876 329.157 152.82 329.148 152.764C329.119 152.561 329.157 152.466 329.138 152.449C328.916 152.222 324.915 156.086 324.915 156.086C322.65 158.203 320.274 160.197 317.796 162.058C314.144 164.707 310.028 166.648 305.662 167.78C300.059 169.392 294.22 170.025 288.402 169.653C285.87 169.567 283.763 169.353 282.287 169.16C282.586 169.797 282.968 170.392 283.423 170.928C285.371 173.217 288.139 173.521 290.559 174.321C293.331 175.238 296.102 176.15 298.873 177.059C304.487 178.899 310.104 180.737 315.739 182.514C318.362 183.345 320.996 184.152 323.638 184.935C326.18 185.731 328.806 186.23 331.463 186.424L330.728 186.392C330.957 186.43 331.185 186.463 331.417 186.491C331.726 186.511 332.034 186.547 332.34 186.599C333.054 186.908 333.77 187.209 334.498 187.489C335.173 187.734 335.864 187.932 336.566 188.082C336.827 188.33 337.161 188.488 337.519 188.532C337.877 188.575 338.239 188.501 338.552 188.322C340.122 187.377 338.932 185.577 338.566 184.277" fill="black"/>
</g>
</g>
<g opacity="0.129">
<mask id="mask8_0_66" style="mask-type:luminance" maskUnits="userSpaceOnUse" x="306" y="239" width="11" height="10">
<path d="M316.18 239.963H306.725V248.868H316.18V239.963Z" fill="white"/>
</mask>
<g mask="url(#mask8_0_66)">
<path d="M312.029 241.89C311.347 241.153 310.473 240.619 309.506 240.35C306.884 239.901 305.631 243.601 307.929 244.916C309.038 245.632 310.087 246.437 311.065 247.324C311.675 247.967 312.232 248.812 313.213 248.83C313.577 248.872 313.947 248.83 314.293 248.708C314.639 248.586 314.952 248.387 315.21 248.126C315.467 247.865 315.662 247.548 315.779 247.201C315.896 246.853 315.933 246.483 315.885 246.12C316.029 243.981 315.729 243.686 316.119 242.527C316.722 239.533 312.487 238.954 312.027 241.888" fill="black"/>
</g>
</g>
<g opacity="0.129">
<mask id="mask9_0_66" style="mask-type:luminance" maskUnits="userSpaceOnUse" x="317" y="229" width="17" height="16">
<path d="M333.306 229.957H317.258V244.947H333.306V229.957Z" fill="white"/>
</mask>
<g mask="url(#mask9_0_66)">
<path d="M332.235 240.767C331.621 239.758 330.358 239.22 329.566 238.345C327.896 236.875 326.372 235.246 325.016 233.481C324.559 232.869 324.082 232.271 323.679 231.621C323.536 231.257 323.316 230.927 323.033 230.656C322.751 230.384 322.413 230.176 322.043 230.047C321.63 229.942 321.195 229.961 320.792 230.1C320.389 230.24 320.036 230.494 319.777 230.832C319.517 231.17 319.362 231.577 319.331 232.002C319.3 232.427 319.394 232.852 319.602 233.225C319.834 233.585 320.081 233.941 320.324 234.293C320.138 234.199 319.934 234.146 319.726 234.138C317.398 233.737 316.285 237.028 318.327 238.19C320.772 239.543 323.141 241.013 325.508 242.497C327.161 243.507 328.928 244.318 330.771 244.913C333.151 245.32 334.293 241.974 332.232 240.767" fill="black"/>
</g>
</g>
<g opacity="0.129">
<mask id="mask10_0_66" style="mask-type:luminance" maskUnits="userSpaceOnUse" x="285" y="229" width="18" height="14">
<path d="M302.84 229.387H285.231V242.137H302.84V229.387Z" fill="white"/>
</mask>
<g mask="url(#mask10_0_66)">
<path d="M302.537 234.537C301.969 233.489 301.475 232.41 300.826 231.404C300.518 230.878 300.346 230.215 299.795 229.886C299.517 229.669 299.192 229.521 298.845 229.455C298.499 229.388 298.142 229.405 297.804 229.503C297.465 229.602 297.155 229.779 296.899 230.021C296.642 230.263 296.447 230.562 296.329 230.895C296.256 230.903 296.183 230.916 296.11 230.932C295.187 231.173 294.626 232.003 293.991 232.648C293.452 233.097 293.071 233.706 292.904 234.387L292.885 234.425C292.724 234.685 292.61 234.971 292.549 235.27C291.618 235.625 290.7 236.024 289.794 236.456C288.425 237.13 286.752 237.51 285.708 238.666C285.411 239.061 285.258 239.547 285.276 240.041C285.295 240.535 285.483 241.008 285.809 241.38C286.136 241.751 286.58 241.999 287.068 242.081C287.555 242.164 288.057 242.075 288.487 241.831C290.415 240.907 292.389 240.083 294.403 239.363C295.972 238.905 297.564 238.53 299.173 238.239C299.542 238.141 299.889 237.971 300.193 237.74C300.604 237.831 301.033 237.8 301.427 237.651C301.821 237.503 302.163 237.243 302.412 236.903C302.66 236.563 302.805 236.158 302.827 235.738C302.85 235.318 302.749 234.9 302.538 234.535" fill="black"/>
</g>
</g>
<g opacity="0.129">
<mask id="mask11_0_66" style="mask-type:luminance" maskUnits="userSpaceOnUse" x="316" y="365" width="15" height="48">
<path d="M330.312 365.614H316.985V412.464H330.312V365.614Z" fill="white"/>
</mask>
<g mask="url(#mask11_0_66)">
<path d="M329.596 379.707C329.467 377.278 328.983 374.88 328.16 372.591C327.621 370.984 326.913 369.439 326.047 367.982C325.477 367.053 324.899 365.992 323.753 365.727C323.214 365.588 322.647 365.61 322.121 365.791C321.595 365.972 321.134 366.304 320.795 366.745C320.456 367.186 320.254 367.716 320.214 368.271C320.174 368.826 320.299 369.38 320.572 369.865L320.586 369.89C320.296 370.687 319.678 371.468 319.816 372.334C319.855 372.627 319.964 372.906 320.135 373.146C320.306 373.387 320.533 373.582 320.796 373.715C321.059 373.848 321.351 373.915 321.646 373.909C321.941 373.904 322.23 373.826 322.489 373.683C322.971 375.147 323.355 376.64 323.637 378.155C323.998 381.697 324.37 385.246 324.376 388.812C324.322 391.286 324.344 393.773 324.115 396.234C323.705 398.924 323.109 401.582 322.329 404.189C322.271 404.098 322.219 404.001 322.158 403.911C321.653 403.312 321.252 402.504 320.459 402.262C317.998 401.126 315.8 404.441 317.722 406.324C317.879 406.495 318.087 406.736 318.229 406.904C318.273 406.969 318.315 407.036 318.357 407.104C318.365 407.138 318.38 407.171 318.386 407.205C318.4 407.477 318.39 407.75 318.354 408.021L318.36 407.981V408.052C318.327 408.234 318.308 408.418 318.304 408.603C318.241 409.094 318.333 409.591 318.567 410.027C318.761 410.381 319.063 410.665 319.43 410.836C319.624 411.403 320.025 411.877 320.552 412.162C321.08 412.448 321.696 412.524 322.277 412.376C323.264 412.134 323.731 411.157 324.436 410.513C325.721 409.138 326.823 407.602 327.713 405.944C329.304 402.411 330.184 398.6 330.304 394.727C330.372 389.709 330.135 384.692 329.594 379.702" fill="black"/>
</g>
</g>
<g opacity="0.129">
<mask id="mask12_0_66" style="mask-type:luminance" maskUnits="userSpaceOnUse" x="545" y="263" width="17" height="47">
<path d="M561.23 263.431H545.909V309.519H561.23V263.431Z" fill="white"/>
</mask>
<g mask="url(#mask12_0_66)">
<path d="M561.167 266.287C560.791 262.732 555.606 262.396 554.672 265.845C553.271 271.252 552.47 276.803 551.027 282.204C549.744 287.264 548.375 292.304 547.349 297.422C547.082 299.176 546.813 300.925 546.685 302.693C546.662 302.821 546.639 302.95 546.614 303.075C546.476 303.788 546.301 304.494 546.09 305.188L546.075 305.235C546.065 305.272 546.056 305.307 546.046 305.343L546.055 305.323C545.813 306.089 545.864 306.918 546.196 307.65C546.528 308.381 547.118 308.965 547.854 309.288C548.589 309.611 549.418 309.652 550.182 309.401C550.946 309.151 551.59 308.628 551.991 307.932C551.983 307.932 551.968 307.945 551.952 307.961C552.584 306.701 552.991 305.34 553.157 303.94C554.142 300.168 554.503 296.266 555.423 292.477C557.002 285.553 558.707 278.655 560.128 271.696C560.352 270.619 560.55 269.533 560.857 268.472C561.151 267.785 561.256 267.032 561.162 266.291" fill="black"/>
</g>
</g>
<g opacity="0.129">
<mask id="mask13_0_66" style="mask-type:luminance" maskUnits="userSpaceOnUse" x="322" y="277" width="204" height="152">
<path d="M525.429 277.18H322.463V428.403H525.429V277.18Z" fill="white"/>
</mask>
<g mask="url(#mask13_0_66)">
<path d="M522.146 416.682C521.048 413.981 520.275 411.163 519.365 408.395C518.177 404.919 516.789 401.516 515.587 398.044C513.913 393.38 512.752 389.516 511.535 385.705C504.113 368.461 497.034 351.071 490.105 333.623C482.682 314.924 475.615 296.088 468.749 277.179C468.377 277.373 468.083 277.69 467.917 278.076C467.752 278.461 467.725 278.893 467.841 279.296C471.145 289.972 475.644 300.23 479.408 310.75C483.883 324.398 488.013 338.178 491.31 352.166C492.043 355.051 492.889 357.905 493.743 360.756C493.318 360.694 492.884 360.739 492.48 360.885C492.076 361.032 491.714 361.276 491.427 361.596C491.14 361.916 490.937 362.302 490.835 362.719C490.733 363.137 490.736 363.573 490.843 363.989C492.942 375.231 494.712 382.971 495.008 393.775C495.059 395.459 495.085 397.144 495.102 398.827C494.82 398.938 494.556 399.092 494.32 399.284C494.054 399.458 493.825 399.682 493.646 399.943C494.067 398.242 494.454 396.534 494.807 394.818C494.526 394.792 494.243 394.827 493.978 394.922C493.713 395.017 493.472 395.169 493.272 395.368C492.723 395.866 492.723 396.622 492.558 397.292C491.929 399.521 492.052 399.436 491.055 400.971C491.03 401.007 491.004 401.037 490.978 401.073C490.911 401.159 490.83 401.257 490.741 401.357C487.749 404.586 484.467 407.534 480.936 410.163C475.249 414.217 471.882 415.518 465.635 417.551C463.738 418.165 461.83 418.749 459.904 419.262C455.84 419.313 451.75 419.613 447.689 419.498C441.178 419.327 434.7 418.588 428.203 418.171C418.748 417.839 408.191 417.672 400.994 416.275C394.781 414.729 388.37 414.741 382.036 414.081C376.356 413.559 374.381 413.2 369.325 412.574C365.723 412.181 360.433 411.701 359.129 411.43C353.83 410.545 343.319 408.607 341.392 408.474C338.038 407.934 334.651 407.624 331.254 407.545C330.244 407.624 329.154 407.288 328.211 407.716C327.822 407.862 327.48 408.111 327.222 408.436C326.963 408.762 326.799 409.151 326.745 409.563C326.094 409.526 325.441 409.487 324.787 409.446C324.473 409.432 324.161 409.502 323.883 409.649C321.535 410.546 322.28 414.168 324.787 414.142C329.784 414.336 334.768 414.788 339.718 415.497C342.532 415.931 345.353 416.346 348.187 416.643C349.42 416.649 350.767 417.198 351.951 416.739C352.397 416.574 352.773 416.259 353.013 415.847C353.51 415.956 354.007 416.064 354.503 416.171C362.668 417.904 369.233 418.119 375.876 419.165C382.362 419.983 388.879 420.498 395.387 421.055C396.855 421.315 403.032 422.353 407.472 422.66C407.592 423.121 407.863 423.529 408.242 423.817C408.622 424.105 409.087 424.257 409.563 424.249C412.918 424.505 416.252 424.944 419.598 425.275C420.523 426.96 422.062 426.461 424.026 426.874C428.316 427.331 432.631 427.231 436.938 427.361C441.38 427.523 445.818 427.874 450.267 427.795C454.037 427.76 457.787 427.307 461.536 426.933C464.697 426.666 467.96 426.626 470.96 425.514C470.943 425.85 470.994 426.187 471.111 426.502C471.228 426.818 471.408 427.107 471.64 427.351C471.872 427.596 472.151 427.79 472.461 427.923C472.77 428.056 473.103 428.125 473.44 428.126C474.336 428.167 475.478 428.144 476.724 428.079C476.749 428.19 476.794 428.292 476.829 428.398C478.254 428.252 479.682 428.115 481.11 427.985C489.855 427.198 498.588 426.816 507.366 426.777C507.52 426.611 507.661 426.434 507.786 426.246C508.16 426.253 508.532 426.193 508.884 426.069C509.154 426.379 509.495 426.618 509.878 426.766C513.686 426.752 517.492 426.727 521.295 426.591C522.287 426.556 523.277 426.513 524.266 426.463C524.637 426.222 524.94 425.888 525.144 425.495C525.347 425.102 525.446 424.662 525.428 424.22C525.257 422.725 524.402 421.386 523.771 420.043C523.194 418.938 522.642 417.818 522.145 416.679M482.99 419.314C481.235 421.395 481.067 421.637 479.767 423.043C479.045 423.072 478.322 423.095 477.6 423.108C477.068 423.149 476.533 423.155 475.999 423.125C479.244 421.147 482.236 418.779 484.907 416.075C485.32 415.714 485.731 415.337 486.14 414.943C485.12 416.421 484.061 417.874 482.99 419.315M509.149 397.385C509.032 396.324 508.913 395.263 508.794 394.201C508.969 394.75 509.143 395.301 509.324 395.848C509.545 396.533 509.773 397.217 510.008 397.901C509.753 397.681 509.462 397.507 509.146 397.388M517.338 422.385C518.005 422.186 518.574 421.747 518.937 421.153C519.145 421.57 519.358 421.99 519.59 422.428C518.786 422.405 518.045 422.392 517.338 422.385Z" fill="black"/>
</g>
</g>
<path d="M304.583 272.638C304.513 272.637 304.447 272.61 304.397 272.561C304.372 272.537 304.352 272.509 304.339 272.477C304.325 272.445 304.318 272.411 304.318 272.376C304.318 272.342 304.325 272.308 304.339 272.276C304.352 272.244 304.372 272.216 304.397 272.192L315.409 261.328C315.433 261.303 315.462 261.284 315.494 261.271C315.526 261.259 315.56 261.252 315.594 261.252C315.628 261.252 315.662 261.259 315.694 261.273C315.725 261.286 315.754 261.305 315.778 261.33C315.802 261.354 315.821 261.383 315.834 261.415C315.847 261.446 315.854 261.48 315.854 261.515C315.853 261.549 315.846 261.583 315.833 261.614C315.82 261.646 315.8 261.675 315.776 261.699L304.764 272.563C304.715 272.611 304.649 272.638 304.58 272.638" fill="black"/>
<path d="M305.388 264.881C305.337 264.881 305.286 264.866 305.242 264.838C305.199 264.809 305.165 264.768 305.145 264.72C305.125 264.672 305.12 264.619 305.13 264.569C305.141 264.518 305.166 264.471 305.203 264.434L314.135 255.502C314.16 255.478 314.188 255.458 314.22 255.445C314.252 255.432 314.286 255.425 314.32 255.425C314.355 255.425 314.389 255.431 314.421 255.445C314.452 255.458 314.481 255.477 314.506 255.501C314.53 255.525 314.549 255.554 314.563 255.586C314.576 255.618 314.583 255.652 314.583 255.686C314.583 255.721 314.576 255.755 314.563 255.786C314.55 255.818 314.531 255.847 314.507 255.871L305.574 264.806C305.524 264.854 305.458 264.881 305.388 264.881Z" fill="black"/>
<path d="M307.054 256.967C307.002 256.968 306.951 256.953 306.908 256.924C306.864 256.895 306.831 256.855 306.811 256.807C306.791 256.759 306.786 256.706 306.796 256.655C306.806 256.604 306.831 256.557 306.868 256.521L314.039 249.352C314.063 249.327 314.092 249.308 314.124 249.294C314.156 249.281 314.19 249.274 314.224 249.274C314.259 249.274 314.293 249.281 314.325 249.294C314.356 249.308 314.385 249.327 314.409 249.352C314.457 249.402 314.484 249.468 314.484 249.537C314.484 249.606 314.457 249.672 314.409 249.722L307.24 256.893C307.191 256.941 307.124 256.968 307.055 256.968" fill="black"/>
<path d="M308.939 249.385C308.887 249.385 308.837 249.37 308.793 249.342C308.75 249.313 308.716 249.272 308.696 249.224C308.676 249.176 308.671 249.123 308.681 249.072C308.692 249.021 308.717 248.975 308.754 248.938L313.489 244.206C313.512 244.181 313.541 244.161 313.573 244.148C313.605 244.134 313.639 244.127 313.673 244.127C313.708 244.127 313.742 244.134 313.774 244.148C313.805 244.161 313.834 244.181 313.858 244.206C313.906 244.255 313.933 244.322 313.933 244.391C313.933 244.46 313.906 244.526 313.858 244.576L309.125 249.31C309.075 249.359 309.009 249.385 308.939 249.385Z" fill="black"/>
<path d="M302.835 280.97C302.783 280.97 302.733 280.955 302.689 280.926C302.646 280.897 302.613 280.856 302.593 280.808C302.573 280.76 302.568 280.708 302.579 280.657C302.589 280.606 302.614 280.56 302.651 280.523L315.093 268.084C315.117 268.059 315.146 268.039 315.178 268.026C315.209 268.012 315.244 268.005 315.278 268.005C315.313 268.005 315.347 268.012 315.379 268.026C315.41 268.039 315.439 268.059 315.463 268.084C315.512 268.133 315.539 268.199 315.539 268.268C315.539 268.338 315.512 268.404 315.463 268.453L303.021 280.893C302.971 280.941 302.904 280.968 302.835 280.968" fill="black"/>
<path d="M301.948 289.995C301.896 289.995 301.845 289.98 301.802 289.952C301.758 289.923 301.725 289.882 301.705 289.834C301.685 289.786 301.68 289.733 301.69 289.682C301.7 289.632 301.725 289.585 301.762 289.548L315.684 275.624C315.734 275.576 315.801 275.549 315.87 275.549C315.939 275.549 316.006 275.576 316.056 275.624C316.105 275.674 316.132 275.741 316.132 275.81C316.132 275.88 316.105 275.946 316.056 275.996L302.135 289.92C302.084 289.967 302.018 289.994 301.948 289.995Z" fill="black"/>
<path d="M299.877 300.055C299.825 300.055 299.774 300.04 299.731 300.011C299.687 299.983 299.654 299.942 299.634 299.894C299.614 299.846 299.609 299.793 299.619 299.742C299.629 299.691 299.654 299.645 299.691 299.608L317.154 282.145C317.203 282.096 317.27 282.069 317.34 282.069C317.409 282.069 317.476 282.096 317.525 282.145C317.574 282.195 317.6 282.262 317.6 282.331C317.6 282.4 317.574 282.467 317.525 282.517L300.063 299.979C300.013 300.028 299.946 300.055 299.877 300.055Z" fill="black"/>
<path d="M298.324 310.04C298.272 310.04 298.221 310.025 298.178 309.996C298.135 309.968 298.101 309.927 298.081 309.879C298.061 309.831 298.056 309.778 298.066 309.727C298.076 309.676 298.102 309.629 298.139 309.593L318.412 289.319C318.462 289.27 318.529 289.243 318.598 289.243C318.668 289.243 318.734 289.27 318.784 289.319C318.832 289.369 318.859 289.436 318.859 289.505C318.859 289.574 318.832 289.641 318.784 289.69L298.51 309.964C298.46 310.012 298.394 310.039 298.324 310.04Z" fill="black"/>
<path d="M296.401 319.534C296.349 319.534 296.298 319.519 296.255 319.491C296.212 319.462 296.178 319.421 296.158 319.373C296.138 319.325 296.133 319.272 296.143 319.221C296.153 319.17 296.179 319.124 296.216 319.087L318.918 296.385C318.967 296.336 319.034 296.308 319.104 296.308C319.173 296.308 319.24 296.336 319.289 296.385C319.337 296.435 319.364 296.501 319.364 296.57C319.364 296.64 319.337 296.706 319.289 296.756L296.587 319.458C296.537 319.507 296.471 319.534 296.401 319.534Z" fill="black"/>
<path d="M295.432 328.649C295.363 328.65 295.296 328.623 295.246 328.574C295.198 328.524 295.171 328.458 295.171 328.388C295.171 328.319 295.198 328.253 295.246 328.203L319.895 303.554C319.944 303.505 320.01 303.478 320.08 303.478C320.149 303.478 320.215 303.505 320.264 303.554C320.313 303.603 320.341 303.67 320.341 303.739C320.341 303.808 320.313 303.875 320.264 303.924L295.619 328.574C295.569 328.622 295.502 328.649 295.433 328.649" fill="black"/>
<path d="M297.203 335.51C297.151 335.51 297.1 335.495 297.057 335.467C297.013 335.438 296.98 335.397 296.96 335.349C296.94 335.301 296.934 335.248 296.945 335.198C296.955 335.147 296.98 335.1 297.017 335.063L319.536 312.547C319.586 312.498 319.653 312.47 319.722 312.47C319.792 312.47 319.858 312.498 319.908 312.547C319.956 312.596 319.983 312.663 319.983 312.732C319.983 312.802 319.956 312.868 319.908 312.918L297.389 335.435C297.339 335.483 297.272 335.51 297.203 335.51Z" fill="black"/>
<path d="M299.878 341.132C299.826 341.132 299.775 341.117 299.732 341.089C299.688 341.06 299.654 341.019 299.635 340.971C299.615 340.923 299.609 340.87 299.62 340.819C299.63 340.768 299.655 340.722 299.692 340.685L319.525 320.851C319.549 320.826 319.578 320.805 319.61 320.791C319.642 320.777 319.677 320.77 319.712 320.769C319.747 320.769 319.782 320.775 319.814 320.788C319.847 320.802 319.876 320.821 319.901 320.846C319.926 320.871 319.945 320.9 319.959 320.933C319.972 320.965 319.978 321 319.978 321.035C319.977 321.07 319.97 321.105 319.956 321.137C319.942 321.169 319.921 321.198 319.896 321.222L300.063 341.056C300.013 341.104 299.947 341.131 299.878 341.132Z" fill="black"/>
<path d="M301.587 346.906C301.535 346.907 301.484 346.892 301.441 346.863C301.397 346.834 301.364 346.793 301.344 346.745C301.324 346.698 301.319 346.645 301.329 346.594C301.339 346.543 301.364 346.496 301.401 346.46L320.386 327.475C320.436 327.427 320.502 327.4 320.572 327.4C320.641 327.4 320.707 327.427 320.757 327.475C320.804 327.525 320.831 327.592 320.831 327.661C320.831 327.73 320.804 327.796 320.757 327.846L301.773 346.831C301.723 346.879 301.656 346.906 301.587 346.906Z" fill="black"/>
<path d="M304.069 351.858C304.017 351.859 303.967 351.844 303.923 351.815C303.88 351.786 303.846 351.745 303.826 351.697C303.806 351.649 303.801 351.597 303.811 351.546C303.822 351.495 303.847 351.448 303.884 351.412L318.753 336.543C318.802 336.494 318.869 336.467 318.939 336.467C319.008 336.467 319.075 336.494 319.124 336.543C319.172 336.593 319.199 336.66 319.199 336.729C319.199 336.798 319.172 336.865 319.124 336.915L304.257 351.782C304.207 351.83 304.14 351.857 304.071 351.857" fill="black"/>
<path d="M306.831 356.39C306.779 356.391 306.728 356.376 306.685 356.347C306.641 356.318 306.607 356.278 306.587 356.23C306.568 356.182 306.562 356.129 306.573 356.078C306.583 356.027 306.608 355.98 306.645 355.944L314.505 348.084C314.554 348.037 314.621 348.011 314.689 348.012C314.757 348.013 314.823 348.041 314.871 348.089C314.919 348.137 314.947 348.203 314.948 348.271C314.949 348.34 314.923 348.406 314.876 348.455L307.016 356.315C306.967 356.363 306.9 356.39 306.831 356.39Z" fill="black"/>
<path d="M308.768 361.793C308.703 361.793 308.64 361.768 308.591 361.724C308.566 361.7 308.545 361.672 308.531 361.641C308.517 361.61 308.509 361.576 308.507 361.542C308.506 361.508 308.511 361.473 308.523 361.441C308.535 361.409 308.553 361.379 308.577 361.354L312.213 357.425C312.26 357.374 312.325 357.345 312.395 357.342C312.464 357.339 312.531 357.364 312.582 357.411C312.633 357.459 312.662 357.524 312.665 357.593C312.668 357.662 312.643 357.729 312.596 357.78L308.961 361.709C308.936 361.736 308.906 361.757 308.873 361.772C308.84 361.786 308.804 361.794 308.768 361.795" fill="black"/>
<path d="M303.652 230.742C303.615 230.742 303.579 230.734 303.545 230.719C303.512 230.705 303.481 230.684 303.456 230.657C303.433 230.631 303.416 230.601 303.405 230.569C303.393 230.536 303.389 230.502 303.391 230.467C303.393 230.433 303.402 230.399 303.417 230.369C303.432 230.338 303.453 230.31 303.479 230.287L310.358 224.183C310.383 224.16 310.413 224.143 310.446 224.132C310.478 224.12 310.513 224.116 310.547 224.118C310.582 224.12 310.615 224.129 310.646 224.144C310.677 224.159 310.704 224.18 310.727 224.206C310.75 224.231 310.768 224.261 310.779 224.294C310.791 224.326 310.795 224.36 310.793 224.394C310.791 224.429 310.782 224.462 310.767 224.493C310.751 224.523 310.73 224.551 310.704 224.573L303.826 230.679C303.778 230.72 303.717 230.743 303.654 230.744" fill="black"/>
<path d="M305.72 235.479C305.651 235.479 305.585 235.452 305.535 235.404C305.486 235.354 305.458 235.288 305.458 235.218C305.458 235.148 305.486 235.082 305.535 235.032L315.641 224.929C315.69 224.88 315.757 224.852 315.826 224.852C315.896 224.852 315.963 224.88 316.012 224.929C316.059 224.979 316.086 225.045 316.086 225.114C316.086 225.183 316.059 225.25 316.012 225.3L305.906 235.406C305.856 235.454 305.79 235.481 305.72 235.481" fill="black"/>
<path d="M309.051 238.437C308.981 238.436 308.915 238.408 308.865 238.36C308.816 238.311 308.789 238.244 308.789 238.175C308.789 238.106 308.816 238.039 308.865 237.99L316.639 230.218C316.663 230.194 316.692 230.175 316.724 230.162C316.756 230.149 316.79 230.142 316.824 230.142C316.859 230.142 316.893 230.149 316.924 230.162C316.956 230.176 316.985 230.195 317.009 230.219C317.033 230.244 317.052 230.273 317.065 230.305C317.078 230.336 317.085 230.37 317.084 230.405C317.084 230.439 317.077 230.473 317.064 230.505C317.051 230.536 317.031 230.565 317.007 230.589L309.233 238.362C309.209 238.386 309.18 238.405 309.148 238.418C309.117 238.431 309.083 238.437 309.049 238.437" fill="black"/>
</g>
</g>
</svg>
