<svg width="102.193176" height="24.209717" viewBox="0 0 102.193 24.2097" fill="none" xmlns="http://www.w3.org/2000/svg" xmlns:xlink="http://www.w3.org/1999/xlink">
	<desc>
			Created with Pixso.
	</desc>
	<defs/>
	<path id="Path 1" d="M10.6411 9.07129C10.1534 9.30371 9.72852 9.6499 9.40228 10.0806C9.07605 10.5115 8.85797 11.0142 8.76642 11.5466C8.6748 12.0791 8.71234 12.626 8.87592 13.1409C9.03949 13.6558 9.32428 14.124 9.70636 14.5061C10.0884 14.8882 10.5566 15.1729 11.0716 15.3364C11.5865 15.5 12.1333 15.5376 12.6658 15.446C13.1983 15.3545 13.701 15.1365 14.1318 14.8101C14.5626 14.4839 14.9087 14.0591 15.1411 13.5713" stroke="#0086D3" stroke-opacity="1.000000" stroke-width="1.700000" stroke-linejoin="round" stroke-linecap="round"/>
	<path id="Path 2" d="M14.4982 5.21143C12.9362 4.66821 11.2362 4.67114 9.67603 5.21948C8.11591 5.76782 6.78802 6.82935 5.90955 8.23047C5.03101 9.63159 4.65393 11.2893 4.83984 12.9324C5.02576 14.5757 5.76379 16.1072 6.93311 17.2766C8.10248 18.4458 9.63397 19.1838 11.2772 19.3699C12.9204 19.5557 14.5781 19.1787 15.9792 18.3C17.3802 17.4216 18.4418 16.0938 18.9902 14.5337C19.5386 12.9734 19.5414 11.2734 18.9982 9.71143" stroke="#0086D3" stroke-opacity="1.000000" stroke-width="1.700000" stroke-linejoin="round" stroke-linecap="round"/>
	<path id="Path 3" d="M17.4731 2.23657C15.0986 0.943848 12.3378 0.550293 9.69653 1.12744C7.0553 1.70483 4.71051 3.21436 3.09174 5.37988C1.47296 7.54517 0.688599 10.2214 0.882385 12.918C1.07611 15.6147 2.23505 18.1511 4.14679 20.063C6.05847 21.9746 8.59503 23.1335 11.2916 23.3274C13.9883 23.521 16.6644 22.7366 18.8298 21.1179C20.9952 19.499 22.5049 17.1543 23.0822 14.5132C23.6594 11.8718 23.2657 9.11108 21.9731 6.73657" stroke="#0086D3" stroke-opacity="1.000000" stroke-width="1.700000" stroke-linejoin="round" stroke-linecap="round"/>
	<path id="Path 4" d="M23.3412 0.868408L12.0912 12.1184" stroke="#0086D3" stroke-opacity="1.000000" stroke-width="1.700000" stroke-linejoin="round" stroke-linecap="round"/>
	<path id="Path 5" d="M43.1752 2.98633L43.1752 5.60229L38.0632 5.60229L38.0632 19.6184L35.0152 19.6184L35.0152 5.60229L29.9032 5.60229L29.9032 2.98633L43.1752 2.98633ZM48.7932 17.5784C49.4762 17.595 50.1593 17.5469 50.8332 17.4343L50.8332 14.2185C50.6031 14.1558 50.3693 14.1077 50.1332 14.0745C49.7996 14.0242 49.4626 14.0002 49.1252 14.0024C48.7959 14.0032 48.4671 14.0271 48.1412 14.0745C47.8339 14.1187 47.5347 14.2075 47.2532 14.3384C47.0001 14.4641 46.7848 14.6545 46.6292 14.8904C46.4601 15.1458 46.376 15.4482 46.3892 15.7544C46.36 16.0303 46.4045 16.3091 46.5184 16.562C46.6323 16.8149 46.8113 17.0332 47.0372 17.1943C47.5779 17.4763 48.1841 17.6089 48.7932 17.5784ZM48.5532 6.75439C49.3759 6.73291 50.1962 6.85474 50.9772 7.1145C51.5741 7.31348 52.1118 7.65845 52.5412 8.11841C52.9503 8.56714 53.2393 9.11206 53.3812 9.70239C53.5623 10.3589 53.6498 11.0376 53.6412 11.7185L53.6412 19.3264C53.1932 19.4224 52.5132 19.5344 51.6012 19.6624C50.5925 19.8147 49.5733 19.887 48.5532 19.8784C47.8593 19.8845 47.1668 19.812 46.4892 19.6624C45.9121 19.5378 45.3656 19.2998 44.8812 18.9624C44.4432 18.6357 44.0894 18.2092 43.8492 17.7185C43.5915 17.1191 43.4686 16.4705 43.4892 15.8184C43.469 15.1858 43.6094 14.5581 43.8972 13.9944C44.1776 13.5063 44.5731 13.0945 45.0492 12.7944C45.5523 12.4648 46.1148 12.2366 46.7052 12.1223C47.3592 11.9768 48.0273 11.9043 48.6972 11.9065C49.0344 11.9077 49.3712 11.9316 49.7052 11.9783C50.0853 12.0151 50.4623 12.0793 50.8332 12.1704L50.8332 11.6904C50.8347 11.3665 50.7944 11.0439 50.7132 10.7305C50.6273 10.4268 50.4719 10.1475 50.2595 9.91431C50.0471 9.68091 49.7834 9.50024 49.4892 9.38647C49.0968 9.24634 48.6816 9.18115 48.2652 9.19434C47.6462 9.19019 47.028 9.23828 46.4172 9.33838C45.9523 9.41064 45.4946 9.52295 45.0492 9.67432L44.6892 7.32227C45.2152 7.15576 45.7526 7.02734 46.2972 6.93848C47.0422 6.80957 47.7972 6.74805 48.5532 6.75439ZM60.3412 17.5303C60.9137 17.5647 61.4868 17.4746 62.0212 17.2664C62.1925 17.1743 62.3335 17.0349 62.4272 16.8645C62.5209 16.6941 62.5633 16.5002 62.5492 16.3064C62.5482 16.0996 62.4949 15.8967 62.3941 15.7163C62.2934 15.5356 62.1486 15.3838 61.9732 15.2744C61.398 14.8999 60.7769 14.6016 60.1252 14.3865C59.5972 14.1943 59.1092 13.9944 58.6612 13.7864C58.2541 13.5793 57.875 13.3213 57.5332 13.0183C57.2117 12.7283 56.9507 12.3777 56.7652 11.9863C56.5773 11.5051 56.4875 10.991 56.5012 10.4744C56.4792 9.95337 56.5834 9.43457 56.8048 8.9624C57.0263 8.49023 57.3585 8.07861 57.7732 7.76245C58.7766 7.04224 59.996 6.68652 61.2292 6.75439C61.9388 6.75171 62.6468 6.82397 63.3412 6.97046C63.8548 7.05713 64.3605 7.18555 64.8532 7.35449L64.3252 9.7063C63.9309 9.53735 63.5209 9.40723 63.1012 9.31836C62.5355 9.18237 61.955 9.11792 61.3732 9.12646C60.8744 9.10522 60.3785 9.21265 59.9332 9.43848C59.7614 9.5188 59.6172 9.64844 59.519 9.81079C59.4207 9.97314 59.3728 10.1609 59.3812 10.3503C59.379 10.5391 59.4129 10.7266 59.4812 10.9023C59.5756 11.0798 59.7065 11.2351 59.8652 11.3584C60.0872 11.5129 60.3213 11.6494 60.5652 11.7664C60.8532 11.8943 61.2052 12.0303 61.6212 12.1743C62.2214 12.3916 62.8067 12.6482 63.3732 12.9424C63.811 13.1521 64.209 13.4363 64.5492 13.7825C64.8628 14.074 65.1027 14.436 65.2492 14.8384C65.4032 15.3025 65.4763 15.7896 65.4652 16.2783C65.493 16.813 65.3828 17.3459 65.1454 17.8257C64.9079 18.3054 64.5511 18.7163 64.1092 19.0183C62.965 19.6953 61.644 20.0129 60.3172 19.9304C59.4203 19.9543 58.5243 19.8574 57.6532 19.6423C57.1732 19.5261 56.7003 19.3818 56.2372 19.2104L56.7372 16.7864C57.2386 16.9839 57.7516 17.1509 58.2732 17.2864C58.9492 17.4561 59.6443 17.5381 60.3412 17.5303ZM71.0702 11.9624L72.2412 10.7383L73.4652 9.41846C73.8652 8.97046 74.2412 8.54639 74.5932 8.14648C74.9612 7.73047 75.2732 7.37036 75.5292 7.06641L78.9612 7.06641C78.1612 7.9624 77.3132 8.89038 76.4172 9.85034C75.5372 10.8103 74.6492 11.7463 73.7532 12.6584C74.2907 13.1108 74.7975 13.5986 75.2702 14.1184C75.7982 14.6785 76.3102 15.2783 76.8062 15.9185C77.3022 16.5583 77.7662 17.1985 78.1982 17.8384C78.5894 18.4121 78.9499 19.0063 79.2782 19.6184L75.9182 19.6184C75.6302 19.1223 75.2942 18.6023 74.9102 18.0583C74.5385 17.5095 74.1379 16.9807 73.7102 16.4744C73.2782 15.9624 72.8382 15.4824 72.3902 15.0344C71.9832 14.6067 71.5417 14.2134 71.0702 13.8584L71.0702 19.6184L68.1702 19.6184L68.1702 1.47437L71.0702 0.994385L71.0702 11.9624ZM80.1262 13.4023C80.1072 12.4146 80.2699 11.4314 80.6062 10.5024C80.9023 9.73218 81.3513 9.03027 81.9262 8.43848C82.4517 7.89087 83.0906 7.46484 83.7982 7.19043C84.4829 6.90625 85.2169 6.75952 85.9582 6.7583C86.7069 6.71558 87.4559 6.8374 88.1525 7.11523C88.8491 7.39307 89.4764 7.82007 89.9902 8.36646C91.0616 9.72681 91.584 11.4395 91.4542 13.1665C91.4542 13.3264 91.4462 13.5105 91.4302 13.7185C91.4302 13.9104 91.4222 14.0864 91.4062 14.2463L83.1262 14.2463C83.1534 15.1392 83.5331 15.9849 84.1822 16.5984C84.9753 17.1912 85.9543 17.4805 86.9422 17.4143C87.5873 17.4204 88.2311 17.356 88.8622 17.2224C89.3377 17.1292 89.8036 16.9927 90.2542 16.8145L90.6382 19.1904C90.4204 19.2935 90.1959 19.3816 89.9662 19.4543C89.6505 19.5442 89.33 19.6165 89.0062 19.6704C88.6259 19.7551 88.2414 19.8191 87.8542 19.8623C87.4319 19.9106 87.0072 19.9348 86.5822 19.9343C85.6006 19.9556 84.6238 19.7927 83.7022 19.4543C82.9372 19.1533 82.2487 18.686 81.6862 18.0864C81.154 17.4868 80.7534 16.7822 80.5102 16.0183C80.2472 15.1716 80.1177 14.2891 80.1262 13.4023ZM88.5502 12.1023C88.5528 11.72 88.4962 11.3394 88.3822 10.9744C88.2842 10.6304 88.1137 10.3113 87.8822 10.0383C87.675 9.76709 87.4025 9.55225 87.0902 9.41431C86.7485 9.24609 86.3709 9.16382 85.9902 9.17432C85.5825 9.16528 85.1788 9.25586 84.8142 9.43848C84.485 9.59326 84.191 9.81372 83.9502 10.0864C83.722 10.366 83.5434 10.6824 83.4222 11.0225C83.2949 11.3716 83.2064 11.7339 83.1582 12.1023L88.5502 12.1023ZM101.685 9.67847C101.355 9.57642 101.018 9.49634 100.677 9.43848C100.196 9.33569 99.705 9.28735 99.2132 9.29443C98.867 9.2981 98.5217 9.33154 98.1812 9.39429C97.93 9.43506 97.6815 9.49097 97.4372 9.5625L97.4372 19.6184L94.5372 19.6184L94.5372 7.6665C95.2185 7.42456 95.9163 7.23193 96.6252 7.09033C97.5476 6.89062 98.4894 6.79395 99.4332 6.80249C99.658 6.80469 99.8824 6.8208 100.105 6.85034C100.363 6.86792 100.62 6.90137 100.873 6.95044C101.124 6.98145 101.373 7.02954 101.617 7.09448C101.812 7.13086 102.004 7.17896 102.193 7.23828L101.685 9.67847Z" fill="#303030" fill-opacity="1.000000" fill-rule="nonzero"/>
</svg>
